  0
SECTION
  2
HEADER
  9
$ACADVER
  1
AC1015
  9
$ACADMAINTVER
 70
     6
  9
$DWGCODEPAGE
  3
ANSI_1252
  9
$INSBASE
 10
0.0
 20
0.0
 30
0.0
  9
$EXTMIN
 10
0.0
 20
0.0
 30
0.0
  9
$EXTMAX
 10
210.0
 20
297.0
 30
0.0
  9
$LIMMIN
 10
0.0
 20
0.0
  9
$LIMMAX
 10
210.0
 20
297.0
  9
$ORTHOMODE
 70
     0
  9
$REGENMODE
 70
     1
  9
$FILLMODE
 70
     1
  9
$QTEXTMODE
 70
     0
  9
$MIRRTEXT
 70
     1
  9
$LTSCALE
 40
1.0
  9
$ATTMODE
 70
     1
  9
$TEXTSIZE
 40
3.5
  9
$TRACEWID
 40
1.0
  9
$TEXTSTYLE
  7
Standard
  9
$CLAYER
  8
0
  9
$CELTYPE
  6
ByLayer
  9
$CECOLOR
 62
   256
  9
$CELTSCALE
 40
1.0
  9
$DISPSILH
 70
     0
  9
$DIMSCALE
 40
1.0
  9
$DIMASZ
 40
3.302
  9
$DIMEXO
 40
1.0
  9
$DIMDLI
 40
3.75
  9
$DIMRND
 40
0.0
  9
$DIMDLE
 40
0.0
  9
$DIMEXE
 40
1.0
  9
$DIMTP
 40
0.0
  9
$DIMTM
 40
0.0
  9
$DIMTXT
 40
3.5
  9
$DIMCEN
 40
2.5
  9
$DIMTSZ
 40
0.0
  9
$DIMTOL
 70
     0
  9
$DIMLIM
 70
     0
  9
$DIMTIH
 70
     1
  9
$DIMTOH
 70
     1
  9
$DIMSE1
 70
     0
  9
$DIMSE2
 70
     0
  9
$DIMTAD
 70
     1
  9
$DIMZIN
 70
     1
  9
$DIMBLK
  1

  9
$DIMASO
 70
     1
  9
$DIMSHO
 70
     1
  9
$DIMPOST
  1

  9
$DIMAPOST
  1

  9
$DIMALT
 70
     0
  9
$DIMALTD
 70
     3
  9
$DIMALTF
 40
0.0393700787
  9
$DIMLFAC
 40
1.0
  9
$DIMTOFL
 70
     1
  9
$DIMTVP
 40
0.0
  9
$DIMTIX
 70
     0
  9
$DIMSOXD
 70
     0
  9
$DIMSAH
 70
     0
  9
$DIMBLK1
  1

  9
$DIMBLK2
  1

  9
$DIMSTYLE
  2
ISO-25
  9
$DIMCLRD
 70
     0
  9
$DIMCLRE
 70
     0
  9
$DIMCLRT
 70
     0
  9
$DIMTFAC
 40
1.0
  9
$DIMGAP
 40
1.524
  9
$DIMJUST
 70
     0
  9
$DIMSD1
 70
     0
  9
$DIMSD2
 70
     0
  9
$DIMTOLJ
 70
     0
  9
$DIMTZIN
 70
     1
  9
$DIMALTZ
 70
     0
  9
$DIMALTTZ
 70
     0
  9
$DIMUPT
 70
     0
  9
$DIMDEC
 70
     2
  9
$DIMTDEC
 70
     2
  9
$DIMALTU
 70
     2
  9
$DIMALTTD
 70
     3
  9
$DIMTXSTY
  7
Standard
  9
$DIMAUNIT
 70
     0
  9
$DIMADEC
 70
     2
  9
$DIMALTRND
 40
0.0
  9
$DIMAZIN
 70
     0
  9
$DIMDSEP
 70
    44
  9
$DIMATFIT
 70
     3
  9
$DIMFRAC
 70
     0
  9
$DIMLDRBLK
  1

  9
$DIMLUNIT
 70
     2
  9
$DIMLWD
 70
    -2
  9
$DIMLWE
 70
    -2
  9
$DIMTMOVE
 70
     0
  9
$LUNITS
 70
     2
  9
$LUPREC
 70
     2
  9
$SKETCHINC
 40
1.0
  9
$FILLETRAD
 40
10.0
  9
$AUNITS
 70
     0
  9
$AUPREC
 70
     2
  9
$MENU
  1
.
  9
$ELEVATION
 40
0.0
  9
$PELEVATION
 40
0.0
  9
$THICKNESS
 40
0.0
  9
$LIMCHECK
 70
     0
  9
$CHAMFERA
 40
0.0
  9
$CHAMFERB
 40
0.0
  9
$CHAMFERC
 40
0.0
  9
$CHAMFERD
 40
0.0
  9
$SKPOLY
 70
     0
  9
$TDCREATE
 40
2459947.647200937
  9
$TDUCREATE
 40
2459947.355534271
  9
$TDUPDATE
 40
2459947.647207187
  9
$TDUUPDATE
 40
2459947.355540521
  9
$TDINDWG
 40
0.0000000116
  9
$TDUSRTIMER
 40
0.0000000116
  9
$USRTIMER
 70
     1
  9
$ANGBASE
 50
0.0
  9
$ANGDIR
 70
     0
  9
$PDMODE
 70
     0
  9
$PDSIZE
 40
-1.0
  9
$PLINEWID
 40
0.0
  9
$SPLFRAME
 70
     0
  9
$SPLINETYPE
 70
     6
  9
$SPLINESEGS
 70
     8
  9
$HANDSEED
  5
29C
  9
$SURFTAB1
 70
     6
  9
$SURFTAB2
 70
     6
  9
$SURFTYPE
 70
     6
  9
$SURFU
 70
     6
  9
$SURFV
 70
     6
  9
$UCSBASE
  2

  9
$UCSNAME
  2

  9
$UCSORG
 10
0.0
 20
0.0
 30
0.0
  9
$UCSXDIR
 10
1.0
 20
0.0
 30
0.0
  9
$UCSYDIR
 10
0.0
 20
1.0
 30
0.0
  9
$UCSORTHOREF
  2

  9
$UCSORTHOVIEW
 70
     0
  9
$UCSORGTOP
 10
0.0
 20
0.0
 30
0.0
  9
$UCSORGBOTTOM
 10
0.0
 20
0.0
 30
0.0
  9
$UCSORGLEFT
 10
0.0
 20
0.0
 30
0.0
  9
$UCSORGRIGHT
 10
0.0
 20
0.0
 30
0.0
  9
$UCSORGFRONT
 10
0.0
 20
0.0
 30
0.0
  9
$UCSORGBACK
 10
0.0
 20
0.0
 30
0.0
  9
$PUCSBASE
  2

  9
$PUCSNAME
  2

  9
$PUCSORG
 10
0.0
 20
0.0
 30
0.0
  9
$PUCSXDIR
 10
1.0
 20
0.0
 30
0.0
  9
$PUCSYDIR
 10
0.0
 20
1.0
 30
0.0
  9
$PUCSORTHOREF
  2

  9
$PUCSORTHOVIEW
 70
     0
  9
$PUCSORGTOP
 10
0.0
 20
0.0
 30
0.0
  9
$PUCSORGBOTTOM
 10
0.0
 20
0.0
 30
0.0
  9
$PUCSORGLEFT
 10
0.0
 20
0.0
 30
0.0
  9
$PUCSORGRIGHT
 10
0.0
 20
0.0
 30
0.0
  9
$PUCSORGFRONT
 10
0.0
 20
0.0
 30
0.0
  9
$PUCSORGBACK
 10
0.0
 20
0.0
 30
0.0
  9
$USERI1
 70
     0
  9
$USERI2
 70
     0
  9
$USERI3
 70
     0
  9
$USERI4
 70
     0
  9
$USERI5
 70
     0
  9
$USERR1
 40
0.0
  9
$USERR2
 40
0.0
  9
$USERR3
 40
0.0
  9
$USERR4
 40
0.0
  9
$USERR5
 40
0.0
  9
$WORLDVIEW
 70
     1
  9
$SHADEDGE
 70
     3
  9
$SHADEDIF
 70
    70
  9
$TILEMODE
 70
     1
  9
$MAXACTVP
 70
    64
  9
$PINSBASE
 10
0.0
 20
0.0
 30
0.0
  9
$PLIMCHECK
 70
     0
  9
$PEXTMIN
 10
1.0000000000E+20
 20
1.0000000000E+20
 30
1.0000000000E+20
  9
$PEXTMAX
 10
-1.0000000000E+20
 20
-1.0000000000E+20
 30
-1.0000000000E+20
  9
$PLIMMIN
 10
0.0
 20
0.0
  9
$PLIMMAX
 10
420.0
 20
297.0
  9
$UNITMODE
 70
     0
  9
$VISRETAIN
 70
     1
  9
$PLINEGEN
 70
     0
  9
$PSLTSCALE
 70
     1
  9
$TREEDEPTH
 70
  3020
  9
$CMLSTYLE
  2
Standard
  9
$CMLJUST
 70
     0
  9
$CMLSCALE
 40
20.0
  9
$PROXYGRAPHICS
 70
     1
  9
$MEASUREMENT
 70
     1
  9
$CELWEIGHT
370
    -1
  9
$ENDCAPS
280
     0
  9
$JOINSTYLE
280
     0
  9
$LWDISPLAY
290
     1
  9
$INSUNITS
 70
     4
  9
$HYPERLINKBASE
  1

  9
$STYLESHEET
  1

  9
$XEDIT
290
     1
  9
$CEPSNTYPE
380
     0
  9
$PSTYLEMODE
290
     1
  9
$FINGERPRINTGUID
  2
{6e664cb1-2739-48f8-ae7d-2bdd8ea3c43b}
  9
$VERSIONGUID
  2
{FAEB1C32-E019-11D5-929B-00C0DF256EC4}
  9
$EXTNAMES
290
     1
  9
$PSVPSCALE
 40
0.0
  9
$OLESTARTUP
290
     0
  0
ENDSEC
  0
SECTION
  2
CLASSES
  0
CLASS
  1
ACDBDICTIONARYWDFLT
  2
AcDbDictionaryWithDefault
  3
ObjectDBX Classes
 90
        0
280
     0
281
     0
  0
CLASS
  1
VISUALSTYLE
  2
AcDbVisualStyle
  3
ObjectDBX Classes
 90
     4095
280
     0
281
     0
  0
CLASS
  1
MATERIAL
  2
AcDbMaterial
  3
ObjectDBX Classes
 90
     1153
280
     0
281
     0
  0
CLASS
  1
SCALE
  2
AcDbScale
  3
ObjectDBX Classes
 90
     1153
280
     0
281
     0
  0
CLASS
  1
TABLESTYLE
  2
AcDbTableStyle
  3
ObjectDBX Classes
 90
     4095
280
     0
281
     0
  0
CLASS
  1
MLEADERSTYLE
  2
AcDbMLeaderStyle
  3
ACDB_MLEADERSTYLE_CLASS
 90
     4095
280
     0
281
     0
  0
CLASS
  1
SUN
  2
AcDbSun
  3
SCENEOE
 90
     1153
280
     0
281
     0
  0
CLASS
  1
ACDBPLACEHOLDER
  2
AcDbPlaceHolder
  3
ObjectDBX Classes
 90
        0
280
     0
281
     0
  0
CLASS
  1
LAYOUT
  2
AcDbLayout
  3
ObjectDBX Classes
 90
        0
280
     0
281
     0
  0
ENDSEC
  0
SECTION
  2
TABLES
  0
TABLE
  2
VPORT
  5
8
330
0
100
AcDbSymbolTable
 70
     1
  0
VPORT
  5
29
330
8
100
AcDbSymbolTableRecord
100
AcDbViewportTableRecord
  2
*Active
 70
     0
 10
0.0
 20
0.0
 11
1.0
 21
1.0
 12
105.0
 22
148.5
 13
0.0
 23
0.0
 14
10.0
 24
10.0
 15
10.0
 25
10.0
 16
0.0
 26
0.0
 36
1.0
 17
0.0
 27
0.0
 37
0.0
 40
297.0
 41
0.7070707071
 42
50.0
 43
0.0
 44
0.0
 50
0.0
 51
0.0
 71
     0
 72
  2000
 73
     1
 74
     3
 75
     0
 76
     0
 77
     0
 78
     0
281
     0
 65
     1
110
0.0
120
0.0
130
0.0
111
1.0
121
0.0
131
0.0
112
0.0
122
1.0
132
0.0
 79
     0
146
0.0
  0
ENDTAB
  0
TABLE
  2
LTYPE
  5
5
330
0
100
AcDbSymbolTable
 70
     6
  0
LTYPE
  5
14
330
5
100
AcDbSymbolTableRecord
100
AcDbLinetypeTableRecord
  2
ByBlock
 70
     0
  3

 72
    65
 73
     0
 40
0.0
  0
LTYPE
  5
15
330
5
100
AcDbSymbolTableRecord
100
AcDbLinetypeTableRecord
  2
ByLayer
 70
     0
  3

 72
    65
 73
     0
 40
0.0
  0
LTYPE
  5
16
330
5
100
AcDbSymbolTableRecord
100
AcDbLinetypeTableRecord
  2
Continuous
 70
     0
  3
Solid line
 72
    65
 73
     0
 40
0.0
  0
LTYPE
  5
6E
330
5
100
AcDbSymbolTableRecord
100
AcDbLinetypeTableRecord
  2
HIDDEN
 70
     0
  3
Hidden __ __ __ __ __ __ __ __ __ __ __ __ __ __
 72
    65
 73
     2
 40
1.905
 49
1.27
 74
     0
 49
-0.635
 74
     0
  0
LTYPE
  5
6F
330
5
100
AcDbSymbolTableRecord
100
AcDbLinetypeTableRecord
  2
PHANTOM
 70
     0
  3
Phantom ______  __  __  ______  __  __  ______
 72
    65
 73
     6
 40
12.7
 49
6.35
 74
     0
 49
-1.27
 74
     0
 49
1.27
 74
     0
 49
-1.27
 74
     0
 49
1.27
 74
     0
 49
-1.27
 74
     0
  0
LTYPE
  5
70
330
5
100
AcDbSymbolTableRecord
100
AcDbLinetypeTableRecord
  2
CENTER
 70
     0
  3
Center ____ _ ____ _ ____ _ ____ _ ____ _ ____
 72
    65
 73
     4
 40
10.16
 49
6.35
 74
     0
 49
-1.27
 74
     0
 49
1.27
 74
     0
 49
-1.27
 74
     0
  0
LTYPE
  5
71
330
5
100
AcDbSymbolTableRecord
100
AcDbLinetypeTableRecord
  2
CENTERX2
 70
     0
  3
Center (2x) ________  __  ________  __  _____
 72
    65
 73
     4
 40
20.32
 49
12.7
 74
     0
 49
-2.54
 74
     0
 49
2.54
 74
     0
 49
-2.54
 74
     0
  0
LTYPE
  5
72
330
5
100
AcDbSymbolTableRecord
100
AcDbLinetypeTableRecord
  2
DOT2
 70
     0
  3
Dot (.5x) ........................................
 72
    65
 73
     2
 40
0.635
 49
0.0
 74
     0
 49
-0.635
 74
     0
  0
ENDTAB
  0
TABLE
  2
LAYER
  5
2
330
0
100
AcDbSymbolTable
 70
     2
  0
LAYER
  5
10
330
2
100
AcDbSymbolTableRecord
100
AcDbLayerTableRecord
  2
0
 70
     0
 62
     7
  6
Continuous
370
    -3
390
F
  0
LAYER
  5
73
330
2
100
AcDbSymbolTableRecord
100
AcDbLayerTableRecord
  2
FORMAT
 70
     0
 62
     7
  6
Continuous
370
    -3
390
F
  0
ENDTAB
  0
TABLE
  2
STYLE
  5
3
330
0
100
AcDbSymbolTable
 70
     4
  0
STYLE
  5
11
330
3
100
AcDbSymbolTableRecord
100
AcDbTextStyleTableRecord
  2
Standard
 70
     0
 40
0.0
 41
1.0
 50
0.0
 71
     0
 42
3.5
  3
txt
  4

  0
STYLE
  5
A9
330
3
100
AcDbSymbolTableRecord
100
AcDbTextStyleTableRecord
  2
SLDTEXTSTYLE0
 70
     0
 40
0.0
 41
0.75
 50
0.0
 71
     0
 42
3.5
  3
TXT
  4

  0
STYLE
  5
BE
330
3
100
AcDbSymbolTableRecord
100
AcDbTextStyleTableRecord
  2
SLDTEXTSTYLE1
 70
     0
 40
0.0
 41
0.6864493306
 50
0.0
 71
     0
 42
3.5
  3
TXT
  4

  0
STYLE
  5
DF
330
3
100
AcDbSymbolTableRecord
100
AcDbTextStyleTableRecord
  2
SLDTEXTSTYLE2
 70
     0
 40
0.0
 41
0.6875
 50
0.0
 71
     0
 42
3.5
  3
TXT
  4

  0
ENDTAB
  0
TABLE
  2
VIEW
  5
6
330
0
100
AcDbSymbolTable
 70
     0
  0
ENDTAB
  0
TABLE
  2
UCS
  5
7
330
0
100
AcDbSymbolTable
 70
     0
  0
ENDTAB
  0
TABLE
  2
APPID
  5
9
330
0
100
AcDbSymbolTable
 70
     1
  0
APPID
  5
12
330
9
100
AcDbSymbolTableRecord
100
AcDbRegAppTableRecord
  2
ACAD
 70
     0
  0
ENDTAB
  0
TABLE
  2
DIMSTYLE
  5
A
330
0
100
AcDbSymbolTable
 70
     8
100
AcDbDimStyleTable
  0
DIMSTYLE
105
27
330
A
100
AcDbSymbolTableRecord
100
AcDbDimStyleTableRecord
  2
ISO-25
 70
     0
 41
2.5
 42
0.625
 43
3.75
 44
1.25
 73
     0
 74
     0
 77
     1
 78
     8
140
2.5
141
2.5
143
0.0393700787
147
0.625
171
     3
172
     1
178
     0
271
     2
272
     2
274
     3
278
    44
283
     0
284
     8
340
11
  0
DIMSTYLE
105
FF
102
{ACAD_REACTORS
330
FE
330
109
102
}
330
A
100
AcDbSymbolTableRecord
100
AcDbDimStyleTableRecord
  2
SLDDIMSTYLE0
 70
     0
 41
3.302
 44
0.0
 45
0.000000001
 73
     0
 74
     0
 77
     1
 78
    12
 79
     3
140
3.5
147
0.875
173
     1
178
     0
271
     2
272
     2
276
     2
284
    12
340
A9
  0
DIMSTYLE
105
114
102
{ACAD_REACTORS
330
113
330
120
330
135
330
15B
330
19A
330
209
102
}
330
A
100
AcDbSymbolTableRecord
100
AcDbDimStyleTableRecord
  2
SLDDIMSTYLE1
 70
     0
 41
3.302
 44
0.0
 45
0.000000001
 73
     0
 74
     0
 77
     1
 78
     4
 79
     1
140
3.5
147
0.875
172
     1
173
     1
178
     0
271
     2
272
     2
276
     2
284
    12
289
     0
340
A9
  0
DIMSTYLE
105
12D
102
{ACAD_REACTORS
330
12C
102
}
330
A
100
AcDbSymbolTableRecord
100
AcDbDimStyleTableRecord
  2
SLDDIMSTYLE2
 70
     0
 41
3.302
 44
0.0
 45
0.000000001
 73
     0
 74
     0
 77
     1
 78
    12
 79
     3
140
3.5
141
0.0
147
0.875
173
     1
178
     0
271
     2
272
     2
276
     2
284
    12
340
A9
  0
DIMSTYLE
105
168
102
{ACAD_REACTORS
330
167
330
170
330
1BD
330
215
102
}
330
A
100
AcDbSymbolTableRecord
100
AcDbDimStyleTableRecord
  2
SLDDIMSTYLE3
 70
     0
 41
3.302
 44
0.0
 45
0.000000001
 73
     0
 74
     0
 77
     1
 78
     4
 79
     1
140
3.5
141
0.0
147
0.875
173
     1
178
     0
271
     2
272
     2
276
     2
284
    12
340
A9
  0
DIMSTYLE
105
179
102
{ACAD_REACTORS
330
178
330
183
330
1A6
330
21D
330
227
330
231
330
23B
102
}
330
A
100
AcDbSymbolTableRecord
100
AcDbDimStyleTableRecord
  2
SLDDIMSTYLE4
 70
     0
 41
3.302
 44
0.0
 45
0.000000001
 73
     0
 74
     0
 77
     1
 78
     4
 79
     1
140
3.5
147
0.875
173
     1
178
     0
271
     2
272
     2
276
     2
284
    12
340
A9
  0
DIMSTYLE
105
18E
102
{ACAD_REACTORS
330
18D
102
}
330
A
100
AcDbSymbolTableRecord
100
AcDbDimStyleTableRecord
  2
SLDDIMSTYLE5
 70
     0
 41
3.302
 44
0.0
 45
0.000000001
 73
     0
 74
     0
 77
     1
 78
     8
 79
     2
140
3.5
147
0.875
172
     1
173
     1
178
     0
271
     2
272
     2
276
     2
284
    12
289
     0
340
A9
  0
DIMSTYLE
105
1B1
102
{ACAD_REACTORS
330
1B0
102
}
330
A
100
AcDbSymbolTableRecord
100
AcDbDimStyleTableRecord
  2
SLDDIMSTYLE6
 70
     0
 41
3.302
 44
0.0
 45
0.000000001
 73
     0
 74
     0
 77
     1
 78
    12
 79
     3
140
3.5
147
0.875
172
     1
173
     1
178
     0
271
     2
272
     2
276
     2
284
    12
289
     0
340
A9
  0
ENDTAB
  0
TABLE
  2
BLOCK_RECORD
  5
1
330
0
100
AcDbSymbolTable
 70
    29
  0
BLOCK_RECORD
  5
1F
330
1
100
AcDbSymbolTableRecord
100
AcDbBlockTableRecord
  2
*Model_Space
340
22
  0
BLOCK_RECORD
  5
1B
330
1
100
AcDbSymbolTableRecord
100
AcDbBlockTableRecord
  2
*Paper_Space
340
1E
  0
BLOCK_RECORD
  5
23
330
1
100
AcDbSymbolTableRecord
100
AcDbBlockTableRecord
  2
*Paper_Space0
340
26
  0
BLOCK_RECORD
  5
C4
330
1
100
AcDbSymbolTableRecord
100
AcDbBlockTableRecord
  2
SW_NOTE_0
340
0
102
{BLKREFS
331
CD
102
}
  0
BLOCK_RECORD
  5
CF
330
1
100
AcDbSymbolTableRecord
100
AcDbBlockTableRecord
  2
SW_NOTE_0_1
340
0
102
{BLKREFS
331
D5
102
}
  0
BLOCK_RECORD
  5
E5
330
1
100
AcDbSymbolTableRecord
100
AcDbBlockTableRecord
  2
SW_NOTE_0_2
340
0
102
{BLKREFS
331
EA
102
}
  0
BLOCK_RECORD
  5
100
330
1
100
AcDbSymbolTableRecord
100
AcDbBlockTableRecord
  2
_D
340
0
  0
BLOCK_RECORD
  5
10A
330
1
100
AcDbSymbolTableRecord
100
AcDbBlockTableRecord
  2
_D_1
340
0
  0
BLOCK_RECORD
  5
115
330
1
100
AcDbSymbolTableRecord
100
AcDbBlockTableRecord
  2
_D_2
340
0
  0
BLOCK_RECORD
  5
121
330
1
100
AcDbSymbolTableRecord
100
AcDbBlockTableRecord
  2
_D_3
340
0
  0
BLOCK_RECORD
  5
12E
330
1
100
AcDbSymbolTableRecord
100
AcDbBlockTableRecord
  2
_D_4
340
0
  0
BLOCK_RECORD
  5
136
330
1
100
AcDbSymbolTableRecord
100
AcDbBlockTableRecord
  2
_D_5
340
0
  0
BLOCK_RECORD
  5
15C
330
1
100
AcDbSymbolTableRecord
100
AcDbBlockTableRecord
  2
_D_6
340
0
  0
BLOCK_RECORD
  5
169
330
1
100
AcDbSymbolTableRecord
100
AcDbBlockTableRecord
  2
_D_7
340
0
  0
BLOCK_RECORD
  5
171
330
1
100
AcDbSymbolTableRecord
100
AcDbBlockTableRecord
  2
_D_8
340
0
  0
BLOCK_RECORD
  5
17A
330
1
100
AcDbSymbolTableRecord
100
AcDbBlockTableRecord
  2
_D_9
340
0
  0
BLOCK_RECORD
  5
184
330
1
100
AcDbSymbolTableRecord
100
AcDbBlockTableRecord
  2
_D_10
340
0
  0
BLOCK_RECORD
  5
18F
330
1
100
AcDbSymbolTableRecord
100
AcDbBlockTableRecord
  2
_D_11
340
0
  0
BLOCK_RECORD
  5
19B
330
1
100
AcDbSymbolTableRecord
100
AcDbBlockTableRecord
  2
_D_12
340
0
  0
BLOCK_RECORD
  5
1A7
330
1
100
AcDbSymbolTableRecord
100
AcDbBlockTableRecord
  2
_D_13
340
0
  0
BLOCK_RECORD
  5
1B2
330
1
100
AcDbSymbolTableRecord
100
AcDbBlockTableRecord
  2
_D_14
340
0
  0
BLOCK_RECORD
  5
1BE
330
1
100
AcDbSymbolTableRecord
100
AcDbBlockTableRecord
  2
_D_15
340
0
  0
BLOCK_RECORD
  5
1C6
330
1
100
AcDbSymbolTableRecord
100
AcDbBlockTableRecord
  2
SW_CENTERMARKSYMBOL_0
340
0
102
{BLKREFS
331
1FB
102
}
  0
BLOCK_RECORD
  5
20A
330
1
100
AcDbSymbolTableRecord
100
AcDbBlockTableRecord
  2
_D_16
340
0
  0
BLOCK_RECORD
  5
216
330
1
100
AcDbSymbolTableRecord
100
AcDbBlockTableRecord
  2
_D_17
340
0
  0
BLOCK_RECORD
  5
21E
330
1
100
AcDbSymbolTableRecord
100
AcDbBlockTableRecord
  2
_D_18
340
0
  0
BLOCK_RECORD
  5
228
330
1
100
AcDbSymbolTableRecord
100
AcDbBlockTableRecord
  2
_D_19
340
0
  0
BLOCK_RECORD
  5
232
330
1
100
AcDbSymbolTableRecord
100
AcDbBlockTableRecord
  2
_D_20
340
0
  0
BLOCK_RECORD
  5
23C
330
1
100
AcDbSymbolTableRecord
100
AcDbBlockTableRecord
  2
_D_21
340
0
  0
BLOCK_RECORD
  5
243
330
1
100
AcDbSymbolTableRecord
100
AcDbBlockTableRecord
  2
SW_CENTERMARKSYMBOL_1
340
0
102
{BLKREFS
331
255
102
}
  0
BLOCK_RECORD
  5
256
330
1
100
AcDbSymbolTableRecord
100
AcDbBlockTableRecord
  2
SW_CENTERMARKSYMBOL_2
340
0
102
{BLKREFS
331
268
102
}
  0
ENDTAB
  0
ENDSEC
  0
SECTION
  2
BLOCKS
  0
BLOCK
  5
20
330
1F
100
AcDbEntity
  8
0
100
AcDbBlockBegin
  2
*Model_Space
 70
     0
 10
0.0
 20
0.0
 30
0.0
  3
*Model_Space
  1

  0
ENDBLK
  5
21
330
1F
100
AcDbEntity
  8
0
100
AcDbBlockEnd
  0
BLOCK
  5
1C
330
1B
100
AcDbEntity
 67
     1
  8
0
100
AcDbBlockBegin
  2
*Paper_Space
 70
     0
 10
0.0
 20
0.0
 30
0.0
  3
*Paper_Space
  1

  0
ENDBLK
  5
1D
330
1B
100
AcDbEntity
 67
     1
  8
0
100
AcDbBlockEnd
  0
BLOCK
  5
24
330
23
100
AcDbEntity
  8
0
100
AcDbBlockBegin
  2
*Paper_Space0
 70
     0
 10
0.0
 20
0.0
 30
0.0
  3
*Paper_Space0
  1

  0
ENDBLK
  5
25
330
23
100
AcDbEntity
  8
0
100
AcDbBlockEnd
  0
BLOCK
  5
C5
330
C4
100
AcDbEntity
  8
0
100
AcDbBlockBegin
  2
SW_NOTE_0
 70
     0
 10
0.0
 20
0.0
 30
0.0
  3
SW_NOTE_0
  1

  0
MTEXT
  5
C7
330
C4
100
AcDbEntity
  8
0
  6
Continuous
 62
     0
370
     0
100
AcDbMText
 10
0.0
 20
1.9336016097
 30
0.0
 40
1.5
 41
0.0
 71
     1
 72
     1
  1
UNLESS OTHERWISE SPECIFIED:
  7
SLDTEXTSTYLE0
 73
     1
 44
1.0
  0
MTEXT
  5
C8
330
C4
100
AcDbEntity
  8
0
  6
Continuous
 62
     0
370
     0
100
AcDbMText
 10
0.0
 20
-0.5663983345
 30
0.0
 40
1.5
 41
0.0
 71
     1
 72
     1
  1
DIMENSIONS ARE IN MILLIMETERS
  7
SLDTEXTSTYLE0
 73
     1
 44
1.0
  0
MTEXT
  5
C9
330
C4
100
AcDbEntity
  8
0
  6
Continuous
 62
     0
370
     0
100
AcDbMText
 10
0.0
 20
-3.0663982786
 30
0.0
 40
1.5
 41
0.0
 71
     1
 72
     1
  1
SURFACE FINISH:
  7
SLDTEXTSTYLE0
 73
     1
 44
1.0
  0
MTEXT
  5
CA
330
C4
100
AcDbEntity
  8
0
  6
Continuous
 62
     0
370
     0
100
AcDbMText
 10
0.0
 20
-5.5663982227
 30
0.0
 40
1.5
 41
0.0
 71
     1
 72
     1
  1
TOLERANCES:
  7
SLDTEXTSTYLE0
 73
     1
 44
1.0
  0
MTEXT
  5
CB
330
C4
100
AcDbEntity
  8
0
  6
Continuous
 62
     0
370
     0
100
AcDbMText
 10
1.6875
 20
-8.0663981668
 30
0.0
 40
1.5
 41
0.0
 71
     1
 72
     1
  1
LINEAR:
  7
SLDTEXTSTYLE0
 73
     1
 44
1.0
  0
MTEXT
  5
CC
330
C4
100
AcDbEntity
  8
0
  6
Continuous
 62
     0
370
     0
100
AcDbMText
 10
1.6875
 20
-10.5663981109
 30
0.0
 40
1.5
 41
0.0
 71
     1
 72
     1
  1
ANGULAR:
  7
SLDTEXTSTYLE0
 73
     1
 44
1.0
  0
ENDBLK
  5
C6
330
C4
100
AcDbEntity
  8
0
100
AcDbBlockEnd
  0
BLOCK
  5
D0
330
CF
100
AcDbEntity
  8
0
100
AcDbBlockBegin
  2
SW_NOTE_0_1
 70
     0
 10
0.0
 20
0.0
 30
0.0
  3
SW_NOTE_0_1
  1

  0
MTEXT
  5
D2
330
CF
100
AcDbEntity
  8
0
  6
Continuous
 62
     0
370
     0
100
AcDbMText
 10
0.0
 20
1.9336016097
 30
0.0
 40
1.5
 41
0.0
 71
     1
 72
     1
  1
DEBURR AND
  7
SLDTEXTSTYLE0
 73
     1
 44
1.0
  0
MTEXT
  5
D3
330
CF
100
AcDbEntity
  8
0
  6
Continuous
 62
     0
370
     0
100
AcDbMText
 10
0.0
 20
-0.5663983345
 30
0.0
 40
1.5
 41
0.0
 71
     1
 72
     1
  1
BREAK SHARP
  7
SLDTEXTSTYLE0
 73
     1
 44
1.0
  0
MTEXT
  5
D4
330
CF
100
AcDbEntity
  8
0
  6
Continuous
 62
     0
370
     0
100
AcDbMText
 10
0.0
 20
-3.0663982786
 30
0.0
 40
1.5
 41
0.0
 71
     1
 72
     1
  1
EDGES
  7
SLDTEXTSTYLE0
 73
     1
 44
1.0
  0
ENDBLK
  5
D1
330
CF
100
AcDbEntity
  8
0
100
AcDbBlockEnd
  0
BLOCK
  5
E6
330
E5
100
AcDbEntity
  8
0
100
AcDbBlockBegin
  2
SW_NOTE_0_2
 70
     0
 10
0.0
 20
0.0
 30
0.0
  3
SW_NOTE_0_2
  1

  0
LINE
  5
E8
330
E5
100
AcDbEntity
  8
0
  6
Continuous
 62
     0
370
     0
100
AcDbLine
 10
40.2805648208
 20
0.0
 30
0.0
 11
0.0
 21
0.0
 31
0.0
  0
MTEXT
  5
E9
330
E5
100
AcDbEntity
  8
0
  6
Continuous
 62
     0
370
     0
100
AcDbMText
 10
0.4888768442
 20
6.1256934283
 30
0.0
 40
4.7625
 41
0.0
 71
     1
 72
     1
  1
DARB_10CLC
  7
SLDTEXTSTYLE0
 73
     1
 44
1.0
  0
ENDBLK
  5
E7
330
E5
100
AcDbEntity
  8
0
100
AcDbBlockEnd
  0
BLOCK
  5
101
330
100
100
AcDbEntity
  8
0
100
AcDbBlockBegin
  2
_D
 70
     0
 10
0.0
 20
0.0
 30
0.0
  3
_D
  1

  0
SOLID
  5
103
330
100
100
AcDbEntity
  8
0
  6
Continuous
 62
     7
370
    18
100
AcDbTrace
 10
79.0731005917
 20
256.890591716
 30
0.0
 11
75.7711005917
 21
257.398591716
 31
0.0
 12
75.7711005917
 22
256.382591716
 32
0.0
 13
75.7711005917
 23
256.382591716
 33
0.0
  0
SOLID
  5
104
330
100
100
AcDbEntity
  8
0
  6
Continuous
 62
     7
370
    18
100
AcDbTrace
 10
40.3351005917
 20
256.890591716
 30
0.0
 11
43.6371005917
 21
256.382591716
 31
0.0
 12
43.6371005917
 22
257.398591716
 32
0.0
 13
43.6371005917
 23
257.398591716
 33
0.0
  0
LINE
  5
105
330
100
100
AcDbEntity
  8
0
  6
Continuous
 62
     7
370
     0
100
AcDbLine
 10
79.0731005917
 20
201.390591716
 30
0.0
 11
79.0731005917
 21
257.890591716
 31
0.0
  0
LINE
  5
106
330
100
100
AcDbEntity
  8
0
  6
Continuous
 62
     7
370
     0
100
AcDbLine
 10
40.3351005917
 20
201.390591716
 30
0.0
 11
40.3351005917
 21
257.890591716
 31
0.0
  0
LINE
  5
107
330
100
100
AcDbEntity
  8
0
  6
Continuous
 62
     7
370
     0
100
AcDbLine
 10
79.0731005917
 20
256.890591716
 30
0.0
 11
40.3351005917
 21
256.890591716
 31
0.0
  0
MTEXT
  5
108
330
100
100
AcDbEntity
  8
0
  6
Continuous
 62
     7
370
    18
100
AcDbMText
 10
65.4698556294
 20
261.4023286306
 30
0.0
 40
3.5
 41
0.0
 71
     1
 72
     1
  1
38.74
  7
SLDTEXTSTYLE0
 73
     1
 44
1.0
  0
ENDBLK
  5
102
330
100
100
AcDbEntity
  8
0
100
AcDbBlockEnd
  0
BLOCK
  5
10B
330
10A
100
AcDbEntity
  8
0
100
AcDbBlockBegin
  2
_D_1
 70
     0
 10
0.0
 20
0.0
 30
0.0
  3
_D_1
  1

  0
SOLID
  5
10D
330
10A
100
AcDbEntity
  8
0
  6
Continuous
 62
     7
370
    18
100
AcDbTrace
 10
89.0731005917
 20
246.890591716
 30
0.0
 11
88.5651005917
 21
243.588591716
 31
0.0
 12
89.5811005917
 22
243.588591716
 32
0.0
 13
89.5811005917
 23
243.588591716
 33
0.0
  0
SOLID
  5
10E
330
10A
100
AcDbEntity
  8
0
  6
Continuous
 62
     7
370
    18
100
AcDbTrace
 10
89.0731005917
 20
201.152591716
 30
0.0
 11
89.5811005917
 21
204.454591716
 31
0.0
 12
88.5651005917
 22
204.454591716
 32
0.0
 13
88.5651005917
 23
204.454591716
 33
0.0
  0
LINE
  5
10F
330
10A
100
AcDbEntity
  8
0
  6
Continuous
 62
     7
370
     0
100
AcDbLine
 10
40.5731005917
 20
246.890591716
 30
0.0
 11
90.0731005917
 21
246.890591716
 31
0.0
  0
LINE
  5
110
330
10A
100
AcDbEntity
  8
0
  6
Continuous
 62
     7
370
     0
100
AcDbLine
 10
40.5731005917
 20
201.152591716
 30
0.0
 11
90.0731005917
 21
201.152591716
 31
0.0
  0
LINE
  5
111
330
10A
100
AcDbEntity
  8
0
  6
Continuous
 62
     7
370
     0
100
AcDbLine
 10
89.0731005917
 20
246.890591716
 30
0.0
 11
89.0731005917
 21
201.152591716
 31
0.0
  0
MTEXT
  5
112
330
10A
100
AcDbEntity
  8
0
  6
Continuous
 62
     7
370
    18
100
AcDbMText
 10
84.5613636771
 20
204.4556502187
 30
0.0
 40
3.5
 41
0.0
 71
     1
 72
     1
  1
45.74
  7
SLDTEXTSTYLE0
 11
-7.044195017643634E-15
 21
1.0
 31
0.0
 73
     1
 44
1.0
  0
ENDBLK
  5
10C
330
10A
100
AcDbEntity
  8
0
100
AcDbBlockEnd
  0
BLOCK
  5
116
330
115
100
AcDbEntity
  8
0
100
AcDbBlockBegin
  2
_D_2
 70
     0
 10
0.0
 20
0.0
 30
0.0
  3
_D_2
  1

  0
SOLID
  5
118
330
115
100
AcDbEntity
  8
0
  6
Continuous
 62
     7
370
    18
100
AcDbTrace
 10
76.0731005917
 20
193.960560973
 30
0.0
 11
72.7711005917
 21
194.468560973
 31
0.0
 12
72.7711005917
 22
193.452560973
 32
0.0
 13
72.7711005917
 23
193.452560973
 33
0.0
  0
SOLID
  5
119
330
115
100
AcDbEntity
  8
0
  6
Continuous
 62
     7
370
    18
100
AcDbTrace
 10
79.0731005917
 20
193.960560973
 30
0.0
 11
82.3751005917
 21
193.452560973
 31
0.0
 12
82.3751005917
 22
194.468560973
 32
0.0
 13
82.3751005917
 23
194.468560973
 33
0.0
  0
LINE
  5
11A
330
115
100
AcDbEntity
  8
0
  6
Continuous
 62
     7
370
     0
100
AcDbLine
 10
76.0731005917
 20
197.890591716
 30
0.0
 11
76.0731005917
 21
192.960560973
 31
0.0
  0
LINE
  5
11B
330
115
100
AcDbEntity
  8
0
  6
Continuous
 62
     7
370
     0
100
AcDbLine
 10
79.0731005917
 20
197.890591716
 30
0.0
 11
79.0731005917
 21
192.960560973
 31
0.0
  0
LINE
  5
11C
330
115
100
AcDbEntity
  8
0
  6
Continuous
 62
     7
370
     0
100
AcDbLine
 10
76.0731005917
 20
193.960560973
 30
0.0
 11
69.7231005917
 21
193.960560973
 31
0.0
  0
LINE
  5
11D
330
115
100
AcDbEntity
  8
0
  6
Continuous
 62
     7
370
     0
100
AcDbLine
 10
76.0731005917
 20
193.960560973
 30
0.0
 11
79.0731005917
 21
193.960560973
 31
0.0
  0
LINE
  5
11E
330
115
100
AcDbEntity
  8
0
  6
Continuous
 62
     7
370
     0
100
AcDbLine
 10
79.0731005917
 20
193.960560973
 30
0.0
 11
85.4231005917
 21
193.960560973
 31
0.0
  0
MTEXT
  5
11F
330
115
100
AcDbEntity
  8
0
  6
Continuous
 62
     7
370
    18
100
AcDbMText
 10
74.0122206583
 20
198.4722978875
 30
0.0
 40
3.5
 41
0.0
 71
     1
 72
     1
  1
3.00
  7
SLDTEXTSTYLE0
 73
     1
 44
1.0
  0
ENDBLK
  5
117
330
115
100
AcDbEntity
  8
0
100
AcDbBlockEnd
  0
BLOCK
  5
122
330
121
100
AcDbEntity
  8
0
100
AcDbBlockBegin
  2
_D_3
 70
     0
 10
0.0
 20
0.0
 30
0.0
  3
_D_3
  1

  0
SOLID
  5
124
330
121
100
AcDbEntity
  8
0
  6
Continuous
 62
     7
370
    18
100
AcDbTrace
 10
95.0649468017
 20
200.390591716
 30
0.0
 11
95.5729468017
 21
203.692591716
 31
0.0
 12
94.5569468017
 22
203.692591716
 32
0.0
 13
94.5569468017
 23
203.692591716
 33
0.0
  0
SOLID
  5
125
330
121
100
AcDbEntity
  8
0
  6
Continuous
 62
     7
370
    18
100
AcDbTrace
 10
95.0649468017
 20
198.890591716
 30
0.0
 11
94.5569468017
 21
195.588591716
 31
0.0
 12
95.5729468017
 22
195.588591716
 32
0.0
 13
95.5729468017
 23
195.588591716
 33
0.0
  0
LINE
  5
126
330
121
100
AcDbEntity
  8
0
  6
Continuous
 62
     7
370
     0
100
AcDbLine
 10
80.0731005917
 20
200.390591716
 30
0.0
 11
96.0649468017
 21
200.390591716
 31
0.0
  0
LINE
  5
127
330
121
100
AcDbEntity
  8
0
  6
Continuous
 62
     7
370
     0
100
AcDbLine
 10
80.0731005917
 20
198.890591716
 30
0.0
 11
96.0649468017
 21
198.890591716
 31
0.0
  0
LINE
  5
128
330
121
100
AcDbEntity
  8
0
  6
Continuous
 62
     7
370
     0
100
AcDbLine
 10
95.0649468017
 20
200.390591716
 30
0.0
 11
95.0649468017
 21
206.740591716
 31
0.0
  0
LINE
  5
129
330
121
100
AcDbEntity
  8
0
  6
Continuous
 62
     7
370
     0
100
AcDbLine
 10
95.0649468017
 20
200.390591716
 30
0.0
 11
95.0649468017
 21
198.890591716
 31
0.0
  0
LINE
  5
12A
330
121
100
AcDbEntity
  8
0
  6
Continuous
 62
     7
370
     0
100
AcDbLine
 10
95.0649468017
 20
198.890591716
 30
0.0
 11
95.0649468017
 21
192.540591716
 31
0.0
  0
MTEXT
  5
12B
330
121
100
AcDbEntity
  8
0
  6
Continuous
 62
     7
370
    18
100
AcDbMText
 10
90.5532098872
 20
194.5665474913
 30
0.0
 40
3.5
 41
0.0
 71
     1
 72
     1
  1
1.50
  7
SLDTEXTSTYLE0
 11
-2.603302919143008E-15
 21
1.0
 31
0.0
 73
     1
 44
1.0
  0
ENDBLK
  5
123
330
121
100
AcDbEntity
  8
0
100
AcDbBlockEnd
  0
BLOCK
  5
12F
330
12E
100
AcDbEntity
  8
0
100
AcDbBlockBegin
  2
_D_4
 70
     0
 10
0.0
 20
0.0
 30
0.0
  3
_D_4
  1

  0
SOLID
  5
131
330
12E
100
AcDbEntity
  8
0
  6
Continuous
 62
     7
370
    18
100
AcDbTrace
 10
38.7672563786
 20
199.5220983785
 30
0.0
 11
36.1123880289
 21
197.494059413
 31
0.0
 12
36.844740474
 22
196.7898464508
 32
0.0
 13
36.844740474
 23
196.7898464508
 33
0.0
  0
LINE
  5
132
330
12E
100
AcDbEntity
  8
0
  6
Continuous
 62
     7
370
     0
100
AcDbLine
 10
38.7672563786
 20
199.5220983785
 30
0.0
 11
30.9939640684
 21
191.4381948786
 31
0.0
  0
LINE
  5
133
330
12E
100
AcDbEntity
  8
0
  6
Continuous
 62
     7
370
     0
100
AcDbLine
 10
38.7672563786
 20
199.5220983785
 30
0.0
 11
40.3351005917
 21
201.152591716
 31
0.0
  0
MTEXT
  5
134
330
12E
100
AcDbEntity
  8
0
  6
Continuous
 62
     7
370
    18
100
AcDbMText
 10
27.8531989446
 20
194.4582810765
 30
0.0
 40
3.5
 41
0.0
 71
     1
 72
     1
  1
R2.26
  7
SLDTEXTSTYLE0
 11
0.6931229943013802
 21
0.7208193357358615
 31
0.0
 73
     1
 44
1.0
  0
ENDBLK
  5
130
330
12E
100
AcDbEntity
  8
0
100
AcDbBlockEnd
  0
BLOCK
  5
137
330
136
100
AcDbEntity
  8
0
100
AcDbBlockBegin
  2
_D_5
 70
     0
 10
0.0
 20
0.0
 30
0.0
  3
_D_5
  1

  0
SOLID
  5
139
330
136
100
AcDbEntity
  8
0
  6
Continuous
 62
     7
370
    18
100
AcDbTrace
 10
22.886041669
 20
226.890591716
 30
0.0
 11
22.378041669
 21
223.588591716
 31
0.0
 12
23.394041669
 22
223.588591716
 32
0.0
 13
23.394041669
 23
223.588591716
 33
0.0
  0
SOLID
  5
13A
330
136
100
AcDbEntity
  8
0
  6
Continuous
 62
     7
370
    18
100
AcDbTrace
 10
22.886041669
 20
246.890591716
 30
0.0
 11
23.394041669
 21
250.192591716
 31
0.0
 12
22.378041669
 22
250.192591716
 32
0.0
 13
22.378041669
 23
250.192591716
 33
0.0
  0
LINE
  5
13B
330
136
100
AcDbEntity
  8
0
  6
Continuous
 62
     7
370
     0
100
AcDbLine
 10
37.0731005917
 20
226.890591716
 30
0.0
 11
21.886041669
 21
226.890591716
 31
0.0
  0
LINE
  5
13C
330
136
100
AcDbEntity
  8
0
  6
Continuous
 62
     7
370
     0
100
AcDbLine
 10
37.0731005917
 20
246.890591716
 30
0.0
 11
21.886041669
 21
246.890591716
 31
0.0
  0
LINE
  5
13D
330
136
100
AcDbEntity
  8
0
  6
Continuous
 62
     7
370
     0
100
AcDbLine
 10
22.886041669
 20
226.890591716
 30
0.0
 11
22.886041669
 21
220.540591716
 31
0.0
  0
LINE
  5
13E
330
136
100
AcDbEntity
  8
0
  6
Continuous
 62
     7
370
     0
100
AcDbLine
 10
22.886041669
 20
226.890591716
 30
0.0
 11
22.886041669
 21
246.890591716
 31
0.0
  0
LINE
  5
13F
330
136
100
AcDbEntity
  8
0
  6
Continuous
 62
     7
370
     0
100
AcDbLine
 10
22.886041669
 20
246.890591716
 30
0.0
 11
22.886041669
 21
253.240591716
 31
0.0
  0
MTEXT
  5
140
330
136
100
AcDbEntity
  8
0
  6
Continuous
 62
     7
370
    18
100
AcDbMText
 10
18.3743047544
 20
238.463014721
 30
0.0
 40
3.5
 41
0.0
 71
     1
 72
     1
  1
20.00
  7
SLDTEXTSTYLE0
 11
6.123233995736766E-17
 21
1.0
 31
0.0
 73
     1
 44
1.0
  0
ENDBLK
  5
138
330
136
100
AcDbEntity
  8
0
100
AcDbBlockEnd
  0
BLOCK
  5
15D
330
15C
100
AcDbEntity
  8
0
100
AcDbBlockBegin
  2
_D_6
 70
     0
 10
0.0
 20
0.0
 30
0.0
  3
_D_6
  1

  0
SOLID
  5
15F
330
15C
100
AcDbEntity
  8
0
  6
Continuous
 62
     7
370
    18
100
AcDbTrace
 10
192.7722941152
 20
219.890591716
 30
0.0
 11
192.2642941152
 21
216.588591716
 31
0.0
 12
193.2802941152
 22
216.588591716
 32
0.0
 13
193.2802941152
 23
216.588591716
 33
0.0
  0
SOLID
  5
160
330
15C
100
AcDbEntity
  8
0
  6
Continuous
 62
     7
370
    18
100
AcDbTrace
 10
192.7722941152
 20
233.890591716
 30
0.0
 11
193.2802941152
 21
237.192591716
 31
0.0
 12
192.2642941152
 22
237.192591716
 32
0.0
 13
192.2642941152
 23
237.192591716
 33
0.0
  0
LINE
  5
161
330
15C
100
AcDbEntity
  8
0
  6
Continuous
 62
     7
370
     0
100
AcDbLine
 10
166.8140946746
 20
219.890591716
 30
0.0
 11
193.7722941152
 21
219.890591716
 31
0.0
  0
LINE
  5
162
330
15C
100
AcDbEntity
  8
0
  6
Continuous
 62
     7
370
     0
100
AcDbLine
 10
166.8140946746
 20
233.890591716
 30
0.0
 11
193.7722941152
 21
233.890591716
 31
0.0
  0
LINE
  5
163
330
15C
100
AcDbEntity
  8
0
  6
Continuous
 62
     7
370
     0
100
AcDbLine
 10
192.7722941152
 20
219.890591716
 30
0.0
 11
192.7722941152
 21
213.540591716
 31
0.0
  0
LINE
  5
164
330
15C
100
AcDbEntity
  8
0
  6
Continuous
 62
     7
370
     0
100
AcDbLine
 10
192.7722941152
 20
219.890591716
 30
0.0
 11
192.7722941152
 21
233.890591716
 31
0.0
  0
LINE
  5
165
330
15C
100
AcDbEntity
  8
0
  6
Continuous
 62
     7
370
     0
100
AcDbLine
 10
192.7722941152
 20
233.890591716
 30
0.0
 11
192.7722941152
 21
240.240591716
 31
0.0
  0
MTEXT
  5
166
330
15C
100
AcDbEntity
  8
0
  6
Continuous
 62
     7
370
    18
100
AcDbMText
 10
188.2605572006
 20
223.0447454384
 30
0.0
 40
3.5
 41
0.0
 71
     1
 72
     1
  1
14.00
  7
SLDTEXTSTYLE0
 11
2.832769448823990E-16
 21
1.0
 31
0.0
 73
     1
 44
1.0
  0
ENDBLK
  5
15E
330
15C
100
AcDbEntity
  8
0
100
AcDbBlockEnd
  0
BLOCK
  5
16A
330
169
100
AcDbEntity
  8
0
100
AcDbBlockBegin
  2
_D_7
 70
     0
 10
0.0
 20
0.0
 30
0.0
  3
_D_7
  1

  0
SOLID
  5
16C
330
169
100
AcDbEntity
  8
0
  6
Continuous
 62
     7
370
    18
100
AcDbTrace
 10
160.9964184677
 20
240.1691095869
 30
0.0
 11
162.3417292744
 21
243.2271165903
 31
0.0
 12
161.3603486349
 22
243.4900767402
 32
0.0
 13
161.3603486349
 23
243.4900767402
 33
0.0
  0
LINE
  5
16D
330
169
100
AcDbEntity
  8
0
  6
Continuous
 62
     7
370
     0
100
AcDbLine
 10
160.9964184677
 20
240.1691095869
 30
0.0
 11
166.7425924443
 21
261.6141228167
 31
0.0
  0
LINE
  5
16E
330
169
100
AcDbEntity
  8
0
  6
Continuous
 62
     7
370
     0
100
AcDbLine
 10
160.9964184677
 20
240.1691095869
 30
0.0
 11
159.3140946746
 21
233.890591716
 31
0.0
  0
MTEXT
  5
16F
330
169
100
AcDbEntity
  8
0
  6
Continuous
 62
     7
370
    18
100
AcDbMText
 10
159.3279057165
 20
251.2961923759
 30
0.0
 40
3.5
 41
0.0
 71
     1
 72
     1
  1
R6.50
  7
SLDTEXTSTYLE0
 11
0.2588190451025188
 21
0.9659258262890688
 31
0.0
 73
     1
 44
1.0
  0
ENDBLK
  5
16B
330
169
100
AcDbEntity
  8
0
100
AcDbBlockEnd
  0
BLOCK
  5
172
330
171
100
AcDbEntity
  8
0
100
AcDbBlockBegin
  2
_D_8
 70
     0
 10
0.0
 20
0.0
 30
0.0
  3
_D_8
  1

  0
SOLID
  5
174
330
171
100
AcDbEntity
  8
0
  6
Continuous
 62
     7
370
    18
100
AcDbTrace
 10
177.1274480482
 20
235.9836902849
 30
0.0
 11
180.2993973939
 21
237.032501683
 31
0.0
 12
179.8374679866
 22
237.9374200344
 32
0.0
 13
179.8374679866
 23
237.9374200344
 33
0.0
  0
LINE
  5
175
330
171
100
AcDbEntity
  8
0
  6
Continuous
 62
     7
370
     0
100
AcDbLine
 10
177.1274480482
 20
235.9836902849
 30
0.0
 11
203.9078680338
 21
249.6541650989
 31
0.0
  0
LINE
  5
176
330
171
100
AcDbEntity
  8
0
  6
Continuous
 62
     7
370
     0
100
AcDbLine
 10
177.1274480482
 20
235.9836902849
 30
0.0
 11
159.3140946746
 21
226.890591716
 31
0.0
  0
MTEXT
  5
177
330
171
100
AcDbEntity
  8
0
  6
Continuous
 62
     7
370
    18
100
AcDbMText
 10
188.9698990652
 20
247.0879044414
 30
0.0
 40
3.5
 41
0.0
 71
     1
 72
     1
  1
R20.00
  7
SLDTEXTSTYLE0
 11
0.8906676686835515
 21
0.4546549284477265
 31
0.0
 73
     1
 44
1.0
  0
ENDBLK
  5
173
330
171
100
AcDbEntity
  8
0
100
AcDbBlockEnd
  0
BLOCK
  5
17B
330
17A
100
AcDbEntity
  8
0
100
AcDbBlockBegin
  2
_D_9
 70
     0
 10
0.0
 20
0.0
 30
0.0
  3
_D_9
  1

  0
SOLID
  5
17D
330
17A
100
AcDbEntity
  8
0
  6
Continuous
 62
     7
370
    18
100
AcDbTrace
 10
176.3140946746
 20
187.5502266342
 30
0.0
 11
173.0120946746
 21
188.0582266342
 31
0.0
 12
173.0120946746
 22
187.0422266342
 32
0.0
 13
173.0120946746
 23
187.0422266342
 33
0.0
  0
SOLID
  5
17E
330
17A
100
AcDbEntity
  8
0
  6
Continuous
 62
     7
370
    18
100
AcDbTrace
 10
142.3140946746
 20
187.5502266342
 30
0.0
 11
145.6160946746
 21
187.0422266342
 31
0.0
 12
145.6160946746
 22
188.0582266342
 32
0.0
 13
145.6160946746
 23
188.0582266342
 33
0.0
  0
LINE
  5
17F
330
17A
100
AcDbEntity
  8
0
  6
Continuous
 62
     7
370
     0
100
AcDbLine
 10
176.3140946746
 20
197.890591716
 30
0.0
 11
176.3140946746
 21
186.5502266342
 31
0.0
  0
LINE
  5
180
330
17A
100
AcDbEntity
  8
0
  6
Continuous
 62
     7
370
     0
100
AcDbLine
 10
142.3140946746
 20
197.890591716
 30
0.0
 11
142.3140946746
 21
186.5502266342
 31
0.0
  0
LINE
  5
181
330
17A
100
AcDbEntity
  8
0
  6
Continuous
 62
     7
370
     0
100
AcDbLine
 10
176.3140946746
 20
187.5502266342
 30
0.0
 11
142.3140946746
 21
187.5502266342
 31
0.0
  0
MTEXT
  5
182
330
17A
100
AcDbEntity
  8
0
  6
Continuous
 62
     7
370
    18
100
AcDbMText
 10
164.2455277893
 20
192.0619635488
 30
0.0
 40
3.5
 41
0.0
 71
     1
 72
     1
  1
34.00
  7
SLDTEXTSTYLE0
 73
     1
 44
1.0
  0
ENDBLK
  5
17C
330
17A
100
AcDbEntity
  8
0
100
AcDbBlockEnd
  0
BLOCK
  5
185
330
184
100
AcDbEntity
  8
0
100
AcDbBlockBegin
  2
_D_10
 70
     0
 10
0.0
 20
0.0
 30
0.0
  3
_D_10
  1

  0
SOLID
  5
187
330
184
100
AcDbEntity
  8
0
  6
Continuous
 62
     7
370
    18
100
AcDbTrace
 10
139.3140946746
 20
181.2521418258
 30
0.0
 11
142.6160946746
 21
180.7441418258
 31
0.0
 12
142.6160946746
 22
181.7601418258
 32
0.0
 13
142.6160946746
 23
181.7601418258
 33
0.0
  0
SOLID
  5
188
330
184
100
AcDbEntity
  8
0
  6
Continuous
 62
     7
370
    18
100
AcDbTrace
 10
179.3140946746
 20
181.2521418258
 30
0.0
 11
176.0120946746
 21
181.7601418258
 31
0.0
 12
176.0120946746
 22
180.7441418258
 32
0.0
 13
176.0120946746
 23
180.7441418258
 33
0.0
  0
LINE
  5
189
330
184
100
AcDbEntity
  8
0
  6
Continuous
 62
     7
370
     0
100
AcDbLine
 10
139.3140946746
 20
199.390591716
 30
0.0
 11
139.3140946746
 21
180.2521418258
 31
0.0
  0
LINE
  5
18A
330
184
100
AcDbEntity
  8
0
  6
Continuous
 62
     7
370
     0
100
AcDbLine
 10
179.3140946746
 20
199.390591716
 30
0.0
 11
179.3140946746
 21
180.2521418258
 31
0.0
  0
LINE
  5
18B
330
184
100
AcDbEntity
  8
0
  6
Continuous
 62
     7
370
     0
100
AcDbLine
 10
139.3140946746
 20
181.2521418258
 30
0.0
 11
179.3140946746
 21
181.2521418258
 31
0.0
  0
MTEXT
  5
18C
330
184
100
AcDbEntity
  8
0
  6
Continuous
 62
     7
370
    18
100
AcDbMText
 10
165.9250170716
 20
185.7638787404
 30
0.0
 40
3.5
 41
0.0
 71
     1
 72
     1
  1
40.00
  7
SLDTEXTSTYLE0
 73
     1
 44
1.0
  0
ENDBLK
  5
186
330
184
100
AcDbEntity
  8
0
100
AcDbBlockEnd
  0
BLOCK
  5
190
330
18F
100
AcDbEntity
  8
0
100
AcDbBlockBegin
  2
_D_11
 70
     0
 10
0.0
 20
0.0
 30
0.0
  3
_D_11
  1

  0
SOLID
  5
192
330
18F
100
AcDbEntity
  8
0
  6
Continuous
 62
     7
370
    18
100
AcDbTrace
 10
192.7722941152
 20
200.390591716
 30
0.0
 11
192.2642941152
 21
197.088591716
 31
0.0
 12
193.2802941152
 22
197.088591716
 32
0.0
 13
193.2802941152
 23
197.088591716
 33
0.0
  0
SOLID
  5
193
330
18F
100
AcDbEntity
  8
0
  6
Continuous
 62
     7
370
    18
100
AcDbTrace
 10
192.7722941152
 20
201.152591716
 30
0.0
 11
193.2802941152
 21
204.454591716
 31
0.0
 12
192.2642941152
 22
204.454591716
 32
0.0
 13
192.2642941152
 23
204.454591716
 33
0.0
  0
LINE
  5
194
330
18F
100
AcDbEntity
  8
0
  6
Continuous
 62
     7
370
     0
100
AcDbLine
 10
177.3140946746
 20
200.390591716
 30
0.0
 11
193.7722941152
 21
200.390591716
 31
0.0
  0
LINE
  5
195
330
18F
100
AcDbEntity
  8
0
  6
Continuous
 62
     7
370
     0
100
AcDbLine
 10
180.3140946746
 20
201.152591716
 30
0.0
 11
193.7722941152
 21
201.152591716
 31
0.0
  0
LINE
  5
196
330
18F
100
AcDbEntity
  8
0
  6
Continuous
 62
     7
370
     0
100
AcDbLine
 10
192.7722941152
 20
200.390591716
 30
0.0
 11
192.7722941152
 21
194.040591716
 31
0.0
  0
LINE
  5
197
330
18F
100
AcDbEntity
  8
0
  6
Continuous
 62
     7
370
     0
100
AcDbLine
 10
192.7722941152
 20
200.390591716
 30
0.0
 11
192.7722941152
 21
201.152591716
 31
0.0
  0
LINE
  5
198
330
18F
100
AcDbEntity
  8
0
  6
Continuous
 62
     7
370
     0
100
AcDbLine
 10
192.7722941152
 20
201.152591716
 30
0.0
 11
192.7722941152
 21
207.502591716
 31
0.0
  0
MTEXT
  5
199
330
18F
100
AcDbEntity
  8
0
  6
Continuous
 62
     7
370
    18
100
AcDbMText
 10
188.2605572006
 20
196.0405740412
 30
0.0
 40
3.5
 41
0.0
 71
     1
 72
     1
  1
0.76
  7
SLDTEXTSTYLE0
 11
6.123233995736766E-17
 21
1.0
 31
0.0
 73
     1
 44
1.0
  0
ENDBLK
  5
191
330
18F
100
AcDbEntity
  8
0
100
AcDbBlockEnd
  0
BLOCK
  5
19C
330
19B
100
AcDbEntity
  8
0
100
AcDbBlockBegin
  2
_D_12
 70
     0
 10
0.0
 20
0.0
 30
0.0
  3
_D_12
  1

  0
SOLID
  5
19E
330
19B
100
AcDbEntity
  8
0
  6
Continuous
 62
     7
370
    18
100
AcDbTrace
 10
139.3140946746
 20
193.0085668015
 30
0.0
 11
136.0120946746
 21
193.5165668015
 31
0.0
 12
136.0120946746
 22
192.5005668015
 32
0.0
 13
136.0120946746
 23
192.5005668015
 33
0.0
  0
SOLID
  5
19F
330
19B
100
AcDbEntity
  8
0
  6
Continuous
 62
     7
370
    18
100
AcDbTrace
 10
142.3140946746
 20
193.0085668015
 30
0.0
 11
145.6160946746
 21
192.5005668015
 31
0.0
 12
145.6160946746
 22
193.5165668015
 32
0.0
 13
145.6160946746
 23
193.5165668015
 33
0.0
  0
LINE
  5
1A0
330
19B
100
AcDbEntity
  8
0
  6
Continuous
 62
     7
370
     0
100
AcDbLine
 10
139.3140946746
 20
199.390591716
 30
0.0
 11
139.3140946746
 21
192.0085668015
 31
0.0
  0
LINE
  5
1A1
330
19B
100
AcDbEntity
  8
0
  6
Continuous
 62
     7
370
     0
100
AcDbLine
 10
142.3140946746
 20
199.390591716
 30
0.0
 11
142.3140946746
 21
192.0085668015
 31
0.0
  0
LINE
  5
1A2
330
19B
100
AcDbEntity
  8
0
  6
Continuous
 62
     7
370
     0
100
AcDbLine
 10
139.3140946746
 20
193.0085668015
 30
0.0
 11
132.9640946746
 21
193.0085668015
 31
0.0
  0
LINE
  5
1A3
330
19B
100
AcDbEntity
  8
0
  6
Continuous
 62
     7
370
     0
100
AcDbLine
 10
139.3140946746
 20
193.0085668015
 30
0.0
 11
142.3140946746
 21
193.0085668015
 31
0.0
  0
LINE
  5
1A4
330
19B
100
AcDbEntity
  8
0
  6
Continuous
 62
     7
370
     0
100
AcDbLine
 10
142.3140946746
 20
193.0085668015
 30
0.0
 11
148.6640946746
 21
193.0085668015
 31
0.0
  0
MTEXT
  5
1A5
330
19B
100
AcDbEntity
  8
0
  6
Continuous
 62
     7
370
    18
100
AcDbMText
 10
137.0922337845
 20
197.5203037161
 30
0.0
 40
3.5
 41
0.0
 71
     1
 72
     1
  1
3.00
  7
SLDTEXTSTYLE0
 73
     1
 44
1.0
  0
ENDBLK
  5
19D
330
19B
100
AcDbEntity
  8
0
100
AcDbBlockEnd
  0
BLOCK
  5
1A8
330
1A7
100
AcDbEntity
  8
0
100
AcDbBlockBegin
  2
_D_13
 70
     0
 10
0.0
 20
0.0
 30
0.0
  3
_D_13
  1

  0
SOLID
  5
1AA
330
1A7
100
AcDbEntity
  8
0
  6
Continuous
 62
     7
370
    18
100
AcDbTrace
 10
152.8140946746
 20
220.8908803886
 30
0.0
 11
149.5120946746
 21
221.3988803886
 31
0.0
 12
149.5120946746
 22
220.3828803886
 32
0.0
 13
149.5120946746
 23
220.3828803886
 33
0.0
  0
SOLID
  5
1AB
330
1A7
100
AcDbEntity
  8
0
  6
Continuous
 62
     7
370
    18
100
AcDbTrace
 10
143.8140946746
 20
220.8908803886
 30
0.0
 11
147.1160946746
 21
220.3828803886
 31
0.0
 12
147.1160946746
 22
221.3988803886
 32
0.0
 13
147.1160946746
 23
221.3988803886
 33
0.0
  0
LINE
  5
1AC
330
1A7
100
AcDbEntity
  8
0
  6
Continuous
 62
     7
370
     0
100
AcDbLine
 10
143.8140946746
 20
225.890591716
 30
0.0
 11
143.8140946746
 21
219.8908803886
 31
0.0
  0
LINE
  5
1AD
330
1A7
100
AcDbEntity
  8
0
  6
Continuous
 62
     7
370
     0
100
AcDbLine
 10
152.8140946746
 20
220.8908803886
 30
0.0
 11
143.8140946746
 21
220.8908803886
 31
0.0
  0
LINE
  5
1AE
330
1A7
100
AcDbEntity
  8
0
  6
Continuous
 62
     7
370
     0
100
AcDbLine
 10
143.8140946746
 20
220.8908803886
 30
0.0
 11
133.0522435913
 21
220.8908803886
 31
0.0
  0
MTEXT
  5
1AF
330
1A7
100
AcDbEntity
  8
0
  6
Continuous
 62
     7
370
    18
100
AcDbMText
 10
133.0522435913
 20
225.4026173031
 30
0.0
 40
3.5
 41
0.0
 71
     1
 72
     1
  1
9.00
  7
SLDTEXTSTYLE0
 73
     1
 44
1.0
  0
ENDBLK
  5
1A9
330
1A7
100
AcDbEntity
  8
0
100
AcDbBlockEnd
  0
BLOCK
  5
1B3
330
1B2
100
AcDbEntity
  8
0
100
AcDbBlockBegin
  2
_D_14
 70
     0
 10
0.0
 20
0.0
 30
0.0
  3
_D_14
  1

  0
SOLID
  5
1B5
330
1B2
100
AcDbEntity
  8
0
  6
Continuous
 62
     7
370
    18
100
AcDbTrace
 10
121.530466263
 20
213.4671979573
 30
0.0
 11
121.022466263
 21
210.1651979573
 31
0.0
 12
122.038466263
 22
210.1651979573
 32
0.0
 13
122.038466263
 23
210.1651979573
 33
0.0
  0
SOLID
  5
1B6
330
1B2
100
AcDbEntity
  8
0
  6
Continuous
 62
     7
370
    18
100
AcDbTrace
 10
121.530466263
 20
226.890591716
 30
0.0
 11
122.038466263
 21
230.192591716
 31
0.0
 12
121.022466263
 22
230.192591716
 32
0.0
 13
121.022466263
 23
230.192591716
 33
0.0
  0
LINE
  5
1B7
330
1B2
100
AcDbEntity
  8
0
  6
Continuous
 62
     7
370
     0
100
AcDbLine
 10
150.5640946746
 20
213.4671979573
 30
0.0
 11
120.530466263
 21
213.4671979573
 31
0.0
  0
LINE
  5
1B8
330
1B2
100
AcDbEntity
  8
0
  6
Continuous
 62
     7
370
     0
100
AcDbLine
 10
142.8140946746
 20
226.890591716
 30
0.0
 11
120.530466263
 21
226.890591716
 31
0.0
  0
LINE
  5
1B9
330
1B2
100
AcDbEntity
  8
0
  6
Continuous
 62
     7
370
     0
100
AcDbLine
 10
121.530466263
 20
213.4671979573
 30
0.0
 11
121.530466263
 21
207.1171979573
 31
0.0
  0
LINE
  5
1BA
330
1B2
100
AcDbEntity
  8
0
  6
Continuous
 62
     7
370
     0
100
AcDbLine
 10
121.530466263
 20
213.4671979573
 30
0.0
 11
121.530466263
 21
226.890591716
 31
0.0
  0
LINE
  5
1BB
330
1B2
100
AcDbEntity
  8
0
  6
Continuous
 62
     7
370
     0
100
AcDbLine
 10
121.530466263
 20
226.890591716
 30
0.0
 11
121.530466263
 21
233.240591716
 31
0.0
  0
MTEXT
  5
1BC
330
1B2
100
AcDbEntity
  8
0
  6
Continuous
 62
     7
370
    18
100
AcDbMText
 10
117.0187293485
 20
213.4656154593
 30
0.0
 40
3.5
 41
0.0
 71
     1
 72
     1
  1
13.42
  7
SLDTEXTSTYLE0
 11
6.123233995736766E-17
 21
1.0
 31
0.0
 73
     1
 44
1.0
  0
ENDBLK
  5
1B4
330
1B2
100
AcDbEntity
  8
0
100
AcDbBlockEnd
  0
BLOCK
  5
1BF
330
1BE
100
AcDbEntity
  8
0
100
AcDbBlockBegin
  2
_D_15
 70
     0
 10
0.0
 20
0.0
 30
0.0
  3
_D_15
  1

  0
ARC
  5
1C1
330
1BE
100
AcDbEntity
  8
0
  6
Continuous
 62
     7
370
    18
100
AcDbCircle
 10
159.3140946746
 20
226.890591716
 30
0.0
 40
15.57241150239752
100
AcDbArc
 50
120.6602492184
 51
131.2292804091
  0
SOLID
  5
1C2
330
1BE
100
AcDbEntity
  8
0
  6
Continuous
 62
     7
370
    18
100
AcDbTrace
 10
150.5679049725
 20
239.6872383742
 30
0.0
 11
149.1240842051
 21
242.6999862215
 31
0.0
 12
148.2852846564
 22
242.1266875933
 32
0.0
 13
148.2852846564
 23
242.1266875933
 33
0.0
  0
LINE
  5
1C3
330
1BE
100
AcDbEntity
  8
0
  6
Continuous
 62
     7
370
     0
100
AcDbLine
 10
150.5679049725
 20
239.6872383742
 30
0.0
 11
138.7078186777
 21
257.0398614957
 31
0.0
  0
LINE
  5
1C4
330
1BE
100
AcDbEntity
  8
0
  6
Continuous
 62
     7
370
     0
100
AcDbLine
 10
150.5679049725
 20
239.6872383742
 30
0.0
 11
159.3140946746
 21
226.890591716
 31
0.0
  0
MTEXT
  5
1C5
330
1BE
100
AcDbEntity
  8
0
  6
Continuous
 62
     7
370
    18
100
AcDbMText
 10
142.4225011597
 20
259.5787545775
 30
0.0
 40
3.5
 41
0.0
 71
     1
 72
     1
  1
R15.50
  7
SLDTEXTSTYLE0
 11
0.5642703033615425
 21
-0.8255901069806207
 31
0.0
 73
     1
 44
1.0
  0
ENDBLK
  5
1C0
330
1BE
100
AcDbEntity
  8
0
100
AcDbBlockEnd
  0
BLOCK
  5
1C7
330
1C6
100
AcDbEntity
  8
0
100
AcDbBlockBegin
  2
SW_CENTERMARKSYMBOL_0
 70
     0
 10
0.0
 20
0.0
 30
0.0
  3
SW_CENTERMARKSYMBOL_0
  1

  0
ARC
  5
1C9
330
1C6
100
AcDbEntity
  8
0
  6
Continuous
 62
     0
370
     0
100
AcDbCircle
 10
-7.75
 20
-13.4233937587
 30
0.0
 40
15.50000000000001
100
AcDbArc
 50
60.0
 51
69.2412547602
  0
ARC
  5
1CA
330
1C6
100
AcDbEntity
  8
0
  6
Continuous
 62
     0
370
     0
100
AcDbCircle
 10
-7.75
 20
-13.4233937587
 30
0.0
 40
15.49999999999998
100
AcDbArc
 50
50.7587452398
 51
60.0
  0
ARC
  5
1CB
330
1C6
100
AcDbEntity
  8
0
  6
Continuous
 62
     0
370
     0
100
AcDbCircle
 10
-7.75
 20
-13.4233937587
 30
0.0
 40
15.49999999999996
100
AcDbArc
 50
0.0
 51
9.2412547602
  0
ARC
  5
1CC
330
1C6
100
AcDbEntity
  8
0
  6
Continuous
 62
     0
370
     0
100
AcDbCircle
 10
-7.75
 20
-13.4233937587
 30
0.0
 40
15.49999999999996
100
AcDbArc
 50
350.7587452398
 51
0.0
  0
ARC
  5
1CD
330
1C6
100
AcDbEntity
  8
0
  6
Continuous
 62
     0
370
     0
100
AcDbCircle
 10
-7.75
 20
-13.4233937587
 30
0.0
 40
15.50000000000007
100
AcDbArc
 50
120.0
 51
129.2412547602
  0
ARC
  5
1CE
330
1C6
100
AcDbEntity
  8
0
  6
Continuous
 62
     0
370
     0
100
AcDbCircle
 10
-7.75
 20
-13.4233937587
 30
0.0
 40
15.50000000000007
100
AcDbArc
 50
110.7587452398
 51
120.0
  0
ARC
  5
1CF
330
1C6
100
AcDbEntity
  8
0
  6
Continuous
 62
     0
370
     0
100
AcDbCircle
 10
-7.75
 20
-13.4233937587
 30
0.0
 40
15.50000000000013
100
AcDbArc
 50
180.0
 51
189.2412547602
  0
ARC
  5
1D0
330
1C6
100
AcDbEntity
  8
0
  6
Continuous
 62
     0
370
     0
100
AcDbCircle
 10
-7.75
 20
-13.4233937587
 30
0.0
 40
15.50000000000012
100
AcDbArc
 50
170.7587452398
 51
180.0
  0
ARC
  5
1D1
330
1C6
100
AcDbEntity
  8
0
  6
Continuous
 62
     0
370
     0
100
AcDbCircle
 10
-7.75
 20
-13.4233937587
 30
0.0
 40
15.50000000000009
100
AcDbArc
 50
240.0
 51
249.2412547602
  0
ARC
  5
1D2
330
1C6
100
AcDbEntity
  8
0
  6
Continuous
 62
     0
370
     0
100
AcDbCircle
 10
-7.75
 20
-13.4233937587
 30
0.0
 40
15.50000000000009
100
AcDbArc
 50
230.7587452398
 51
240.0
  0
ARC
  5
1D3
330
1C6
100
AcDbEntity
  8
0
  6
Continuous
 62
     0
370
     0
100
AcDbCircle
 10
-7.75
 20
-13.4233937587
 30
0.0
 40
15.5
100
AcDbArc
 50
300.0
 51
309.2412547602
  0
ARC
  5
1D4
330
1C6
100
AcDbEntity
  8
0
  6
Continuous
 62
     0
370
     0
100
AcDbCircle
 10
-7.75
 20
-13.4233937587
 30
0.0
 40
15.5
100
AcDbArc
 50
290.7587452398
 51
300.0
  0
ARC
  5
1D5
330
1C6
100
AcDbEntity
  8
0
  6
CENTERX2
 62
     0
370
     0
100
AcDbCircle
 10
-7.75
 20
-13.4233937587
 30
0.0
 40
15.50000000000007
100
AcDbArc
 50
78.4825095203
 51
101.5174904797
  0
ARC
  5
1D6
330
1C6
100
AcDbEntity
  8
0
  6
CENTERX2
 62
     0
370
     0
100
AcDbCircle
 10
-7.75
 20
-13.4233937587
 30
0.0
 40
15.50000000000011
100
AcDbArc
 50
138.4825095203
 51
161.5174904797
  0
ARC
  5
1D7
330
1C6
100
AcDbEntity
  8
0
  6
CENTERX2
 62
     0
370
     0
100
AcDbCircle
 10
-7.75
 20
-13.4233937587
 30
0.0
 40
15.50000000000012
100
AcDbArc
 50
198.4825095203
 51
221.5174904797
  0
ARC
  5
1D8
330
1C6
100
AcDbEntity
  8
0
  6
CENTERX2
 62
     0
370
     0
100
AcDbCircle
 10
-7.75
 20
-13.4233937587
 30
0.0
 40
15.50000000000008
100
AcDbArc
 50
258.4825095203
 51
281.5174904797
  0
ARC
  5
1D9
330
1C6
100
AcDbEntity
  8
0
  6
CENTERX2
 62
     0
370
     0
100
AcDbCircle
 10
-7.75
 20
-13.4233937587
 30
0.0
 40
15.49999999999998
100
AcDbArc
 50
318.4825095204
 51
341.5174904797
  0
ARC
  5
1DA
330
1C6
100
AcDbEntity
  8
0
  6
CENTERX2
 62
     0
370
     0
100
AcDbCircle
 10
-7.75
 20
-13.4233937587
 30
0.0
 40
15.49999999999998
100
AcDbArc
 50
18.4825095203
 51
41.5174904797
  0
LINE
  5
1DB
330
1C6
100
AcDbEntity
  8
0
  6
Continuous
 62
     0
370
    18
100
AcDbLine
 10
0.0
 20
0.0
 30
0.0
 11
1.25
 21
2.1650635095
 31
0.0
  0
LINE
  5
1DC
330
1C6
100
AcDbEntity
  8
0
  6
Continuous
 62
     0
370
    18
100
AcDbLine
 10
0.0
 20
0.0
 30
0.0
 11
-1.25
 21
-2.1650635095
 31
0.0
  0
LINE
  5
1DD
330
1C6
100
AcDbEntity
  8
0
  6
Continuous
 62
     0
370
    18
100
AcDbLine
 10
1.25
 20
2.1650635095
 30
0.0
 11
2.05
 21
3.5507041555
 31
0.0
  0
LINE
  5
1DE
330
1C6
100
AcDbEntity
  8
0
  6
Continuous
 62
     0
370
    18
100
AcDbLine
 10
-1.25
 20
-2.1650635095
 30
0.0
 11
-2.05
 21
-3.5507041555
 31
0.0
  0
LINE
  5
1DF
330
1C6
100
AcDbEntity
  8
0
  6
Continuous
 62
     0
370
    18
100
AcDbLine
 10
-7.75
 20
-13.4233937587
 30
0.0
 11
-7.75
 21
-10.9233937587
 31
0.0
  0
LINE
  5
1E0
330
1C6
100
AcDbEntity
  8
0
  6
Continuous
 62
     0
370
    18
100
AcDbLine
 10
-7.75
 20
-13.4233937587
 30
0.0
 11
-10.25
 21
-13.4233937587
 31
0.0
  0
LINE
  5
1E1
330
1C6
100
AcDbEntity
  8
0
  6
Continuous
 62
     0
370
    18
100
AcDbLine
 10
-7.75
 20
-13.4233937587
 30
0.0
 11
-7.75
 21
-15.9233937587
 31
0.0
  0
LINE
  5
1E2
330
1C6
100
AcDbEntity
  8
0
  6
Continuous
 62
     0
370
    18
100
AcDbLine
 10
-7.75
 20
-13.4233937587
 30
0.0
 11
-5.25
 21
-13.4233937587
 31
0.0
  0
LINE
  5
1E3
330
1C6
100
AcDbEntity
  8
0
  6
Continuous
 62
     0
370
    18
100
AcDbLine
 10
-7.75
 20
-8.4233937587
 30
0.0
 11
-7.75
 21
4.5766062413
 31
0.0
  0
LINE
  5
1E4
330
1C6
100
AcDbEntity
  8
0
  6
Continuous
 62
     0
370
    18
100
AcDbLine
 10
-12.75
 20
-13.4233937587
 30
0.0
 11
-25.75
 21
-13.4233937587
 31
0.0
  0
LINE
  5
1E5
330
1C6
100
AcDbEntity
  8
0
  6
Continuous
 62
     0
370
    18
100
AcDbLine
 10
-7.75
 20
-18.4233937587
 30
0.0
 11
-7.75
 21
-31.4233937587
 31
0.0
  0
LINE
  5
1E6
330
1C6
100
AcDbEntity
  8
0
  6
Continuous
 62
     0
370
    18
100
AcDbLine
 10
-2.75
 20
-13.4233937587
 30
0.0
 11
10.25
 21
-13.4233937587
 31
0.0
  0
LINE
  5
1E7
330
1C6
100
AcDbEntity
  8
0
  6
Continuous
 62
     0
370
    18
100
AcDbLine
 10
7.75
 20
-13.4233937587
 30
0.0
 11
10.25
 21
-13.4233937587
 31
0.0
  0
LINE
  5
1E8
330
1C6
100
AcDbEntity
  8
0
  6
Continuous
 62
     0
370
    18
100
AcDbLine
 10
7.75
 20
-13.4233937587
 30
0.0
 11
5.25
 21
-13.4233937587
 31
0.0
  0
LINE
  5
1E9
330
1C6
100
AcDbEntity
  8
0
  6
Continuous
 62
     0
370
    18
100
AcDbLine
 10
10.25
 20
-13.4233937587
 30
0.0
 11
11.85
 21
-13.4233937587
 31
0.0
  0
LINE
  5
1EA
330
1C6
100
AcDbEntity
  8
0
  6
Continuous
 62
     0
370
    18
100
AcDbLine
 10
5.25
 20
-13.4233937587
 30
0.0
 11
3.65
 21
-13.4233937587
 31
0.0
  0
LINE
  5
1EB
330
1C6
100
AcDbEntity
  8
0
  6
Continuous
 62
     0
370
    18
100
AcDbLine
 10
-15.5
 20
0.0
 30
0.0
 11
-16.75
 21
2.1650635095
 31
0.0
  0
LINE
  5
1EC
330
1C6
100
AcDbEntity
  8
0
  6
Continuous
 62
     0
370
    18
100
AcDbLine
 10
-15.5
 20
0.0
 30
0.0
 11
-14.25
 21
-2.1650635095
 31
0.0
  0
LINE
  5
1ED
330
1C6
100
AcDbEntity
  8
0
  6
Continuous
 62
     0
370
    18
100
AcDbLine
 10
-16.75
 20
2.1650635095
 30
0.0
 11
-17.55
 21
3.5507041555
 31
0.0
  0
LINE
  5
1EE
330
1C6
100
AcDbEntity
  8
0
  6
Continuous
 62
     0
370
    18
100
AcDbLine
 10
-14.25
 20
-2.1650635095
 30
0.0
 11
-13.45
 21
-3.5507041555
 31
0.0
  0
LINE
  5
1EF
330
1C6
100
AcDbEntity
  8
0
  6
Continuous
 62
     0
370
    18
100
AcDbLine
 10
-23.25
 20
-13.4233937587
 30
0.0
 11
-25.75
 21
-13.4233937587
 31
0.0
  0
LINE
  5
1F0
330
1C6
100
AcDbEntity
  8
0
  6
Continuous
 62
     0
370
    18
100
AcDbLine
 10
-23.25
 20
-13.4233937587
 30
0.0
 11
-20.75
 21
-13.4233937587
 31
0.0
  0
LINE
  5
1F1
330
1C6
100
AcDbEntity
  8
0
  6
Continuous
 62
     0
370
    18
100
AcDbLine
 10
-25.75
 20
-13.4233937587
 30
0.0
 11
-27.35
 21
-13.4233937587
 31
0.0
  0
LINE
  5
1F2
330
1C6
100
AcDbEntity
  8
0
  6
Continuous
 62
     0
370
    18
100
AcDbLine
 10
-20.75
 20
-13.4233937587
 30
0.0
 11
-19.15
 21
-13.4233937587
 31
0.0
  0
LINE
  5
1F3
330
1C6
100
AcDbEntity
  8
0
  6
Continuous
 62
     0
370
    18
100
AcDbLine
 10
-15.5
 20
-26.8467875173
 30
0.0
 11
-16.75
 21
-29.0118510268
 31
0.0
  0
LINE
  5
1F4
330
1C6
100
AcDbEntity
  8
0
  6
Continuous
 62
     0
370
    18
100
AcDbLine
 10
-15.5
 20
-26.8467875173
 30
0.0
 11
-14.25
 21
-24.6817240079
 31
0.0
  0
LINE
  5
1F5
330
1C6
100
AcDbEntity
  8
0
  6
Continuous
 62
     0
370
    18
100
AcDbLine
 10
-16.75
 20
-29.0118510268
 30
0.0
 11
-17.55
 21
-30.3974916728
 31
0.0
  0
LINE
  5
1F6
330
1C6
100
AcDbEntity
  8
0
  6
Continuous
 62
     0
370
    18
100
AcDbLine
 10
-14.25
 20
-24.6817240079
 30
0.0
 11
-13.45
 21
-23.2960833618
 31
0.0
  0
LINE
  5
1F7
330
1C6
100
AcDbEntity
  8
0
  6
Continuous
 62
     0
370
    18
100
AcDbLine
 10
0.0
 20
-26.8467875173
 30
0.0
 11
1.25
 21
-29.0118510268
 31
0.0
  0
LINE
  5
1F8
330
1C6
100
AcDbEntity
  8
0
  6
Continuous
 62
     0
370
    18
100
AcDbLine
 10
0.0
 20
-26.8467875173
 30
0.0
 11
-1.25
 21
-24.6817240079
 31
0.0
  0
LINE
  5
1F9
330
1C6
100
AcDbEntity
  8
0
  6
Continuous
 62
     0
370
    18
100
AcDbLine
 10
1.25
 20
-29.0118510268
 30
0.0
 11
2.05
 21
-30.3974916728
 31
0.0
  0
LINE
  5
1FA
330
1C6
100
AcDbEntity
  8
0
  6
Continuous
 62
     0
370
    18
100
AcDbLine
 10
-1.25
 20
-24.6817240079
 30
0.0
 11
-2.05
 21
-23.2960833618
 31
0.0
  0
ENDBLK
  5
1C8
330
1C6
100
AcDbEntity
  8
0
100
AcDbBlockEnd
  0
BLOCK
  5
20B
330
20A
100
AcDbEntity
  8
0
100
AcDbBlockBegin
  2
_D_16
 70
     0
 10
0.0
 20
0.0
 30
0.0
  3
_D_16
  1

  0
SOLID
  5
20D
330
20A
100
AcDbEntity
  8
0
  6
Continuous
 62
     7
370
    18
100
AcDbTrace
 10
71.0731005917
 20
110.5968685711
 30
0.0
 11
74.3751005917
 21
110.0888685711
 31
0.0
 12
74.3751005917
 22
111.1048685711
 32
0.0
 13
74.3751005917
 23
111.1048685711
 33
0.0
  0
SOLID
  5
20E
330
20A
100
AcDbEntity
  8
0
  6
Continuous
 62
     7
370
    18
100
AcDbTrace
 10
47.0731005917
 20
110.5968685711
 30
0.0
 11
43.7711005917
 21
111.1048685711
 31
0.0
 12
43.7711005917
 22
110.0888685711
 32
0.0
 13
43.7711005917
 23
110.0888685711
 33
0.0
  0
LINE
  5
20F
330
20A
100
AcDbEntity
  8
0
  6
Continuous
 62
     7
370
     0
100
AcDbLine
 10
71.0731005917
 20
114.497408284
 30
0.0
 11
71.0731005917
 21
109.5968685711
 31
0.0
  0
LINE
  5
210
330
20A
100
AcDbEntity
  8
0
  6
Continuous
 62
     7
370
     0
100
AcDbLine
 10
47.0731005917
 20
114.497408284
 30
0.0
 11
47.0731005917
 21
109.5968685711
 31
0.0
  0
LINE
  5
211
330
20A
100
AcDbEntity
  8
0
  6
Continuous
 62
     7
370
     0
100
AcDbLine
 10
71.0731005917
 20
110.5968685711
 30
0.0
 11
77.4231005917
 21
110.5968685711
 31
0.0
  0
LINE
  5
212
330
20A
100
AcDbEntity
  8
0
  6
Continuous
 62
     7
370
     0
100
AcDbLine
 10
71.0731005917
 20
110.5968685711
 30
0.0
 11
47.0731005917
 21
110.5968685711
 31
0.0
  0
LINE
  5
213
330
20A
100
AcDbEntity
  8
0
  6
Continuous
 62
     7
370
     0
100
AcDbLine
 10
47.0731005917
 20
110.5968685711
 30
0.0
 11
40.7231005917
 21
110.5968685711
 31
0.0
  0
MTEXT
  5
214
330
20A
100
AcDbEntity
  8
0
  6
Continuous
 62
     7
370
    18
100
AcDbMText
 10
47.7747645791
 20
115.1086054856
 30
0.0
 40
3.5
 41
0.0
 71
     1
 72
     1
  1
24.00
  7
SLDTEXTSTYLE0
 73
     1
 44
1.0
  0
ENDBLK
  5
20C
330
20A
100
AcDbEntity
  8
0
100
AcDbBlockEnd
  0
BLOCK
  5
217
330
216
100
AcDbEntity
  8
0
100
AcDbBlockBegin
  2
_D_17
 70
     0
 10
0.0
 20
0.0
 30
0.0
  3
_D_17
  1

  0
SOLID
  5
219
330
216
100
AcDbEntity
  8
0
  6
Continuous
 62
     7
370
    18
100
AcDbTrace
 10
79.0290850473
 20
117.1853966648
 30
0.0
 11
82.1959379706
 21
116.1212958414
 31
0.0
 12
82.369339239
 22
117.1223892437
 32
0.0
 13
82.369339239
 23
117.1223892437
 33
0.0
  0
LINE
  5
21A
330
216
100
AcDbEntity
  8
0
  6
Continuous
 62
     7
370
     0
100
AcDbLine
 10
79.0290850473
 20
117.1853966648
 30
0.0
 11
90.8081391255
 21
115.1451245856
 31
0.0
  0
LINE
  5
21B
330
216
100
AcDbEntity
  8
0
  6
Continuous
 62
     7
370
     0
100
AcDbLine
 10
79.0290850473
 20
117.1853966648
 30
0.0
 11
76.0731005917
 21
117.697408284
 31
0.0
  0
MTEXT
  5
21C
330
216
100
AcDbEntity
  8
0
  6
Continuous
 62
     7
370
    18
100
AcDbMText
 10
79.8476698757
 20
121.5068476891
 30
0.0
 40
3.5
 41
0.0
 71
     1
 72
     1
  1
R3.00
  7
SLDTEXTSTYLE0
 11
0.9853281518685919
 21
-0.1706705397402409
 31
0.0
 73
     1
 44
1.0
  0
ENDBLK
  5
218
330
216
100
AcDbEntity
  8
0
100
AcDbBlockEnd
  0
BLOCK
  5
21F
330
21E
100
AcDbEntity
  8
0
100
AcDbBlockBegin
  2
_D_18
 70
     0
 10
0.0
 20
0.0
 30
0.0
  3
_D_18
  1

  0
SOLID
  5
221
330
21E
100
AcDbEntity
  8
0
  6
Continuous
 62
     7
370
    18
100
AcDbTrace
 10
93.1627313538
 20
117.697408284
 30
0.0
 11
93.6707313538
 21
120.999408284
 31
0.0
 12
92.6547313538
 22
120.999408284
 32
0.0
 13
92.6547313538
 23
120.999408284
 33
0.0
  0
SOLID
  5
222
330
21E
100
AcDbEntity
  8
0
  6
Continuous
 62
     7
370
    18
100
AcDbTrace
 10
93.1627313538
 20
151.697408284
 30
0.0
 11
92.6547313538
 21
148.395408284
 31
0.0
 12
93.6707313538
 22
148.395408284
 32
0.0
 13
93.6707313538
 23
148.395408284
 33
0.0
  0
LINE
  5
223
330
21E
100
AcDbEntity
  8
0
  6
Continuous
 62
     7
370
     0
100
AcDbLine
 10
80.0731005917
 20
117.697408284
 30
0.0
 11
94.1627313538
 21
117.697408284
 31
0.0
  0
LINE
  5
224
330
21E
100
AcDbEntity
  8
0
  6
Continuous
 62
     7
370
     0
100
AcDbLine
 10
80.0731005917
 20
151.697408284
 30
0.0
 11
94.1627313538
 21
151.697408284
 31
0.0
  0
LINE
  5
225
330
21E
100
AcDbEntity
  8
0
  6
Continuous
 62
     7
370
     0
100
AcDbLine
 10
93.1627313538
 20
117.697408284
 30
0.0
 11
93.1627313538
 21
151.697408284
 31
0.0
  0
MTEXT
  5
226
330
21E
100
AcDbEntity
  8
0
  6
Continuous
 62
     7
370
    18
100
AcDbMText
 10
88.6509944392
 20
126.4925820629
 30
0.0
 40
3.5
 41
0.0
 71
     1
 72
     1
  1
34.00
  7
SLDTEXTSTYLE0
 11
-1.608122649676637E-16
 21
1.0
 31
0.0
 73
     1
 44
1.0
  0
ENDBLK
  5
220
330
21E
100
AcDbEntity
  8
0
100
AcDbBlockEnd
  0
BLOCK
  5
229
330
228
100
AcDbEntity
  8
0
100
AcDbBlockBegin
  2
_D_19
 70
     0
 10
0.0
 20
0.0
 30
0.0
  3
_D_19
  1

  0
SOLID
  5
22B
330
228
100
AcDbEntity
  8
0
  6
Continuous
 62
     7
370
    18
100
AcDbTrace
 10
76.0731005917
 20
159.7767259789
 30
0.0
 11
72.7711005917
 21
160.2847259789
 31
0.0
 12
72.7711005917
 22
159.2687259789
 32
0.0
 13
72.7711005917
 23
159.2687259789
 33
0.0
  0
SOLID
  5
22C
330
228
100
AcDbEntity
  8
0
  6
Continuous
 62
     7
370
    18
100
AcDbTrace
 10
38.0731005917
 20
159.7767259789
 30
0.0
 11
41.3751005917
 21
159.2687259789
 31
0.0
 12
41.3751005917
 22
160.2847259789
 32
0.0
 13
41.3751005917
 23
160.2847259789
 33
0.0
  0
LINE
  5
22D
330
228
100
AcDbEntity
  8
0
  6
Continuous
 62
     7
370
     0
100
AcDbLine
 10
76.0731005917
 20
155.697408284
 30
0.0
 11
76.0731005917
 21
160.7767259789
 31
0.0
  0
LINE
  5
22E
330
228
100
AcDbEntity
  8
0
  6
Continuous
 62
     7
370
     0
100
AcDbLine
 10
38.0731005917
 20
155.697408284
 30
0.0
 11
38.0731005917
 21
160.7767259789
 31
0.0
  0
LINE
  5
22F
330
228
100
AcDbEntity
  8
0
  6
Continuous
 62
     7
370
     0
100
AcDbLine
 10
76.0731005917
 20
159.7767259789
 30
0.0
 11
38.0731005917
 21
159.7767259789
 31
0.0
  0
MTEXT
  5
230
330
228
100
AcDbEntity
  8
0
  6
Continuous
 62
     7
370
    18
100
AcDbMText
 10
65.2834239436
 20
164.2884628934
 30
0.0
 40
3.5
 41
0.0
 71
     1
 72
     1
  1
38.00
  7
SLDTEXTSTYLE0
 73
     1
 44
1.0
  0
ENDBLK
  5
22A
330
228
100
AcDbEntity
  8
0
100
AcDbBlockEnd
  0
BLOCK
  5
233
330
232
100
AcDbEntity
  8
0
100
AcDbBlockBegin
  2
_D_20
 70
     0
 10
0.0
 20
0.0
 30
0.0
  3
_D_20
  1

  0
SOLID
  5
235
330
232
100
AcDbEntity
  8
0
  6
Continuous
 62
     7
370
    18
100
AcDbTrace
 10
32.9374102891
 20
114.697408284
 30
0.0
 11
33.4454102891
 21
117.999408284
 31
0.0
 12
32.4294102891
 22
117.999408284
 32
0.0
 13
32.4294102891
 23
117.999408284
 33
0.0
  0
SOLID
  5
236
330
232
100
AcDbEntity
  8
0
  6
Continuous
 62
     7
370
    18
100
AcDbTrace
 10
32.9374102891
 20
154.697408284
 30
0.0
 11
32.4294102891
 21
151.395408284
 31
0.0
 12
33.4454102891
 22
151.395408284
 32
0.0
 13
33.4454102891
 23
151.395408284
 33
0.0
  0
LINE
  5
237
330
232
100
AcDbEntity
  8
0
  6
Continuous
 62
     7
370
     0
100
AcDbLine
 10
37.0731005917
 20
114.697408284
 30
0.0
 11
31.9374102891
 21
114.697408284
 31
0.0
  0
LINE
  5
238
330
232
100
AcDbEntity
  8
0
  6
Continuous
 62
     7
370
     0
100
AcDbLine
 10
37.0731005917
 20
154.697408284
 30
0.0
 11
31.9374102891
 21
154.697408284
 31
0.0
  0
LINE
  5
239
330
232
100
AcDbEntity
  8
0
  6
Continuous
 62
     7
370
     0
100
AcDbLine
 10
32.9374102891
 20
114.697408284
 30
0.0
 11
32.9374102891
 21
154.697408284
 31
0.0
  0
MTEXT
  5
23A
330
232
100
AcDbEntity
  8
0
  6
Continuous
 62
     7
370
    18
100
AcDbMText
 10
28.4256733746
 20
135.0961993578
 30
0.0
 40
3.5
 41
0.0
 71
     1
 72
     1
  1
40.00
  7
SLDTEXTSTYLE0
 11
6.123233995736766E-17
 21
1.0
 31
0.0
 73
     1
 44
1.0
  0
ENDBLK
  5
234
330
232
100
AcDbEntity
  8
0
100
AcDbBlockEnd
  0
BLOCK
  5
23D
330
23C
100
AcDbEntity
  8
0
100
AcDbBlockBegin
  2
_D_21
 70
     0
 10
0.0
 20
0.0
 30
0.0
  3
_D_21
  1

  0
SOLID
  5
23F
330
23C
100
AcDbEntity
  8
0
  6
Continuous
 62
     7
370
    18
100
AcDbTrace
 10
44.440525584
 20
119.697408284
 30
0.0
 11
44.948525584
 21
122.999408284
 31
0.0
 12
43.932525584
 22
122.999408284
 32
0.0
 13
43.932525584
 23
122.999408284
 33
0.0
  0
SOLID
  5
240
330
23C
100
AcDbEntity
  8
0
  6
Continuous
 62
     7
370
    18
100
AcDbTrace
 10
44.440525584
 20
149.697408284
 30
0.0
 11
43.932525584
 21
146.395408284
 31
0.0
 12
44.948525584
 22
146.395408284
 32
0.0
 13
44.948525584
 23
146.395408284
 33
0.0
  0
LINE
  5
241
330
23C
100
AcDbEntity
  8
0
  6
Continuous
 62
     7
370
     0
100
AcDbLine
 10
44.440525584
 20
119.697408284
 30
0.0
 11
44.440525584
 21
149.697408284
 31
0.0
  0
MTEXT
  5
242
330
23C
100
AcDbEntity
  8
0
  6
Continuous
 62
     7
370
    18
100
AcDbMText
 10
39.9287886695
 20
129.0699883973
 30
0.0
 40
3.5
 41
0.0
 71
     1
 72
     1
  1
30.00
  7
SLDTEXTSTYLE0
 11
6.123233995736766E-17
 21
1.0
 31
0.0
 73
     1
 44
1.0
  0
ENDBLK
  5
23E
330
23C
100
AcDbEntity
  8
0
100
AcDbBlockEnd
  0
BLOCK
  5
244
330
243
100
AcDbEntity
  8
0
100
AcDbBlockBegin
  2
SW_CENTERMARKSYMBOL_1
 70
     0
 10
0.0
 20
0.0
 30
0.0
  3
SW_CENTERMARKSYMBOL_1
  1

  0
LINE
  5
246
330
243
100
AcDbEntity
  8
0
  6
Continuous
 62
     0
370
    18
100
AcDbLine
 10
0.0
 20
0.0
 30
0.0
 11
0.0
 21
2.5
 31
0.0
  0
LINE
  5
247
330
243
100
AcDbEntity
  8
0
  6
Continuous
 62
     0
370
    18
100
AcDbLine
 10
0.0
 20
0.0
 30
0.0
 11
-2.5
 21
0.0
 31
0.0
  0
LINE
  5
248
330
243
100
AcDbEntity
  8
0
  6
Continuous
 62
     0
370
    18
100
AcDbLine
 10
0.0
 20
0.0
 30
0.0
 11
0.0
 21
-2.5
 31
0.0
  0
LINE
  5
249
330
243
100
AcDbEntity
  8
0
  6
Continuous
 62
     0
370
    18
100
AcDbLine
 10
0.0
 20
0.0
 30
0.0
 11
2.5
 21
0.0
 31
0.0
  0
LINE
  5
24A
330
243
100
AcDbEntity
  8
0
  6
Continuous
 62
     0
370
    18
100
AcDbLine
 10
0.0
 20
2.5
 30
0.0
 11
0.0
 21
4.2
 31
0.0
  0
LINE
  5
24B
330
243
100
AcDbEntity
  8
0
  6
Continuous
 62
     0
370
    18
100
AcDbLine
 10
-2.5
 20
0.0
 30
0.0
 11
-4.2
 21
0.0
 31
0.0
  0
LINE
  5
24C
330
243
100
AcDbEntity
  8
0
  6
Continuous
 62
     0
370
    18
100
AcDbLine
 10
0.0
 20
-2.5
 30
0.0
 11
0.0
 21
-4.2
 31
0.0
  0
LINE
  5
24D
330
243
100
AcDbEntity
  8
0
  6
Continuous
 62
     0
370
    18
100
AcDbLine
 10
24.0
 20
0.0
 30
0.0
 11
24.0
 21
2.5
 31
0.0
  0
LINE
  5
24E
330
243
100
AcDbEntity
  8
0
  6
Continuous
 62
     0
370
    18
100
AcDbLine
 10
24.0
 20
0.0
 30
0.0
 11
21.5
 21
0.0
 31
0.0
  0
LINE
  5
24F
330
243
100
AcDbEntity
  8
0
  6
Continuous
 62
     0
370
    18
100
AcDbLine
 10
24.0
 20
0.0
 30
0.0
 11
24.0
 21
-2.5
 31
0.0
  0
LINE
  5
250
330
243
100
AcDbEntity
  8
0
  6
Continuous
 62
     0
370
    18
100
AcDbLine
 10
24.0
 20
0.0
 30
0.0
 11
26.5
 21
0.0
 31
0.0
  0
LINE
  5
251
330
243
100
AcDbEntity
  8
0
  6
Continuous
 62
     0
370
    18
100
AcDbLine
 10
24.0
 20
2.5
 30
0.0
 11
24.0
 21
4.2
 31
0.0
  0
LINE
  5
252
330
243
100
AcDbEntity
  8
0
  6
Continuous
 62
     0
370
    18
100
AcDbLine
 10
24.0
 20
-2.5
 30
0.0
 11
24.0
 21
-4.2
 31
0.0
  0
LINE
  5
253
330
243
100
AcDbEntity
  8
0
  6
Continuous
 62
     0
370
    18
100
AcDbLine
 10
26.5
 20
0.0
 30
0.0
 11
28.2
 21
0.0
 31
0.0
  0
LINE
  5
254
330
243
100
AcDbEntity
  8
0
  6
CENTERX2
 62
     0
370
    18
100
AcDbLine
 10
5.0
 20
0.0
 30
0.0
 11
19.0
 21
0.0
 31
0.0
  0
ENDBLK
  5
245
330
243
100
AcDbEntity
  8
0
100
AcDbBlockEnd
  0
BLOCK
  5
257
330
256
100
AcDbEntity
  8
0
100
AcDbBlockBegin
  2
SW_CENTERMARKSYMBOL_2
 70
     0
 10
0.0
 20
0.0
 30
0.0
  3
SW_CENTERMARKSYMBOL_2
  1

  0
LINE
  5
259
330
256
100
AcDbEntity
  8
0
  6
Continuous
 62
     0
370
    18
100
AcDbLine
 10
0.0
 20
0.0
 30
0.0
 11
0.0
 21
2.5
 31
0.0
  0
LINE
  5
25A
330
256
100
AcDbEntity
  8
0
  6
Continuous
 62
     0
370
    18
100
AcDbLine
 10
0.0
 20
0.0
 30
0.0
 11
-2.5
 21
0.0
 31
0.0
  0
LINE
  5
25B
330
256
100
AcDbEntity
  8
0
  6
Continuous
 62
     0
370
    18
100
AcDbLine
 10
0.0
 20
0.0
 30
0.0
 11
0.0
 21
-2.5
 31
0.0
  0
LINE
  5
25C
330
256
100
AcDbEntity
  8
0
  6
Continuous
 62
     0
370
    18
100
AcDbLine
 10
0.0
 20
0.0
 30
0.0
 11
2.5
 21
0.0
 31
0.0
  0
LINE
  5
25D
330
256
100
AcDbEntity
  8
0
  6
Continuous
 62
     0
370
    18
100
AcDbLine
 10
0.0
 20
2.5
 30
0.0
 11
0.0
 21
4.2
 31
0.0
  0
LINE
  5
25E
330
256
100
AcDbEntity
  8
0
  6
Continuous
 62
     0
370
    18
100
AcDbLine
 10
-2.5
 20
0.0
 30
0.0
 11
-4.2
 21
0.0
 31
0.0
  0
LINE
  5
25F
330
256
100
AcDbEntity
  8
0
  6
Continuous
 62
     0
370
    18
100
AcDbLine
 10
0.0
 20
-2.5
 30
0.0
 11
0.0
 21
-4.2
 31
0.0
  0
LINE
  5
260
330
256
100
AcDbEntity
  8
0
  6
Continuous
 62
     0
370
    18
100
AcDbLine
 10
24.0
 20
0.0
 30
0.0
 11
24.0
 21
2.5
 31
0.0
  0
LINE
  5
261
330
256
100
AcDbEntity
  8
0
  6
Continuous
 62
     0
370
    18
100
AcDbLine
 10
24.0
 20
0.0
 30
0.0
 11
21.5
 21
0.0
 31
0.0
  0
LINE
  5
262
330
256
100
AcDbEntity
  8
0
  6
Continuous
 62
     0
370
    18
100
AcDbLine
 10
24.0
 20
0.0
 30
0.0
 11
24.0
 21
-2.5
 31
0.0
  0
LINE
  5
263
330
256
100
AcDbEntity
  8
0
  6
Continuous
 62
     0
370
    18
100
AcDbLine
 10
24.0
 20
0.0
 30
0.0
 11
26.5
 21
0.0
 31
0.0
  0
LINE
  5
264
330
256
100
AcDbEntity
  8
0
  6
Continuous
 62
     0
370
    18
100
AcDbLine
 10
24.0
 20
2.5
 30
0.0
 11
24.0
 21
4.2
 31
0.0
  0
LINE
  5
265
330
256
100
AcDbEntity
  8
0
  6
Continuous
 62
     0
370
    18
100
AcDbLine
 10
24.0
 20
-2.5
 30
0.0
 11
24.0
 21
-4.2
 31
0.0
  0
LINE
  5
266
330
256
100
AcDbEntity
  8
0
  6
Continuous
 62
     0
370
    18
100
AcDbLine
 10
26.5
 20
0.0
 30
0.0
 11
28.2
 21
0.0
 31
0.0
  0
LINE
  5
267
330
256
100
AcDbEntity
  8
0
  6
CENTERX2
 62
     0
370
    18
100
AcDbLine
 10
5.0
 20
0.0
 30
0.0
 11
19.0
 21
0.0
 31
0.0
  0
ENDBLK
  5
258
330
256
100
AcDbEntity
  8
0
100
AcDbBlockEnd
  0
ENDSEC
  0
SECTION
  2
ENTITIES
  0
LINE
  5
74
330
1F
100
AcDbEntity
  8
0
  6
Continuous
 62
     7
370
    50
100
AcDbLine
 10
20.0
 20
14.25
 30
0.0
 11
200.0
 21
14.25
 31
0.0
  0
LINE
  5
75
330
1F
100
AcDbEntity
  8
0
  6
Continuous
 62
     7
370
    50
100
AcDbLine
 10
200.0
 20
48.25
 30
0.0
 11
20.0
 21
48.25
 31
0.0
  0
LINE
  5
76
330
1F
100
AcDbEntity
  8
0
  6
Continuous
 62
     7
370
    50
100
AcDbLine
 10
20.0
 20
65.25
 30
0.0
 11
200.0
 21
65.25
 31
0.0
  0
LINE
  5
77
330
1F
100
AcDbEntity
  8
0
  6
Continuous
 62
     7
370
    50
100
AcDbLine
 10
46.9909524338
 20
48.25
 30
0.0
 11
46.9909524338
 21
10.0
 31
0.0
  0
LINE
  5
78
330
1F
100
AcDbEntity
  8
0
  6
Continuous
 62
     7
370
    50
100
AcDbLine
 10
118.8
 20
31.25
 30
0.0
 11
20.0
 21
31.25
 31
0.0
  0
LINE
  5
79
330
1F
100
AcDbEntity
  8
0
  6
Continuous
 62
     7
370
    50
100
AcDbLine
 10
118.8
 20
35.5
 30
0.0
 11
20.0
 21
35.5
 31
0.0
  0
LINE
  5
7A
330
1F
100
AcDbEntity
  8
0
  6
Continuous
 62
     7
370
    50
100
AcDbLine
 10
118.8
 20
39.75
 30
0.0
 11
20.0
 21
39.75
 31
0.0
  0
LINE
  5
7B
330
1F
100
AcDbEntity
  8
0
  6
Continuous
 62
     7
370
    50
100
AcDbLine
 10
118.8
 20
44.0
 30
0.0
 11
20.0
 21
44.0
 31
0.0
  0
LINE
  5
7C
330
1F
100
AcDbEntity
  8
0
  6
Continuous
 62
     7
370
    50
100
AcDbLine
 10
74.6
 20
10.0
 30
0.0
 11
74.6
 21
48.25
 31
0.0
  0
LINE
  5
7D
330
1F
100
AcDbEntity
  8
0
  6
Continuous
 62
     7
370
    50
100
AcDbLine
 10
20.0
 20
65.25
 30
0.0
 11
20.0
 21
10.0
 31
0.0
  0
LINE
  5
7E
330
1F
100
AcDbEntity
  8
0
  6
Continuous
 62
     7
370
    50
100
AcDbLine
 10
27.8
 20
48.25
 30
0.0
 11
27.8
 21
10.0
 31
0.0
  0
LINE
  5
7F
330
1F
100
AcDbEntity
  8
0
  6
Continuous
 62
     7
370
    50
100
AcDbLine
 10
53.8
 20
48.25
 30
0.0
 11
53.8
 21
65.25
 31
0.0
  0
LINE
  5
80
330
1F
100
AcDbEntity
  8
0
  6
Continuous
 62
     7
370
    50
100
AcDbLine
 10
64.3989261635
 20
48.25
 30
0.0
 11
64.3989261635
 21
10.0
 31
0.0
  0
LINE
  5
81
330
1F
100
AcDbEntity
  8
0
  6
Continuous
 62
     7
370
    50
100
AcDbLine
 10
85.0
 20
31.25
 30
0.0
 11
85.0
 21
48.25
 31
0.0
  0
LINE
  5
82
330
1F
100
AcDbEntity
  8
0
  6
Continuous
 62
     7
370
    50
100
AcDbLine
 10
74.6
 20
18.5
 30
0.0
 11
20.0
 21
18.5
 31
0.0
  0
LINE
  5
83
330
1F
100
AcDbEntity
  8
0
  6
Continuous
 62
     7
370
    50
100
AcDbLine
 10
100.6
 20
65.25
 30
0.0
 11
100.6
 21
27.0
 31
0.0
  0
LINE
  5
84
330
1F
100
AcDbEntity
  8
0
  6
Continuous
 62
     7
370
    50
100
AcDbLine
 10
74.6
 20
22.749928
 30
0.0
 11
20.0
 21
22.749928
 31
0.0
  0
LINE
  5
85
330
1F
100
AcDbEntity
  8
0
  6
Continuous
 62
     7
370
    50
100
AcDbLine
 10
74.6
 20
27.0
 30
0.0
 11
20.0
 21
27.0
 31
0.0
  0
LINE
  5
86
330
1F
100
AcDbEntity
  8
0
  6
Continuous
 62
     7
370
    50
100
AcDbLine
 10
74.6
 20
27.0
 30
0.0
 11
200.0
 21
27.0
 31
0.0
  0
LINE
  5
87
330
1F
100
AcDbEntity
  8
0
  6
Continuous
 62
     7
370
    50
100
AcDbLine
 10
118.8
 20
65.25
 30
0.0
 11
118.8
 21
10.0
 31
0.0
  0
LINE
  5
88
330
1F
100
AcDbEntity
  8
0
  6
Continuous
 62
     7
370
    50
100
AcDbLine
 10
163.0
 20
10.0
 30
0.0
 11
163.0
 21
14.25
 31
0.0
  0
LINE
  5
89
330
1F
100
AcDbEntity
  8
0
  6
Continuous
 62
     7
370
    50
100
AcDbLine
 10
170.8
 20
58.875
 30
0.0
 11
170.8
 21
65.25
 31
0.0
  0
LINE
  5
8A
330
1F
100
AcDbEntity
  8
0
  6
Continuous
 62
     7
370
    50
100
AcDbLine
 10
187.0
 20
14.25
 30
0.0
 11
187.0
 21
27.0
 31
0.0
  0
LINE
  5
8B
330
1F
100
AcDbEntity
  8
0
  6
Continuous
 62
     7
370
    50
100
AcDbLine
 10
200.0
 20
58.875
 30
0.0
 11
118.8
 21
58.875
 31
0.0
  0
LINE
  5
8C
330
1F
100
AcDbEntity
  8
0
  6
Continuous
 62
     7
370
    50
100
AcDbLine
 10
200.0
 20
18.5
 30
0.0
 11
187.0
 21
18.5
 31
0.0
  0
LINE
  5
8D
330
1F
100
AcDbEntity
  8
0
  6
Continuous
 62
     7
370
    70
100
AcDbLine
 10
20.0
 20
10.0
 30
0.0
 11
20.0
 21
287.0
 31
0.0
  0
LINE
  5
8E
330
1F
100
AcDbEntity
  8
0
  6
Continuous
 62
     7
370
    70
100
AcDbLine
 10
20.0
 20
287.0
 30
0.0
 11
200.0
 21
287.0
 31
0.0
  0
LINE
  5
8F
330
1F
100
AcDbEntity
  8
0
  6
Continuous
 62
     7
370
    70
100
AcDbLine
 10
200.0
 20
287.0
 30
0.0
 11
200.0
 21
10.0
 31
0.0
  0
LINE
  5
90
330
1F
100
AcDbEntity
  8
0
  6
Continuous
 62
     7
370
    70
100
AcDbLine
 10
200.0
 20
10.0
 30
0.0
 11
20.0
 21
10.0
 31
0.0
  0
LINE
  5
91
330
1F
100
AcDbEntity
  8
0
  6
Continuous
 62
     7
370
    70
100
AcDbLine
 10
15.0
 20
5.0
 30
0.0
 11
15.0
 21
292.0
 31
0.0
  0
LINE
  5
92
330
1F
100
AcDbEntity
  8
0
  6
Continuous
 62
     7
370
    70
100
AcDbLine
 10
15.0
 20
292.0
 30
0.0
 11
205.0
 21
292.0
 31
0.0
  0
LINE
  5
93
330
1F
100
AcDbEntity
  8
0
  6
Continuous
 62
     7
370
    70
100
AcDbLine
 10
205.0
 20
292.0
 30
0.0
 11
205.0
 21
5.0
 31
0.0
  0
LINE
  5
94
330
1F
100
AcDbEntity
  8
0
  6
Continuous
 62
     7
370
    70
100
AcDbLine
 10
205.0
 20
5.0
 30
0.0
 11
15.0
 21
5.0
 31
0.0
  0
LINE
  5
95
330
1F
100
AcDbEntity
  8
0
  6
Continuous
 62
     7
370
    35
100
AcDbLine
 10
15.0
 20
148.5
 30
0.0
 11
25.0
 21
148.5
 31
0.0
  0
LINE
  5
96
330
1F
100
AcDbEntity
  8
0
  6
Continuous
 62
     7
370
    35
100
AcDbLine
 10
110.0
 20
292.0
 30
0.0
 11
110.0
 21
282.0
 31
0.0
  0
LINE
  5
97
330
1F
100
AcDbEntity
  8
0
  6
Continuous
 62
     7
370
    35
100
AcDbLine
 10
205.0
 20
148.5
 30
0.0
 11
195.0
 21
148.5
 31
0.0
  0
LINE
  5
98
330
1F
100
AcDbEntity
  8
0
  6
Continuous
 62
     7
370
    35
100
AcDbLine
 10
110.0
 20
5.0
 30
0.0
 11
110.0
 21
15.0
 31
0.0
  0
LINE
  5
99
330
1F
100
AcDbEntity
  8
0
  6
Continuous
 62
     7
370
    35
100
AcDbLine
 10
20.0
 20
48.5
 30
0.0
 11
15.0
 21
48.5
 31
0.0
  0
LINE
  5
9A
330
1F
100
AcDbEntity
  8
0
  6
Continuous
 62
     7
370
    35
100
AcDbLine
 10
200.0
 20
48.5
 30
0.0
 11
205.0
 21
48.5
 31
0.0
  0
LINE
  5
9B
330
1F
100
AcDbEntity
  8
0
  6
Continuous
 62
     7
370
    35
100
AcDbLine
 10
20.0
 20
98.5
 30
0.0
 11
15.0
 21
98.5
 31
0.0
  0
LINE
  5
9C
330
1F
100
AcDbEntity
  8
0
  6
Continuous
 62
     7
370
    35
100
AcDbLine
 10
200.0
 20
98.5
 30
0.0
 11
205.0
 21
98.5
 31
0.0
  0
LINE
  5
9D
330
1F
100
AcDbEntity
  8
0
  6
Continuous
 62
     7
370
    35
100
AcDbLine
 10
20.0
 20
148.5
 30
0.0
 11
15.0
 21
148.5
 31
0.0
  0
LINE
  5
9E
330
1F
100
AcDbEntity
  8
0
  6
Continuous
 62
     7
370
    35
100
AcDbLine
 10
200.0
 20
148.5
 30
0.0
 11
205.0
 21
148.5
 31
0.0
  0
LINE
  5
9F
330
1F
100
AcDbEntity
  8
0
  6
Continuous
 62
     7
370
    35
100
AcDbLine
 10
20.0
 20
198.5
 30
0.0
 11
15.0
 21
198.5
 31
0.0
  0
LINE
  5
A0
330
1F
100
AcDbEntity
  8
0
  6
Continuous
 62
     7
370
    35
100
AcDbLine
 10
200.0
 20
198.5
 30
0.0
 11
205.0
 21
198.5
 31
0.0
  0
LINE
  5
A1
330
1F
100
AcDbEntity
  8
0
  6
Continuous
 62
     7
370
    35
100
AcDbLine
 10
20.0
 20
248.5
 30
0.0
 11
15.0
 21
248.5
 31
0.0
  0
LINE
  5
A2
330
1F
100
AcDbEntity
  8
0
  6
Continuous
 62
     7
370
    35
100
AcDbLine
 10
200.0
 20
248.5
 30
0.0
 11
205.0
 21
248.5
 31
0.0
  0
LINE
  5
A3
330
1F
100
AcDbEntity
  8
0
  6
Continuous
 62
     7
370
    35
100
AcDbLine
 10
60.0
 20
287.0
 30
0.0
 11
60.0
 21
292.0
 31
0.0
  0
LINE
  5
A4
330
1F
100
AcDbEntity
  8
0
  6
Continuous
 62
     7
370
    35
100
AcDbLine
 10
60.0
 20
10.0
 30
0.0
 11
60.0
 21
5.0
 31
0.0
  0
LINE
  5
A5
330
1F
100
AcDbEntity
  8
0
  6
Continuous
 62
     7
370
    35
100
AcDbLine
 10
110.0
 20
287.0
 30
0.0
 11
110.0
 21
292.0
 31
0.0
  0
LINE
  5
A6
330
1F
100
AcDbEntity
  8
0
  6
Continuous
 62
     7
370
    35
100
AcDbLine
 10
110.0
 20
10.0
 30
0.0
 11
110.0
 21
5.0
 31
0.0
  0
LINE
  5
A7
330
1F
100
AcDbEntity
  8
0
  6
Continuous
 62
     7
370
    35
100
AcDbLine
 10
160.0
 20
287.0
 30
0.0
 11
160.0
 21
292.0
 31
0.0
  0
LINE
  5
A8
330
1F
100
AcDbEntity
  8
0
  6
Continuous
 62
     7
370
    35
100
AcDbLine
 10
160.0
 20
10.0
 30
0.0
 11
160.0
 21
5.0
 31
0.0
  0
MTEXT
  5
AA
330
1F
100
AcDbEntity
  8
0
  6
Continuous
 62
     7
370
     0
100
AcDbMText
 10
17.3396881428
 20
31.167684388
 30
0.0
 40
3.96875
 41
0.0
 71
     2
 72
     1
  1
A
  7
SLDTEXTSTYLE0
 73
     1
 44
1.0
  0
MTEXT
  5
AB
330
1F
100
AcDbEntity
  8
0
  6
Continuous
 62
     7
370
     0
100
AcDbMText
 10
202.3396881428
 20
31.167684388
 30
0.0
 40
3.96875
 41
0.0
 71
     2
 72
     1
  1
A
  7
SLDTEXTSTYLE0
 73
     1
 44
1.0
  0
MTEXT
  5
AC
330
1F
100
AcDbEntity
  8
0
  6
Continuous
 62
     7
370
     0
100
AcDbMText
 10
17.4706018241
 20
75.4739273576
 30
0.0
 40
3.96875
 41
0.0
 71
     2
 72
     1
  1
B
  7
SLDTEXTSTYLE0
 73
     1
 44
1.0
  0
MTEXT
  5
AD
330
1F
100
AcDbEntity
  8
0
  6
Continuous
 62
     7
370
     0
100
AcDbMText
 10
202.4706018241
 20
75.4739273576
 30
0.0
 40
3.96875
 41
0.0
 71
     2
 72
     1
  1
B
  7
SLDTEXTSTYLE0
 73
     1
 44
1.0
  0
MTEXT
  5
AE
330
1F
100
AcDbEntity
  8
0
  6
Continuous
 62
     7
370
     0
100
AcDbMText
 10
17.458658902
 20
125.4739273576
 30
0.0
 40
3.96875
 41
0.0
 71
     2
 72
     1
  1
C
  7
SLDTEXTSTYLE0
 73
     1
 44
1.0
  0
MTEXT
  5
AF
330
1F
100
AcDbEntity
  8
0
  6
Continuous
 62
     7
370
     0
100
AcDbMText
 10
202.458658902
 20
125.4739273576
 30
0.0
 40
3.96875
 41
0.0
 71
     2
 72
     1
  1
C
  7
SLDTEXTSTYLE0
 73
     1
 44
1.0
  0
MTEXT
  5
B0
330
1F
100
AcDbEntity
  8
0
  6
Continuous
 62
     7
370
     0
100
AcDbMText
 10
17.4526872821
 20
175.4739273576
 30
0.0
 40
3.96875
 41
0.0
 71
     2
 72
     1
  1
D
  7
SLDTEXTSTYLE0
 73
     1
 44
1.0
  0
MTEXT
  5
B1
330
1F
100
AcDbEntity
  8
0
  6
Continuous
 62
     7
370
     0
100
AcDbMText
 10
202.4526872821
 20
175.4739273576
 30
0.0
 40
3.96875
 41
0.0
 71
     2
 72
     1
  1
D
  7
SLDTEXTSTYLE0
 73
     1
 44
1.0
  0
MTEXT
  5
B2
330
1F
100
AcDbEntity
  8
0
  6
Continuous
 62
     7
370
     0
100
AcDbMText
 10
17.5078089051
 20
225.4739273576
 30
0.0
 40
3.96875
 41
0.0
 71
     2
 72
     1
  1
E
  7
SLDTEXTSTYLE0
 73
     1
 44
1.0
  0
MTEXT
  5
B3
330
1F
100
AcDbEntity
  8
0
  6
Continuous
 62
     7
370
     0
100
AcDbMText
 10
202.5078089051
 20
225.4739273576
 30
0.0
 40
3.96875
 41
0.0
 71
     2
 72
     1
  1
E
  7
SLDTEXTSTYLE0
 73
     1
 44
1.0
  0
MTEXT
  5
B4
330
1F
100
AcDbEntity
  8
0
  6
Continuous
 62
     7
370
     0
100
AcDbMText
 10
17.4577402091
 20
269.7239273576
 30
0.0
 40
3.96875
 41
0.0
 71
     2
 72
     1
  1
F
  7
SLDTEXTSTYLE0
 73
     1
 44
1.0
  0
MTEXT
  5
B5
330
1F
100
AcDbEntity
  8
0
  6
Continuous
 62
     7
370
     0
100
AcDbMText
 10
202.4577402091
 20
269.7239273576
 30
0.0
 40
3.96875
 41
0.0
 71
     2
 72
     1
  1
F
  7
SLDTEXTSTYLE0
 73
     1
 44
1.0
  0
MTEXT
  5
B6
330
1F
100
AcDbEntity
  8
0
  6
Continuous
 62
     7
370
     0
100
AcDbMText
 10
39.9600369465
 20
9.4739273576
 30
0.0
 40
3.96875
 41
0.0
 71
     2
 72
     1
  1
4
  7
SLDTEXTSTYLE0
 73
     1
 44
1.0
  0
MTEXT
  5
B7
330
1F
100
AcDbEntity
  8
0
  6
Continuous
 62
     7
370
     0
100
AcDbMText
 10
39.9600369465
 20
291.4739273576
 30
0.0
 40
3.96875
 41
0.0
 71
     2
 72
     1
  1
4
  7
SLDTEXTSTYLE0
 73
     1
 44
1.0
  0
MTEXT
  5
B8
330
1F
100
AcDbEntity
  8
0
  6
Continuous
 62
     7
370
     0
100
AcDbMText
 10
84.9600369465
 20
9.4739273576
 30
0.0
 40
3.96875
 41
0.0
 71
     2
 72
     1
  1
3
  7
SLDTEXTSTYLE0
 73
     1
 44
1.0
  0
MTEXT
  5
B9
330
1F
100
AcDbEntity
  8
0
  6
Continuous
 62
     7
370
     0
100
AcDbMText
 10
84.9600369465
 20
291.4739273576
 30
0.0
 40
3.96875
 41
0.0
 71
     2
 72
     1
  1
3
  7
SLDTEXTSTYLE0
 73
     1
 44
1.0
  0
MTEXT
  5
BA
330
1F
100
AcDbEntity
  8
0
  6
Continuous
 62
     7
370
     0
100
AcDbMText
 10
134.9600369465
 20
9.4739273576
 30
0.0
 40
3.96875
 41
0.0
 71
     2
 72
     1
  1
2
  7
SLDTEXTSTYLE0
 73
     1
 44
1.0
  0
MTEXT
  5
BB
330
1F
100
AcDbEntity
  8
0
  6
Continuous
 62
     7
370
     0
100
AcDbMText
 10
134.9600369465
 20
291.4739273576
 30
0.0
 40
3.96875
 41
0.0
 71
     2
 72
     1
  1
2
  7
SLDTEXTSTYLE0
 73
     1
 44
1.0
  0
MTEXT
  5
BC
330
1F
100
AcDbEntity
  8
0
  6
Continuous
 62
     7
370
     0
100
AcDbMText
 10
179.9600369465
 20
9.4739273576
 30
0.0
 40
3.96875
 41
0.0
 71
     2
 72
     1
  1
1
  7
SLDTEXTSTYLE0
 73
     1
 44
1.0
  0
MTEXT
  5
BD
330
1F
100
AcDbEntity
  8
0
  6
Continuous
 62
     7
370
     0
100
AcDbMText
 10
179.9600369465
 20
291.4739273576
 30
0.0
 40
3.96875
 41
0.0
 71
     2
 72
     1
  1
1
  7
SLDTEXTSTYLE0
 73
     1
 44
1.0
  0
MTEXT
  5
BF
330
1F
100
AcDbEntity
  8
0
  6
Continuous
 62
     7
370
     0
100
AcDbMText
 10
20.6433628979
 20
42.3847813173
 30
0.0
 40
1.5
 41
0.0
 71
     1
 72
     1
  1
DRAWN
  7
SLDTEXTSTYLE1
 73
     1
 44
1.0
  0
MTEXT
  5
C0
330
1F
100
AcDbEntity
  8
0
  6
Continuous
 62
     7
370
     0
100
AcDbMText
 10
20.9392221937
 20
38.1618530186
 30
0.0
 40
1.5
 41
0.0
 71
     1
 72
     1
  1
CHK'D
  7
SLDTEXTSTYLE0
 73
     1
 44
1.0
  0
MTEXT
  5
C1
330
1F
100
AcDbEntity
  8
0
  6
Continuous
 62
     7
370
     0
100
AcDbMText
 10
20.4017224083
 20
34.0658666243
 30
0.0
 40
1.5
 41
0.0
 71
     1
 72
     1
  1
APPV'D
  7
SLDTEXTSTYLE0
 73
     1
 44
1.0
  0
MTEXT
  5
C2
330
1F
100
AcDbEntity
  8
0
  6
Continuous
 62
     7
370
     0
100
AcDbMText
 10
21.1240107386
 20
29.7157844608
 30
0.0
 40
1.5
 41
0.0
 71
     1
 72
     1
  1
MFG
  7
SLDTEXTSTYLE0
 73
     1
 44
1.0
  0
MTEXT
  5
C3
330
1F
100
AcDbEntity
  8
0
  6
Continuous
 62
     7
370
     0
100
AcDbMText
 10
21.509036604
 20
25.504662132
 30
0.0
 40
1.5
 41
0.0
 71
     1
 72
     1
  1
Q.A
  7
SLDTEXTSTYLE0
 73
     1
 44
1.0
  0
INSERT
  5
CD
330
1F
100
AcDbEntity
  8
0
  6
Continuous
 62
     7
370
     0
100
AcDbBlockReference
  2
SW_NOTE_0
 10
20.5936687456
 20
61.9873698743
 30
0.0
  0
MTEXT
  5
CE
330
1F
100
AcDbEntity
  8
0
  6
Continuous
 62
     7
370
     0
100
AcDbMText
 10
54.3712921668
 20
63.9192719951
 30
0.0
 40
1.5
 41
0.0
 71
     1
 72
     1
  1
FINISH:
  7
SLDTEXTSTYLE0
 73
     1
 44
1.0
  0
INSERT
  5
D5
330
1F
100
AcDbEntity
  8
0
  6
Continuous
 62
     7
370
     0
100
AcDbBlockReference
  2
SW_NOTE_0_1
 10
101.3092156863
 20
62.069489643
 30
0.0
  0
MTEXT
  5
D6
330
1F
100
AcDbEntity
  8
0
  6
Continuous
 62
     7
370
     0
100
AcDbMText
 10
34.3222392177
 20
46.5014826335
 30
0.0
 40
1.5
 41
0.0
 71
     1
 72
     1
  1
NAME
  7
SLDTEXTSTYLE0
 73
     1
 44
1.0
  0
MTEXT
  5
D7
330
1F
100
AcDbEntity
  8
0
  6
Continuous
 62
     7
370
     0
100
AcDbMText
 10
50.0335875632
 20
46.5617563795
 30
0.0
 40
1.5
 41
0.0
 71
     1
 72
     1
  1
SIGNATURE
  7
SLDTEXTSTYLE0
 73
     1
 44
1.0
  0
MTEXT
  5
D8
330
1F
100
AcDbEntity
  8
0
  6
Continuous
 62
     7
370
     0
100
AcDbMText
 10
67.2147019657
 20
46.5761792212
 30
0.0
 40
1.5
 41
0.0
 71
     1
 72
     1
  1
DATE
  7
SLDTEXTSTYLE0
 73
     1
 44
1.0
  0
MTEXT
  5
D9
330
1F
100
AcDbEntity
  8
0
  6
Continuous
 62
     7
370
     0
100
AcDbMText
 10
75.6458623088
 20
25.9860562892
 30
0.0
 40
1.5
 41
0.0
 71
     1
 72
     1
  1
MATERIAL:
  7
SLDTEXTSTYLE0
 73
     1
 44
1.0
  0
MTEXT
  5
DA
330
1F
100
AcDbEntity
  8
0
  6
Continuous
 62
     7
370
     0
100
AcDbMText
 10
132.6146405229
 20
62.5329935751
 30
0.0
 40
1.5
 41
0.0
 71
     1
 72
     1
  1
DO NOT SCALE DRAWING
  7
SLDTEXTSTYLE0
 73
     1
 44
1.0
  0
MTEXT
  5
DB
330
1F
100
AcDbEntity
  8
0
  6
Continuous
 62
     7
370
     0
100
AcDbMText
 10
173.3275816993
 20
62.3349086805
 30
0.0
 40
1.5
 41
0.0
 71
     1
 72
     1
  1
REVISION
  7
SLDTEXTSTYLE0
 73
     1
 44
1.0
  0
MTEXT
  5
DC
330
1F
100
AcDbEntity
  8
0
  6
Continuous
 62
     7
370
     0
100
AcDbMText
 10
120.090160639
 20
46.5761792212
 30
0.0
 40
1.5
 41
0.0
 71
     1
 72
     1
  1
TITLE:
  7
SLDTEXTSTYLE0
 73
     1
 44
1.0
  0
MTEXT
  5
DD
330
1F
100
AcDbEntity
  8
0
  6
Continuous
 62
     7
370
     0
100
AcDbMText
 10
119.9530022162
 20
25.9860562892
 30
0.0
 40
1.5
 41
0.0
 71
     1
 72
     1
  1
DWG NO.
  7
SLDTEXTSTYLE0
 73
     1
 44
1.0
  0
MTEXT
  5
DE
330
1F
100
AcDbEntity
  8
0
  6
Continuous
 62
     7
370
     0
100
AcDbMText
 10
120.0739661175
 20
12.9000872745
 30
0.0
 40
1.5
 41
0.0
 71
     1
 72
     1
  1
SCALE:1:1
  7
SLDTEXTSTYLE0
 73
     1
 44
1.0
  0
MTEXT
  5
E0
330
1F
100
AcDbEntity
  8
0
  6
Continuous
 62
     7
370
     0
100
AcDbMText
 10
164.4782944278
 20
12.9000872745
 30
0.0
 40
1.5
 41
0.0
 71
     1
 72
     1
  1
SHEET 1 OF 1
  7
SLDTEXTSTYLE2
 73
     1
 44
1.0
  0
MTEXT
  5
E1
330
1F
100
AcDbEntity
  8
0
  6
Continuous
 62
     7
370
     0
100
AcDbMText
 10
190.8711564346
 20
24.406388569
 30
0.0
 40
2.9104166667
 41
0.0
 71
     1
 72
     1
  1
A4
  7
SLDTEXTSTYLE0
 73
     1
 44
1.0
  0
MTEXT
  5
E2
330
1F
100
AcDbEntity
  8
0
  6
Continuous
 62
     7
370
     0
100
AcDbMText
 10
75.6178111281
 20
12.9493119036
 30
0.0
 40
1.4986
 41
0.0
 71
     1
 72
     1
  1
WEIGHT:
  7
SLDTEXTSTYLE0
 73
     1
 44
1.0
  0
MTEXT
  5
E3
330
1F
100
AcDbEntity
  8
0
  6
Continuous
 62
     7
370
     0
100
AcDbMText
 10
37.2407971719
 20
42.3833655079
 30
0.0
 40
1.4986
 41
0.0
 71
     2
 72
     1
  1
Hoang
  7
SLDTEXTSTYLE0
 73
     1
 44
1.0
  0
MTEXT
  5
E4
330
1F
100
AcDbEntity
  8
0
  6
Continuous
 62
     7
370
     0
100
AcDbMText
 10
154.7721870943
 20
23.3244047979
 30
0.0
 40
4.7625
 41
0.0
 71
     2
 72
     1
  1
Gear Motor Bracket
  7
SLDTEXTSTYLE0
 73
     1
 44
1.0
  0
INSERT
  5
EA
330
1F
100
AcDbEntity
  8
0
  6
Continuous
 62
     7
370
     0
100
AcDbBlockReference
  2
SW_NOTE_0_2
 10
142.3008998875
 20
35.2697976021
 30
0.0
  0
LINE
  5
EB
330
1F
100
AcDbEntity
  8
0
  6
Continuous
 62
     7
370
     0
100
AcDbLine
 10
142.3008998875
 20
35.2697976021
 30
0.0
 11
146.3179458268
 21
35.7604171618
 31
0.0
  0
SOLID
  5
EC
330
1F
100
AcDbEntity
  8
0
  6
Continuous
 62
     7
370
     0
100
AcDbTrace
 10
146.3179458268
 20
35.7604171618
 30
0.0
 11
142.9787147001
 21
35.8643569644
 31
0.0
 12
143.1018879907
 22
34.8558509701
 32
0.0
 13
143.1018879907
 23
34.8558509701
 33
0.0
  0
MTEXT
  5
ED
330
1F
100
AcDbEntity
  8
0
  6
Continuous
 62
     7
370
     0
100
AcDbMText
 10
64.6886673914
 20
59.0987665182
 30
0.0
 40
3.5
 41
0.0
 71
     1
 72
     1
  1
19/10/2022
  7
SLDTEXTSTYLE0
 73
     1
 44
1.0
  0
LINE
  5
EE
330
1F
100
AcDbEntity
  8
0
  6
Continuous
 62
     7
370
    25
100
AcDbLine
 10
39.5731005917
 20
246.890591716
 30
0.0
 11
38.0731005917
 21
246.890591716
 31
0.0
  0
LINE
  5
EF
330
1F
100
AcDbEntity
  8
0
  6
Continuous
 62
     7
370
    25
100
AcDbLine
 10
39.5731005917
 20
226.890591716
 30
0.0
 11
38.0731005917
 21
226.890591716
 31
0.0
  0
LINE
  5
F0
330
1F
100
AcDbEntity
  8
0
  6
Continuous
 62
     7
370
    25
100
AcDbLine
 10
39.5731005917
 20
201.152591716
 30
0.0
 11
38.0731005917
 21
201.152591716
 31
0.0
  0
LINE
  5
F1
330
1F
100
AcDbEntity
  8
0
  6
Continuous
 62
     7
370
    25
100
AcDbLine
 10
39.5731005917
 20
226.890591716
 30
0.0
 11
39.5731005917
 21
201.152591716
 31
0.0
  0
LINE
  5
F2
330
1F
100
AcDbEntity
  8
0
  6
Continuous
 62
     7
370
    25
100
AcDbLine
 10
38.0731005917
 20
226.890591716
 30
0.0
 11
38.0731005917
 21
201.152591716
 31
0.0
  0
LINE
  5
F3
330
1F
100
AcDbEntity
  8
0
  6
Continuous
 62
     7
370
    25
100
AcDbLine
 10
39.5731005917
 20
246.890591716
 30
0.0
 11
39.5731005917
 21
226.890591716
 31
0.0
  0
LINE
  5
F4
330
1F
100
AcDbEntity
  8
0
  6
Continuous
 62
     7
370
    25
100
AcDbLine
 10
38.0731005917
 20
246.890591716
 30
0.0
 11
38.0731005917
 21
226.890591716
 31
0.0
  0
LINE
  5
F5
330
1F
100
AcDbEntity
  8
0
  6
Continuous
 62
     7
370
    25
100
AcDbLine
 10
79.0731005917
 20
200.390591716
 30
0.0
 11
79.0731005917
 21
198.890591716
 31
0.0
  0
LINE
  5
F6
330
1F
100
AcDbEntity
  8
0
  6
Continuous
 62
     7
370
    25
100
AcDbLine
 10
79.0731005917
 20
198.890591716
 30
0.0
 11
76.0731005917
 21
198.890591716
 31
0.0
  0
LINE
  5
F7
330
1F
100
AcDbEntity
  8
0
  6
Continuous
 62
     7
370
    25
100
AcDbLine
 10
76.0731005917
 20
198.890591716
 30
0.0
 11
76.0731005917
 21
200.390591716
 31
0.0
  0
LINE
  5
F8
330
1F
100
AcDbEntity
  8
0
  6
Continuous
 62
     7
370
    25
100
AcDbLine
 10
76.0731005917
 20
200.390591716
 30
0.0
 11
79.0731005917
 21
200.390591716
 31
0.0
  0
LINE
  5
F9
330
1F
100
AcDbEntity
  8
0
  6
Continuous
 62
     7
370
    25
100
AcDbLine
 10
40.3351005917
 20
200.390591716
 30
0.0
 11
40.3351005917
 21
198.890591716
 31
0.0
  0
LINE
  5
FA
330
1F
100
AcDbEntity
  8
0
  6
Continuous
 62
     7
370
    25
100
AcDbLine
 10
76.0731005917
 20
200.390591716
 30
0.0
 11
40.3351005917
 21
200.390591716
 31
0.0
  0
LINE
  5
FB
330
1F
100
AcDbEntity
  8
0
  6
Continuous
 62
     7
370
    25
100
AcDbLine
 10
76.0731005917
 20
198.890591716
 30
0.0
 11
40.3351005917
 21
198.890591716
 31
0.0
  0
ARC
  5
FC
330
1F
100
AcDbEntity
  8
0
  6
Continuous
 62
     7
370
    25
100
AcDbCircle
 10
40.3351005917
 20
201.152591716
 30
0.0
 40
0.7619999999999933
100
AcDbArc
 50
180.0
 51
270.0
  0
ARC
  5
FD
330
1F
100
AcDbEntity
  8
0
  6
Continuous
 62
     7
370
    25
100
AcDbCircle
 10
40.3351005917
 20
201.152591716
 30
0.0
 40
2.262
100
AcDbArc
 50
180.0
 51
270.0
  0
DIMENSION
  5
FE
330
1F
100
AcDbEntity
  8
0
  6
Continuous
 62
     7
370
    18
100
AcDbDimension
  2
_D
 10
40.3351005917
 20
256.890591716
 30
0.0
 11
71.288605873
 21
256.890591716
 31
0.0
 70
   160
  1
<>
 71
     2
 42
-1.0
  3
SLDDIMSTYLE0
100
AcDbAlignedDimension
 13
79.0731005917
 23
200.390591716
 33
0.0
 14
40.3351005917
 24
200.390591716
 34
0.0
100
AcDbRotatedDimension
  0
DIMENSION
  5
109
330
1F
100
AcDbEntity
  8
0
  6
Continuous
 62
     7
370
    18
100
AcDbDimension
  2
_D_1
 10
89.0731005917
 20
201.152591716
 30
0.0
 11
89.0731005917
 21
210.2744004623
 31
0.0
 70
   160
  1
<>
 71
     2
 42
-1.0
  3
SLDDIMSTYLE0
100
AcDbAlignedDimension
 13
39.5731005917
 23
246.890591716
 33
0.0
 14
39.5731005917
 24
201.152591716
 34
0.0
 50
90.0
100
AcDbRotatedDimension
  0
DIMENSION
  5
113
330
1F
100
AcDbEntity
  8
0
  6
Continuous
 62
     7
370
    18
100
AcDbDimension
  2
_D_2
 10
79.0731005917
 20
193.960560973
 30
0.0
 11
78.5379151887
 21
193.960560973
 31
0.0
 70
   160
  1
<>
 71
     2
 42
-1.0
  3
SLDDIMSTYLE1
100
AcDbAlignedDimension
 13
76.0731005917
 23
198.890591716
 33
0.0
 14
79.0731005917
 24
198.890591716
 34
0.0
100
AcDbRotatedDimension
  0
DIMENSION
  5
120
330
1F
100
AcDbEntity
  8
0
  6
Continuous
 62
     7
370
    18
100
AcDbDimension
  2
_D_3
 10
95.0649468017
 20
198.890591716
 30
0.0
 11
95.0649468017
 21
199.0922420217
 31
0.0
 70
   160
  1
<>
 71
     2
 42
-1.0
  3
SLDDIMSTYLE1
100
AcDbAlignedDimension
 13
79.0731005917
 23
200.390591716
 33
0.0
 14
79.0731005917
 24
198.890591716
 34
0.0
 50
90.0
100
AcDbRotatedDimension
  0
DIMENSION
  5
12C
330
1F
100
AcDbEntity
  8
0
  6
Continuous
 62
     7
370
    18
100
AcDbDimension
  2
_D_4
 10
40.3351005917
 20
201.152591716
 30
0.0
 11
34.8054374274
 21
195.4019696205
 31
0.0
 70
   164
  1
<>
 71
     1
 42
-1.0
  3
SLDDIMSTYLE2
100
AcDbRadialDimension
 15
38.7672563786
 25
199.5220983785
 35
0.0
 40
0.0
  0
DIMENSION
  5
135
330
1F
100
AcDbEntity
  8
0
  6
Continuous
 62
     7
370
    18
100
AcDbDimension
  2
_D_5
 10
22.886041669
 20
246.890591716
 30
0.0
 11
22.886041669
 21
244.2817649646
 31
0.0
 70
   160
  1
<>
 71
     2
 42
-1.0
  3
SLDDIMSTYLE1
100
AcDbAlignedDimension
 13
38.0731005917
 23
226.890591716
 33
0.0
 14
38.0731005917
 24
246.890591716
 34
0.0
 50
90.0
100
AcDbRotatedDimension
  0
LINE
  5
141
330
1F
100
AcDbEntity
  8
0
  6
Continuous
 62
     7
370
    25
100
AcDbLine
 10
179.3140946746
 20
200.390591716
 30
0.0
 11
179.3140946746
 21
198.890591716
 31
0.0
  0
LINE
  5
142
330
1F
100
AcDbEntity
  8
0
  6
Continuous
 62
     7
370
    25
100
AcDbLine
 10
179.3140946746
 20
198.890591716
 30
0.0
 11
176.3140946746
 21
198.890591716
 31
0.0
  0
LINE
  5
143
330
1F
100
AcDbEntity
  8
0
  6
Continuous
 62
     7
370
    25
100
AcDbLine
 10
176.3140946746
 20
198.890591716
 30
0.0
 11
176.3140946746
 21
200.390591716
 31
0.0
  0
LINE
  5
144
330
1F
100
AcDbEntity
  8
0
  6
Continuous
 62
     7
370
    25
100
AcDbLine
 10
176.3140946746
 20
200.390591716
 30
0.0
 11
179.3140946746
 21
200.390591716
 31
0.0
  0
LINE
  5
145
330
1F
100
AcDbEntity
  8
0
  6
Continuous
 62
     7
370
    25
100
AcDbLine
 10
142.3140946746
 20
200.390591716
 30
0.0
 11
142.3140946746
 21
198.890591716
 31
0.0
  0
LINE
  5
146
330
1F
100
AcDbEntity
  8
0
  6
Continuous
 62
     7
370
    25
100
AcDbLine
 10
176.3140946746
 20
200.390591716
 30
0.0
 11
142.3140946746
 21
200.390591716
 31
0.0
  0
LINE
  5
147
330
1F
100
AcDbEntity
  8
0
  6
Continuous
 62
     7
370
    25
100
AcDbLine
 10
176.3140946746
 20
198.890591716
 30
0.0
 11
142.3140946746
 21
198.890591716
 31
0.0
  0
LINE
  5
148
330
1F
100
AcDbEntity
  8
0
  6
Continuous
 62
     7
370
    25
100
AcDbLine
 10
139.3140946746
 20
198.890591716
 30
0.0
 11
139.3140946746
 21
200.390591716
 31
0.0
  0
LINE
  5
149
330
1F
100
AcDbEntity
  8
0
  6
Continuous
 62
     7
370
    25
100
AcDbLine
 10
139.3140946746
 20
200.390591716
 30
0.0
 11
142.3140946746
 21
200.390591716
 31
0.0
  0
LINE
  5
14A
330
1F
100
AcDbEntity
  8
0
  6
Continuous
 62
     7
370
    25
100
AcDbLine
 10
142.3140946746
 20
198.890591716
 30
0.0
 11
139.3140946746
 21
198.890591716
 31
0.0
  0
LINE
  5
14B
330
1F
100
AcDbEntity
  8
0
  6
Continuous
 62
     7
370
    25
100
AcDbLine
 10
179.3140946746
 20
201.152591716
 30
0.0
 11
139.3140946746
 21
201.152591716
 31
0.0
  0
LINE
  5
14C
330
1F
100
AcDbEntity
  8
0
  6
Continuous
 62
     7
370
    25
100
AcDbLine
 10
139.3140946746
 20
200.390591716
 30
0.0
 11
139.3140946746
 21
201.152591716
 31
0.0
  0
LINE
  5
14D
330
1F
100
AcDbEntity
  8
0
  6
Continuous
 62
     7
370
    25
100
AcDbLine
 10
179.3140946746
 20
201.152591716
 30
0.0
 11
179.3140946746
 21
200.390591716
 31
0.0
  0
LINE
  5
14E
330
1F
100
AcDbEntity
  8
0
  6
Continuous
 62
     7
370
    25
100
AcDbLine
 10
139.3140946746
 20
226.890591716
 30
0.0
 11
139.3140946746
 21
201.152591716
 31
0.0
  0
ARC
  5
14F
330
1F
100
AcDbEntity
  8
0
  6
Continuous
 62
     7
370
    25
100
AcDbCircle
 10
159.3140946746
 20
226.890591716
 30
0.0
 40
20.00000000000003
100
AcDbArc
 50
0.0
 51
180.0
  0
LINE
  5
150
330
1F
100
AcDbEntity
  8
0
  6
Continuous
 62
     7
370
    25
100
AcDbLine
 10
179.3140946746
 20
201.152591716
 30
0.0
 11
179.3140946746
 21
226.890591716
 31
0.0
  0
CIRCLE
  5
151
330
1F
100
AcDbEntity
  8
0
  6
Continuous
 62
     7
370
    25
100
AcDbCircle
 10
174.8140946746
 20
226.890591716
 30
0.0
 40
1.599999999999966
  0
CIRCLE
  5
152
330
1F
100
AcDbEntity
  8
0
  6
Continuous
 62
     7
370
    25
100
AcDbCircle
 10
167.0640946746
 20
240.3139854746
 30
0.0
 40
1.599999999999994
  0
CIRCLE
  5
153
330
1F
100
AcDbEntity
  8
0
  6
Continuous
 62
     7
370
    25
100
AcDbCircle
 10
151.5640946746
 20
240.3139854746
 30
0.0
 40
1.599999999999994
  0
CIRCLE
  5
154
330
1F
100
AcDbEntity
  8
0
  6
Continuous
 62
     7
370
    25
100
AcDbCircle
 10
143.8140946746
 20
226.890591716
 30
0.0
 40
1.599999999999966
  0
CIRCLE
  5
155
330
1F
100
AcDbEntity
  8
0
  6
Continuous
 62
     7
370
    25
100
AcDbCircle
 10
151.5640946746
 20
213.4671979573
 30
0.0
 40
1.599999999999994
  0
CIRCLE
  5
156
330
1F
100
AcDbEntity
  8
0
  6
Continuous
 62
     7
370
    25
100
AcDbCircle
 10
167.0640946746
 20
213.4671979573
 30
0.0
 40
1.599999999999994
  0
LINE
  5
157
330
1F
100
AcDbEntity
  8
0
  6
Continuous
 62
     7
370
    25
100
AcDbLine
 10
152.8140946746
 20
233.890591716
 30
0.0
 11
152.8140946746
 21
219.890591716
 31
0.0
  0
ARC
  5
158
330
1F
100
AcDbEntity
  8
0
  6
Continuous
 62
     7
370
    25
100
AcDbCircle
 10
159.3140946746
 20
219.890591716
 30
0.0
 40
6.5
100
AcDbArc
 50
180.0
 51
0.0
  0
LINE
  5
159
330
1F
100
AcDbEntity
  8
0
  6
Continuous
 62
     7
370
    25
100
AcDbLine
 10
165.8140946746
 20
219.890591716
 30
0.0
 11
165.8140946746
 21
233.890591716
 31
0.0
  0
ARC
  5
15A
330
1F
100
AcDbEntity
  8
0
  6
Continuous
 62
     7
370
    25
100
AcDbCircle
 10
159.3140946746
 20
233.890591716
 30
0.0
 40
6.5
100
AcDbArc
 50
0.0
 51
180.0
  0
DIMENSION
  5
15B
330
1F
100
AcDbEntity
  8
0
  6
Continuous
 62
     7
370
    18
100
AcDbDimension
  2
_D_6
 10
192.7722941152
 20
233.890591716
 30
0.0
 11
192.7722941152
 21
228.863495682
 31
0.0
 70
   160
  1
<>
 71
     2
 42
-1.0
  3
SLDDIMSTYLE1
100
AcDbAlignedDimension
 13
165.8140946746
 23
219.890591716
 33
0.0
 14
165.8140946746
 24
233.890591716
 34
0.0
 50
90.0
100
AcDbRotatedDimension
  0
DIMENSION
  5
167
330
1F
100
AcDbEntity
  8
0
  6
Continuous
 62
     7
370
    18
100
AcDbDimension
  2
_D_7
 10
159.3140946746
 20
233.890591716
 30
0.0
 11
165.2476089001
 21
256.0347409526
 31
0.0
 70
   164
  1
<>
 71
     1
 42
-1.0
  3
SLDDIMSTYLE3
100
AcDbRadialDimension
 15
160.9964184677
 25
240.1691095869
 35
0.0
 40
0.0
  0
DIMENSION
  5
170
330
1F
100
AcDbEntity
  8
0
  6
Continuous
 62
     7
370
    18
100
AcDbDimension
  2
_D_8
 10
159.3140946746
 20
226.890591716
 30
0.0
 11
197.5430436839
 21
246.4051480962
 31
0.0
 70
   164
  1
<>
 71
     1
 42
-1.0
  3
SLDDIMSTYLE3
100
AcDbRadialDimension
 15
177.1274480482
 25
235.9836902849
 35
0.0
 40
0.0
  0
DIMENSION
  5
178
330
1F
100
AcDbEntity
  8
0
  6
Continuous
 62
     7
370
    18
100
AcDbDimension
  2
_D_9
 10
142.3140946746
 20
187.5502266342
 30
0.0
 11
170.064278033
 21
187.5502266342
 31
0.0
 70
   160
  1
<>
 71
     2
 42
-1.0
  3
SLDDIMSTYLE4
100
AcDbAlignedDimension
 13
176.3140946746
 23
198.890591716
 33
0.0
 14
142.3140946746
 24
198.890591716
 34
0.0
100
AcDbRotatedDimension
  0
DIMENSION
  5
183
330
1F
100
AcDbEntity
  8
0
  6
Continuous
 62
     7
370
    18
100
AcDbDimension
  2
_D_10
 10
179.3140946746
 20
181.2521418258
 30
0.0
 11
171.7437673152
 21
181.2521418258
 31
0.0
 70
   160
  1
<>
 71
     2
 42
-1.0
  3
SLDDIMSTYLE4
100
AcDbAlignedDimension
 13
139.3140946746
 23
200.390591716
 33
0.0
 14
179.3140946746
 24
200.390591716
 34
0.0
100
AcDbRotatedDimension
  0
DIMENSION
  5
18D
330
1F
100
AcDbEntity
  8
0
  6
Continuous
 62
     7
370
    18
100
AcDbDimension
  2
_D_11
 10
192.7722941152
 20
201.152591716
 30
0.0
 11
192.7722941152
 21
200.5662685717
 31
0.0
 70
   160
  1
<>
 71
     2
 42
-1.0
  3
SLDDIMSTYLE5
100
AcDbAlignedDimension
 13
176.3140946746
 23
200.390591716
 33
0.0
 14
179.3140946746
 24
201.152591716
 34
0.0
 50
90.0
100
AcDbRotatedDimension
  0
DIMENSION
  5
19A
330
1F
100
AcDbEntity
  8
0
  6
Continuous
 62
     7
370
    18
100
AcDbDimension
  2
_D_12
 10
142.3140946746
 20
193.0085668015
 30
0.0
 11
141.6179283149
 21
193.0085668015
 31
0.0
 70
   160
  1
<>
 71
     2
 42
-1.0
  3
SLDDIMSTYLE1
100
AcDbAlignedDimension
 13
139.3140946746
 23
200.390591716
 33
0.0
 14
142.3140946746
 24
200.390591716
 34
0.0
100
AcDbRotatedDimension
  0
DIMENSION
  5
1A6
330
1F
100
AcDbEntity
  8
0
  6
Continuous
 62
     7
370
    18
100
AcDbDimension
  2
_D_13
 10
143.8140946746
 20
220.8908803886
 30
0.0
 11
137.5779381217
 21
220.8908803886
 31
0.0
 70
   160
  1
<>
 71
     2
 42
-1.0
  3
SLDDIMSTYLE4
100
AcDbAlignedDimension
 13
152.8140946746
 23
219.890591716
 33
0.0
 14
143.8140946746
 24
226.890591716
 34
0.0
100
AcDbRotatedDimension
  0
DIMENSION
  5
1B0
330
1F
100
AcDbEntity
  8
0
  6
Continuous
 62
     7
370
    18
100
AcDbDimension
  2
_D_14
 10
121.530466263
 20
226.890591716
 30
0.0
 11
121.530466263
 21
219.284365703
 31
0.0
 70
   160
  1
<>
 71
     2
 42
-1.0
  3
SLDDIMSTYLE6
100
AcDbAlignedDimension
 13
151.5640946746
 23
213.4671979573
 33
0.0
 14
143.8140946746
 24
226.890591716
 34
0.0
 50
90.0
100
AcDbRotatedDimension
  0
DIMENSION
  5
1BD
330
1F
100
AcDbEntity
  8
0
  6
Continuous
 62
     7
370
    18
100
AcDbDimension
  2
_D_15
 10
159.3140946746
 20
226.890591716
 30
0.0
 11
142.7172151099
 21
251.1736939673
 31
0.0
 70
   164
  1
<>
 71
     1
 42
-1.0
  3
SLDDIMSTYLE3
100
AcDbRadialDimension
 15
150.5679049725
 25
239.6872383742
 35
0.0
 40
0.0
  0
INSERT
  5
1FB
330
1F
100
AcDbEntity
  8
0
  6
Continuous
 62
     7
370
     0
100
AcDbBlockReference
  2
SW_CENTERMARKSYMBOL_0
 10
167.0640946746
 20
240.3139854746
 30
0.0
  0
LINE
  5
1FC
330
1F
100
AcDbEntity
  8
0
  6
Continuous
 62
     7
370
    25
100
AcDbLine
 10
40.3351005917
 20
154.697408284
 30
0.0
 11
40.3351005917
 21
114.697408284
 31
0.0
  0
LINE
  5
1FD
330
1F
100
AcDbEntity
  8
0
  6
Continuous
 62
     7
370
    25
100
AcDbLine
 10
38.0731005917
 20
114.697408284
 30
0.0
 11
40.3351005917
 21
114.697408284
 31
0.0
  0
LINE
  5
1FE
330
1F
100
AcDbEntity
  8
0
  6
Continuous
 62
     7
370
    25
100
AcDbLine
 10
38.0731005917
 20
114.697408284
 30
0.0
 11
38.0731005917
 21
154.697408284
 31
0.0
  0
LINE
  5
1FF
330
1F
100
AcDbEntity
  8
0
  6
Continuous
 62
     7
370
    25
100
AcDbLine
 10
40.3351005917
 20
154.697408284
 30
0.0
 11
38.0731005917
 21
154.697408284
 31
0.0
  0
LINE
  5
200
330
1F
100
AcDbEntity
  8
0
  6
Continuous
 62
     7
370
    25
100
AcDbLine
 10
76.0731005917
 20
154.697408284
 30
0.0
 11
40.3351005917
 21
154.697408284
 31
0.0
  0
ARC
  5
201
330
1F
100
AcDbEntity
  8
0
  6
Continuous
 62
     7
370
    25
100
AcDbCircle
 10
76.0731005917
 20
151.697408284
 30
0.0
 40
3.0
100
AcDbArc
 50
0.0
 51
90.0
  0
LINE
  5
202
330
1F
100
AcDbEntity
  8
0
  6
Continuous
 62
     7
370
    25
100
AcDbLine
 10
79.0731005917
 20
117.697408284
 30
0.0
 11
79.0731005917
 21
151.697408284
 31
0.0
  0
ARC
  5
203
330
1F
100
AcDbEntity
  8
0
  6
Continuous
 62
     7
370
    25
100
AcDbCircle
 10
76.0731005917
 20
117.697408284
 30
0.0
 40
3.0
100
AcDbArc
 50
270.0
 51
0.0
  0
CIRCLE
  5
204
330
1F
100
AcDbEntity
  8
0
  6
Continuous
 62
     7
370
    25
100
AcDbCircle
 10
71.0731005917
 20
119.697408284
 30
0.0
 40
1.700000000000017
  0
CIRCLE
  5
205
330
1F
100
AcDbEntity
  8
0
  6
Continuous
 62
     7
370
    25
100
AcDbCircle
 10
71.0731005917
 20
149.697408284
 30
0.0
 40
1.699999999999989
  0
CIRCLE
  5
206
330
1F
100
AcDbEntity
  8
0
  6
Continuous
 62
     7
370
    25
100
AcDbCircle
 10
47.0731005917
 20
149.697408284
 30
0.0
 40
1.699999999999989
  0
CIRCLE
  5
207
330
1F
100
AcDbEntity
  8
0
  6
Continuous
 62
     7
370
    25
100
AcDbCircle
 10
47.0731005917
 20
119.697408284
 30
0.0
 40
1.700000000000017
  0
LINE
  5
208
330
1F
100
AcDbEntity
  8
0
  6
Continuous
 62
     7
370
    25
100
AcDbLine
 10
76.0731005917
 20
114.697408284
 30
0.0
 11
40.3351005917
 21
114.697408284
 31
0.0
  0
DIMENSION
  5
209
330
1F
100
AcDbEntity
  8
0
  6
Continuous
 62
     7
370
    18
100
AcDbDimension
  2
_D_16
 10
47.0731005917
 20
110.5968685711
 30
0.0
 11
53.5935148227
 21
110.5968685711
 31
0.0
 70
   160
  1
<>
 71
     2
 42
-1.0
  3
SLDDIMSTYLE1
100
AcDbAlignedDimension
 13
71.0731005917
 23
115.497408284
 33
0.0
 14
47.0731005917
 24
115.497408284
 34
0.0
100
AcDbRotatedDimension
  0
DIMENSION
  5
215
330
1F
100
AcDbEntity
  8
0
  6
Continuous
 62
     7
370
    18
100
AcDbDimension
  2
_D_17
 10
76.0731005917
 20
117.697408284
 30
0.0
 11
85.3325273048
 21
116.0935773249
 31
0.0
 70
   164
  1
<>
 71
     1
 42
-1.0
  3
SLDDIMSTYLE3
100
AcDbRadialDimension
 15
79.0290850473
 25
117.1853966648
 35
0.0
 40
0.0
  0
DIMENSION
  5
21D
330
1F
100
AcDbEntity
  8
0
  6
Continuous
 62
     7
370
    18
100
AcDbDimension
  2
_D_18
 10
93.1627313538
 20
151.697408284
 30
0.0
 11
93.1627313538
 21
132.3113323065
 31
0.0
 70
   160
  1
<>
 71
     2
 42
-1.0
  3
SLDDIMSTYLE4
100
AcDbAlignedDimension
 13
79.0731005917
 23
117.697408284
 33
0.0
 14
79.0731005917
 24
151.697408284
 34
0.0
 50
90.0
100
AcDbRotatedDimension
  0
DIMENSION
  5
227
330
1F
100
AcDbEntity
  8
0
  6
Continuous
 62
     7
370
    18
100
AcDbDimension
  2
_D_19
 10
38.0731005917
 20
159.7767259789
 30
0.0
 11
71.1021741873
 21
159.7767259789
 31
0.0
 70
   160
  1
<>
 71
     2
 42
-1.0
  3
SLDDIMSTYLE4
100
AcDbAlignedDimension
 13
76.0731005917
 23
154.697408284
 33
0.0
 14
38.0731005917
 24
154.697408284
 34
0.0
100
AcDbRotatedDimension
  0
DIMENSION
  5
231
330
1F
100
AcDbEntity
  8
0
  6
Continuous
 62
     7
370
    18
100
AcDbDimension
  2
_D_20
 10
32.9374102891
 20
154.697408284
 30
0.0
 11
32.9374102891
 21
140.9149496015
 31
0.0
 70
   160
  1
<>
 71
     2
 42
-1.0
  3
SLDDIMSTYLE4
100
AcDbAlignedDimension
 13
38.0731005917
 23
114.697408284
 33
0.0
 14
38.0731005917
 24
154.697408284
 34
0.0
 50
90.0
100
AcDbRotatedDimension
  0
DIMENSION
  5
23B
330
1F
100
AcDbEntity
  8
0
  6
Continuous
 62
     7
370
    18
100
AcDbDimension
  2
_D_21
 10
44.440525584
 20
149.697408284
 30
0.0
 11
44.440525584
 21
134.8887386409
 31
0.0
 70
   160
  1
<>
 71
     2
 42
-1.0
  3
SLDDIMSTYLE4
100
AcDbAlignedDimension
 13
42.8731005917
 23
119.697408284
 33
0.0
 14
42.8731005917
 24
149.697408284
 34
0.0
 50
90.0
100
AcDbRotatedDimension
  0
INSERT
  5
255
330
1F
100
AcDbEntity
  8
0
  6
Continuous
 62
     7
370
     0
100
AcDbBlockReference
  2
SW_CENTERMARKSYMBOL_1
 10
47.0731005917
 20
149.697408284
 30
0.0
  0
INSERT
  5
268
330
1F
100
AcDbEntity
  8
0
  6
Continuous
 62
     7
370
     0
100
AcDbBlockReference
  2
SW_CENTERMARKSYMBOL_2
 10
47.0731005917
 20
119.697408284
 30
0.0
  0
LINE
  5
269
330
1F
100
AcDbEntity
  8
0
  6
Continuous
 62
     7
370
    25
100
AcDbLine
 10
190.6528762586
 20
124.2672527202
 30
0.0
 11
190.6528762586
 21
125.492063938
 31
0.0
  0
LINE
  5
26A
330
1F
100
AcDbEntity
  8
0
  6
Continuous
 62
     7
370
    25
100
AcDbLine
 10
135.0884351221
 20
124.6704190286
 30
0.0
 11
163.3727063695
 21
108.3422567921
 31
0.0
  0
LINE
  5
26B
330
1F
100
AcDbEntity
  8
0
  6
Continuous
 62
     7
370
    25
100
AcDbLine
 10
139.8234761388
 20
156.4913936104
 30
0.0
 11
138.762815967
 21
155.8790875265
 31
0.0
  0
LINE
  5
26C
330
1F
100
AcDbEntity
  8
0
  6
Continuous
 62
     7
370
    25
100
AcDbLine
 10
165.7325660418
 20
140.5956140068
 30
0.0
 11
165.7325660418
 21
139.3708027889
 31
0.0
  0
ARC
  5
26D
330
1F
100
AcDbEntity
  8
0
  6
Continuous
 62
     7
370
    25
100
AcDbCircle
 10
163.6112456983
 20
135.2766695341
 30
0.0
 40
4.611065723735225
100
AcDbArc
 50
62.6096722366
 51
117.3903277634
  0
LINE
  5
26E
330
1F
100
AcDbEntity
  8
0
  6
Continuous
 62
     7
370
    25
100
AcDbLine
 10
161.4899253547
 20
139.3708027889
 30
0.0
 11
161.4899253547
 21
140.5956140068
 31
0.0
  0
ARC
  5
26F
330
1F
100
AcDbEntity
  8
0
  6
Continuous
 62
     7
370
    25
100
AcDbCircle
 10
163.6112456983
 20
136.5014807519
 30
0.0
 40
4.611065723735276
100
AcDbArc
 50
62.6096722366
 51
117.3903277634
  0
LINE
  5
270
330
1F
100
AcDbEntity
  8
0
  6
Continuous
 62
     7
370
    25
100
AcDbLine
 10
136.2193432087
 20
124.7824062388
 30
0.0
 11
164.5036144561
 21
108.4542440023
 31
0.0
  0
LINE
  5
271
330
1F
100
AcDbEntity
  8
0
  6
Continuous
 62
     7
370
    25
100
AcDbLine
 10
161.4899253547
 20
139.3708027889
 30
0.0
 11
136.2193432087
 21
124.7824062388
 31
0.0
  0
LINE
  5
272
330
1F
100
AcDbEntity
  8
0
  6
Continuous
 62
     7
370
    25
100
AcDbLine
 10
189.7741966022
 20
125.4918648879
 30
0.0
 11
165.7325660418
 21
139.3708027889
 31
0.0
  0
ARC
  5
273
330
1F
100
AcDbEntity
  8
0
  6
Continuous
 62
     7
370
    25
100
AcDbCircle
 10
189.3094155218
 20
124.2672527202
 30
0.0
 40
1.30984595050284
100
AcDbArc
 50
290.7834207995
 51
69.2165792005
  0
LINE
  5
274
330
1F
100
AcDbEntity
  8
0
  6
Continuous
 62
     7
370
    25
100
AcDbLine
 10
189.7741966022
 20
123.0426405525
 30
0.0
 11
164.5036144561
 21
108.4542440023
 31
0.0
  0
LWPOLYLINE
  5
275
330
1F
100
AcDbEntity
  8
0
  6
Continuous
 62
     7
370
    25
100
AcDbPolyline
 90
       37
 70
   128
 43
0.0
 10
181.5010472623
 20
123.7365874475
 10
181.7280488485
 20
123.8465474486
 10
181.9846777454
 20
123.9320811455
 10
182.2631364136
 20
123.99058964
 10
182.5549640277
 20
124.0202951812
 10
182.851293553
 20
124.0202951812
 10
183.143121167
 20
123.99058964
 10
183.4215798353
 20
123.9320811455
 10
183.6782087321
 20
123.8465474486
 10
183.9052103183
 20
123.7365874475
 10
184.0956872656
 20
123.6055422212
 10
184.2438520283
 20
123.4573935125
 10
184.345202695
 20
123.2966427449
 10
184.3966597771
 20
123.1281742493
 10
184.3966597771
 20
122.9571068556
 10
184.345202695
 20
122.78863836
 10
184.2438520283
 20
122.6278875925
 10
184.0956872656
 20
122.4797388838
 10
183.9052103183
 20
122.3486936574
 10
183.6782087321
 20
122.2387336563
 10
183.4215798353
 20
122.1531999595
 10
183.143121167
 20
122.094691465
 10
182.851293553
 20
122.0649859238
 10
182.5549640277
 20
122.0649859238
 10
182.2631364136
 20
122.094691465
 10
181.9846777454
 20
122.1531999595
 10
181.7280488485
 20
122.2387336563
 10
181.5010472623
 20
122.3486936574
 10
181.310570315
 20
122.4797388838
 10
181.1624055524
 20
122.6278875925
 10
181.0610548856
 20
122.78863836
 10
181.0095978036
 20
122.9571068556
 10
181.0095978036
 20
123.1281742493
 10
181.0610548856
 20
123.2966427449
 10
181.1624055524
 20
123.4573935125
 10
181.310570315
 20
123.6055422212
 10
181.5010472623
 20
123.7365874475
  0
LWPOLYLINE
  5
276
330
1F
100
AcDbEntity
  8
0
  6
Continuous
 62
     7
370
    25
100
AcDbPolyline
 90
       37
 70
   128
 43
0.0
 10
160.2878438267
 20
135.9827091249
 10
160.5148454129
 20
136.092669126
 10
160.7714743098
 20
136.1782028228
 10
161.0499329781
 20
136.2367113173
 10
161.3417605921
 20
136.2664168585
 10
161.6380901174
 20
136.2664168585
 10
161.9299177314
 20
136.2367113173
 10
162.2083763997
 20
136.1782028228
 10
162.4650052965
 20
136.092669126
 10
162.6920068827
 20
135.9827091249
 10
162.88248383
 20
135.8516638985
 10
163.0306485927
 20
135.7035151898
 10
163.1319992594
 20
135.5427644223
 10
163.1834563415
 20
135.3742959267
 10
163.1834563415
 20
135.203228533
 10
163.1319992594
 20
135.0347600374
 10
163.0306485927
 20
134.8740092698
 10
162.88248383
 20
134.7258605611
 10
162.6920068827
 20
134.5948153348
 10
162.4650052965
 20
134.4848553337
 10
162.2083763997
 20
134.3993216368
 10
161.9299177314
 20
134.3408131423
 10
161.6380901174
 20
134.3111076011
 10
161.3417605921
 20
134.3111076011
 10
161.0499329781
 20
134.3408131423
 10
160.7714743098
 20
134.3993216368
 10
160.5148454129
 20
134.4848553337
 10
160.2878438267
 20
134.5948153348
 10
160.0973668794
 20
134.7258605611
 10
159.9492021168
 20
134.8740092698
 10
159.84785145
 20
135.0347600374
 10
159.796394368
 20
135.203228533
 10
159.796394368
 20
135.3742959267
 10
159.84785145
 20
135.5427644223
 10
159.9492021168
 20
135.7035151898
 10
160.0973668794
 20
135.8516638985
 10
160.2878438267
 20
135.9827091249
  0
LWPOLYLINE
  5
277
330
1F
100
AcDbEntity
  8
0
  6
Continuous
 62
     7
370
    25
100
AcDbPolyline
 90
       37
 70
   128
 43
0.0
 10
143.3172810782
 20
126.185811783
 10
143.5442826645
 20
126.2957717841
 10
143.8009115613
 20
126.3813054809
 10
144.0793702296
 20
126.4398139755
 10
144.3711978436
 20
126.4695195166
 10
144.6675273689
 20
126.4695195166
 10
144.9593549829
 20
126.4398139755
 10
145.2378136512
 20
126.3813054809
 10
145.494442548
 20
126.2957717841
 10
145.7214441343
 20
126.185811783
 10
145.9119210815
 20
126.0547665566
 10
146.0600858442
 20
125.9066178479
 10
146.1614365109
 20
125.7458670804
 10
146.212893593
 20
125.5773985848
 10
146.212893593
 20
125.4063311911
 10
146.1614365109
 20
125.2378626955
 10
146.0600858442
 20
125.077111928
 10
145.9119210815
 20
124.9289632192
 10
145.7214441343
 20
124.7979179929
 10
145.494442548
 20
124.6879579918
 10
145.2378136512
 20
124.6024242949
 10
144.9593549829
 20
124.5439158004
 10
144.6675273689
 20
124.5142102593
 10
144.3711978436
 20
124.5142102593
 10
144.0793702296
 20
124.5439158004
 10
143.8009115613
 20
124.6024242949
 10
143.5442826645
 20
124.6879579918
 10
143.3172810782
 20
124.7979179929
 10
143.126804131
 20
124.9289632192
 10
142.9786393683
 20
125.077111928
 10
142.8772887016
 20
125.2378626955
 10
142.8258316195
 20
125.4063311911
 10
142.8258316195
 20
125.5773985848
 10
142.8772887016
 20
125.7458670804
 10
142.9786393683
 20
125.9066178479
 10
143.126804131
 20
126.0547665566
 10
143.3172810782
 20
126.185811783
  0
LWPOLYLINE
  5
278
330
1F
100
AcDbEntity
  8
0
  6
Continuous
 62
     7
370
    25
100
AcDbPolyline
 90
       37
 70
   128
 43
0.0
 10
164.5304845138
 20
113.9396901057
 10
164.7574861
 20
114.0496501068
 10
165.0141149969
 20
114.1351838036
 10
165.2925736652
 20
114.1936922981
 10
165.5844012792
 20
114.2233978393
 10
165.8807308045
 20
114.2233978393
 10
166.1725584185
 20
114.1936922981
 10
166.4510170868
 20
114.1351838036
 10
166.7076459836
 20
114.0496501068
 10
166.9346475699
 20
113.9396901057
 10
167.1251245171
 20
113.8086448793
 10
167.2732892798
 20
113.6604961706
 10
167.3746399465
 20
113.4997454031
 10
167.4260970286
 20
113.3312769075
 10
167.4260970286
 20
113.1602095138
 10
167.3746399465
 20
112.9917410181
 10
167.2732892798
 20
112.8309902506
 10
167.1251245171
 20
112.6828415419
 10
166.9346475699
 20
112.5517963156
 10
166.7076459836
 20
112.4418363145
 10
166.4510170868
 20
112.3563026176
 10
166.1725584185
 20
112.2977941231
 10
165.8807308045
 20
112.2680885819
 10
165.5844012792
 20
112.2680885819
 10
165.2925736652
 20
112.2977941231
 10
165.0141149969
 20
112.3563026176
 10
164.7574861
 20
112.4418363145
 10
164.5304845138
 20
112.5517963156
 10
164.3400075666
 20
112.6828415419
 10
164.1918428039
 20
112.8309902506
 10
164.0904921372
 20
112.9917410181
 10
164.0390350551
 20
113.1602095138
 10
164.0390350551
 20
113.3312769075
 10
164.0904921372
 20
113.4997454031
 10
164.1918428039
 20
113.6604961706
 10
164.3400075666
 20
113.8086448793
 10
164.5304845138
 20
113.9396901057
  0
LINE
  5
279
330
1F
100
AcDbEntity
  8
0
  6
Continuous
 62
     7
370
    25
100
AcDbLine
 10
189.7741966022
 20
125.4918648879
 30
0.0
 11
189.7741966022
 21
126.7166761058
 31
0.0
  0
LINE
  5
27A
330
1F
100
AcDbEntity
  8
0
  6
Continuous
 62
     7
370
    25
100
AcDbLine
 10
189.7741966022
 20
126.7166761058
 30
0.0
 11
165.7325660418
 21
140.5956140068
 31
0.0
  0
LINE
  5
27B
330
1F
100
AcDbEntity
  8
0
  6
Continuous
 62
     7
370
    25
100
AcDbLine
 10
136.2193432087
 20
126.0072174566
 30
0.0
 11
136.2193432087
 21
124.7824062388
 31
0.0
  0
LINE
  5
27C
330
1F
100
AcDbEntity
  8
0
  6
Continuous
 62
     7
370
    25
100
AcDbLine
 10
161.4899253547
 20
140.5956140068
 30
0.0
 11
136.2193432087
 21
126.0072174566
 31
0.0
  0
ARC
  5
27D
330
1F
100
AcDbEntity
  8
0
  6
Continuous
 62
     7
370
    25
100
AcDbCircle
 10
161.4899253547
 20
138.0168016502
 30
0.0
 40
2.498107418888986
100
AcDbArc
 50
237.8755039218
 51
302.1244960782
  0
ARC
  5
27E
330
1F
100
AcDbEntity
  8
0
  6
Continuous
 62
     7
370
    25
100
AcDbCircle
 10
144.5193626062
 20
128.2199043083
 30
0.0
 40
2.498107418889028
100
AcDbArc
 50
237.8755039218
 51
302.1244960782
  0
ARC
  5
27F
330
1F
100
AcDbEntity
  8
0
  6
Continuous
 62
     7
370
    25
100
AcDbCircle
 10
189.1450327658
 20
125.3377008203
 30
0.0
 40
1.515724239711971
100
AcDbArc
 50
5.8452026488
 51
65.4749383088
  0
LWPOLYLINE
  5
280
330
1F
100
AcDbEntity
  8
0
  6
Continuous
 62
     7
370
    25
100
AcDbPolyline
 90
       11
 70
   128
 43
0.0
 10
136.2193432087
 20
124.7824062388
 10
135.9691301084
 20
124.6607011141
 10
135.725078085
 20
124.5874724204
 10
135.4931965094
 20
124.5645232913
 10
135.2791950754
 20
124.5924188105
 10
135.0883432087
 20
124.6704720976
 10
134.9253403155
 20
124.7967612218
 10
134.7942000681
 20
124.9681765257
 10
134.6981515746
 20
125.1804971955
 10
134.6395598677
 20
125.4284951918
 10
134.6198676696
 20
125.7060639808
  0
LINE
  5
281
330
1F
100
AcDbEntity
  8
0
  6
Continuous
 62
     7
370
    25
100
AcDbLine
 10
135.6805278414
 20
126.3183700647
 30
0.0
 11
134.6198676696
 21
125.7060639808
 31
0.0
  0
ARC
  5
282
330
1F
100
AcDbEntity
  8
0
  6
Continuous
 62
     7
370
    25
100
AcDbCircle
 10
136.0090065094
 20
126.2650855406
 30
0.0
 40
0.3327724084405126
100
AcDbArc
 50
170.7859630095
 51
309.2032852357
  0
ARC
  5
283
330
1F
100
AcDbEntity
  8
0
  6
Continuous
 62
     7
370
    25
100
AcDbCircle
 10
163.83907072
 20
109.3989123006
 30
0.0
 40
1.154996351124871
100
AcDbArc
 50
246.1853058997
 51
305.1251525294
  0
ARC
  5
284
330
1F
100
AcDbEntity
  8
0
  6
Continuous
 62
     7
370
    25
100
AcDbCircle
 10
182.7031287903
 20
125.7706799728
 30
0.0
 40
2.498107418889028
100
AcDbArc
 50
237.8755039218
 51
302.1244960782
  0
LINE
  5
285
330
1F
100
AcDbEntity
  8
0
  6
Continuous
 62
     7
370
    25
100
AcDbLine
 10
136.2194307884
 20
126.0072680153
 30
0.0
 11
135.6805278414
 21
126.3183700647
 31
0.0
  0
LINE
  5
286
330
1F
100
AcDbEntity
  8
0
  6
Continuous
 62
     7
370
    25
100
AcDbLine
 10
135.6805278414
 20
147.334497481
 30
0.0
 11
135.6805278414
 21
126.3183700647
 31
0.0
  0
LWPOLYLINE
  5
287
330
1F
100
AcDbEntity
  8
0
  6
Continuous
 62
     7
370
    25
100
AcDbPolyline
 90
       53
 70
   128
 43
0.0
 10
161.8656463499
 20
140.7794990252
 10
161.8243056509
 20
140.8804298531
 10
161.4300113657
 20
141.798913293
 10
161.0059211849
 20
142.710649419
 10
160.5531237419
 20
143.6132978176
 10
160.0727813612
 20
144.5045414032
 10
159.566127075
 20
145.3820923663
 10
159.0344614574
 20
146.2436980462
 10
158.4791492864
 20
147.0871467134
 10
157.9016160405
 20
147.9102732474
 10
157.3033442393
 20
148.7109646941
 10
156.6858696377
 20
149.4871656901
 10
156.0507772844
 20
150.2368837385
 10
155.3996974522
 20
150.9581943239
 10
154.7343014537
 20
151.6492458524
 10
154.056297351
 20
152.3082644044
 10
153.3674255708
 20
152.933558289
 10
152.6694544371
 20
153.5235223857
 10
151.9641756318
 20
154.076642265
 10
151.2533995955
 20
154.5914980763
 10
150.5389508801
 20
155.066768192
 10
149.8226634651
 20
155.5012326005
 10
149.1063760502
 20
155.8937760379
 10
148.3919273348
 20
156.2433908509
 10
147.6811512985
 20
156.5491795832
 10
146.9758724932
 20
156.8103572797
 10
146.2779013595
 20
157.0262535007
 10
145.5890295793
 20
157.196314044
 10
144.9110254766
 20
157.3201023664
 10
144.2456294781
 20
157.3973007051
 10
143.5945496459
 20
157.4277108932
 10
142.9594572926
 20
157.411254868
 10
142.341982691
 20
157.347974872
 10
141.7437108898
 20
157.238033344
 10
141.1661776439
 20
157.0817125024
 10
140.6108654729
 20
156.8794136204
 10
140.0791998553
 20
156.6316559965
 10
139.5725455691
 20
156.3390756209
 10
139.0922031884
 20
156.0024235432
 10
138.6394057454
 20
155.6225639444
 10
138.2153155646
 20
155.2004719188
 10
137.8210212794
 20
154.7372309705
 10
137.4575350375
 20
154.2340302323
 10
137.1257899029
 20
153.6921614134
 10
136.8266374607
 20
153.1130154832
 10
136.5608456309
 20
152.498079101
 10
136.3290966972
 20
151.8489307997
 10
136.1319855559
 20
151.1672369337
 10
135.9700181884
 20
150.4547474014
 10
135.8436103627
 20
149.7132911531
 10
135.7530865659
 20
148.9447714964
 10
135.6986791711
 20
148.1511612103
 10
135.6805278414
 20
147.334497481
  0
LWPOLYLINE
  5
288
330
1F
100
AcDbEntity
  8
0
  6
Continuous
 62
     7
370
    25
100
AcDbPolyline
 90
       36
 70
   128
 43
0.0
 10
156.4341118692
 20
146.3144572779
 10
156.4159302742
 20
146.5582316763
 10
156.3619698606
 20
146.8151629876
 10
156.2739649606
 20
147.0769932283
 10
156.1547441239
 20
147.3353069588
 10
156.0081392064
 20
147.5818017634
 10
155.8388622107
 20
147.8085550962
 10
155.6523538389
 20
148.0082789186
 10
155.4546086234
 20
148.1745539425
 10
155.2519822581
 20
148.3020359519
 10
155.0509873212
 20
148.3866275701
 10
154.8580839553
 20
148.4256099529
 10
154.6794722332
 20
148.4177301744
 10
154.5208928828
 20
148.3632414972
 10
154.3874427748
 20
148.2638952322
 10
154.2834111055
 20
148.1228844502
 10
154.2121415384
 20
147.9447413536
 10
154.1759247359
 20
147.7351916081
 10
154.1759247359
 20
147.5009703151
 10
154.2121415384
 20
147.2496055396
 10
154.2834111055
 20
146.9891763522
 10
154.3874427748
 20
146.7280531614
 10
154.5208928828
 20
146.4746286814
 10
154.6794722332
 20
146.2370481835
 10
154.8580839553
 20
146.0229477003
 10
155.0509873212
 20
145.8392085975
 10
155.2519822581
 20
145.6917364011
 10
155.4546086234
 20
145.5852709889
 10
155.6523538389
 20
145.5232342467
 10
155.8388622107
 20
145.5076200866
 10
156.0081392064
 20
145.5389303604
 10
156.1547441239
 20
145.6161587302
 10
156.2739649606
 20
145.7368230126
 10
156.3619698606
 20
145.8970449584
 10
156.4159302742
 20
146.0916749024
 10
156.4341118692
 20
146.3144572779
  0
LWPOLYLINE
  5
289
330
1F
100
AcDbEntity
  8
0
  6
Continuous
 62
     7
370
    25
100
AcDbPolyline
 90
       36
 70
   128
 43
0.0
 10
145.4739567609
 20
152.6416201446
 10
145.4557751658
 20
152.8853945429
 10
145.4018147523
 20
153.1423258543
 10
145.3138098522
 20
153.4041560949
 10
145.1945890155
 20
153.6624698254
 10
145.047984098
 20
153.90896463
 10
144.8787071024
 20
154.1357179629
 10
144.6921987305
 20
154.3354417852
 10
144.494453515
 20
154.5017168092
 10
144.2918271497
 20
154.6291988186
 10
144.0908322128
 20
154.7137904367
 10
143.8979288469
 20
154.7527728195
 10
143.7193171248
 20
154.744893041
 10
143.5607377744
 20
154.6904043638
 10
143.4272876664
 20
154.5910580989
 10
143.3232559971
 20
154.4500473168
 10
143.25198643
 20
154.2719042202
 10
143.2157696275
 20
154.0623544748
 10
143.2157696275
 20
153.8281331817
 10
143.25198643
 20
153.5767684062
 10
143.3232559971
 20
153.3163392189
 10
143.4272876664
 20
153.0552160281
 10
143.5607377744
 20
152.801791548
 10
143.7193171248
 20
152.5642110501
 10
143.8979288469
 20
152.3501105669
 10
144.0908322128
 20
152.1663714641
 10
144.2918271497
 20
152.0188992678
 10
144.494453515
 20
151.9124338555
 10
144.6921987305
 20
151.8503971133
 10
144.8787071024
 20
151.8347829532
 10
145.047984098
 20
151.866093227
 10
145.1945890155
 20
151.9433215968
 10
145.3138098522
 20
152.0639858792
 10
145.4018147523
 20
152.224207825
 10
145.4557751658
 20
152.418837769
 10
145.4739567609
 20
152.6416201446
  0
LWPOLYLINE
  5
28A
330
1F
100
AcDbEntity
  8
0
  6
Continuous
 62
     7
370
    25
100
AcDbPolyline
 90
       36
 70
   128
 43
0.0
 10
139.9938792067
 20
144.8444527399
 10
139.9756976116
 20
145.0882271382
 10
139.9217371981
 20
145.3451584496
 10
139.833732298
 20
145.6069886902
 10
139.7145114613
 20
145.8653024208
 10
139.5679065438
 20
146.1117972254
 10
139.3986295482
 20
146.3385505582
 10
139.2121211763
 20
146.5382743806
 10
139.0143759608
 20
146.7045494045
 10
138.8117495955
 20
146.8320314139
 10
138.6107546586
 20
146.9166230321
 10
138.4178512927
 20
146.9556054149
 10
138.2392395706
 20
146.9477256364
 10
138.0806602202
 20
146.8932369592
 10
137.9472101122
 20
146.7938906942
 10
137.8431784429
 20
146.6528799121
 10
137.7719088758
 20
146.4747368155
 10
137.7356920733
 20
146.2651870701
 10
137.7356920733
 20
146.0309657771
 10
137.7719088758
 20
145.7796010015
 10
137.8431784429
 20
145.5191718142
 10
137.9472101122
 20
145.2580486234
 10
138.0806602202
 20
145.0046241434
 10
138.2392395706
 20
144.7670436454
 10
138.4178512927
 20
144.5529431622
 10
138.6107546586
 20
144.3692040595
 10
138.8117495955
 20
144.2217318631
 10
139.0143759608
 20
144.1152664509
 10
139.2121211763
 20
144.0532297087
 10
139.3986295482
 20
144.0376155485
 10
139.5679065438
 20
144.0689258223
 10
139.7145114613
 20
144.1461541921
 10
139.833732298
 20
144.2668184746
 10
139.9217371981
 20
144.4270404204
 10
139.9756976116
 20
144.6216703643
 10
139.9938792067
 20
144.8444527399
  0
LWPOLYLINE
  5
28B
330
1F
100
AcDbEntity
  8
0
  6
Continuous
 62
     7
370
    25
100
AcDbPolyline
 90
       23
 70
   128
 43
0.0
 10
145.3800218996
 20
131.2955646992
 10
145.3138098522
 20
131.482658419
 10
145.1945890155
 20
131.7409721495
 10
145.047984098
 20
131.9874669541
 10
144.8787071024
 20
132.214220287
 10
144.6921987305
 20
132.4139441093
 10
144.494453515
 20
132.5802191332
 10
144.2918271497
 20
132.7077011426
 10
144.0908322128
 20
132.7922927608
 10
143.8979288469
 20
132.8312751436
 10
143.7193171248
 20
132.8233953651
 10
143.5607377744
 20
132.7689066879
 10
143.4272876664
 20
132.6695604229
 10
143.3232559971
 20
132.5285496409
 10
143.25198643
 20
132.3504065443
 10
143.2157696275
 20
132.1408567988
 10
143.2157696275
 20
131.9066355058
 10
143.25198643
 20
131.6552707303
 10
143.3232559971
 20
131.3948415429
 10
143.4272876664
 20
131.1337183522
 10
143.5607377744
 20
130.8802938721
 10
143.7193171248
 20
130.6427133742
 10
143.8910565069
 20
130.4360032743
  0
LINE
  5
28C
330
1F
100
AcDbEntity
  8
0
  6
Continuous
 62
     7
370
    25
100
AcDbLine
 10
145.2264693874
 20
147.5395284094
 30
0.0
 11
145.2264693874
 21
136.107957043
 31
0.0
  0
ARC
  5
28D
330
1F
100
AcDbEntity
  8
0
  6
Continuous
 62
     7
370
    25
100
AcDbCircle
 10
154.5506223485
 20
136.4277592978
 30
0.0
 40
9.329635680062868
100
AcDbArc
 50
181.9643757046
 51
209.1362965072
  0
LINE
  5
28E
330
1F
100
AcDbEntity
  8
0
  6
Continuous
 62
     7
370
    25
100
AcDbLine
 10
154.4188575429
 20
136.5135734476
 30
0.0
 11
154.4188575429
 21
142.2328756825
 31
0.0
  0
LWPOLYLINE
  5
28F
330
1F
100
AcDbEntity
  8
0
  6
Continuous
 62
     7
370
    25
100
AcDbPolyline
 90
       36
 70
   128
 43
0.0
 10
154.4188575429
 20
142.2328756825
 10
154.4003546168
 20
142.7193191958
 10
154.3449948132
 20
143.2232091758
 10
154.2532238566
 20
143.7404885965
 10
154.1257806329
 20
144.2669926282
 10
153.96369124
 20
144.79848217
 10
153.7682607263
 20
145.3306779808
 10
153.5410625835
 20
145.8592951326
 10
153.2839260773
 20
146.3800775111
 10
152.9989215197
 20
146.8888320827
 10
152.6883436
 20
147.3814626548
 10
152.3546929087
 20
147.8540028556
 10
152.0006558052
 20
148.3026480694
 10
151.629082788
 20
148.7237860686
 10
151.2429655446
 20
149.1140260978
 10
150.845412864
 20
149.4702261736
 10
150.4396256065
 20
149.7895183825
 10
150.0288709327
 20
150.0693319713
 10
149.6164559976
 20
150.3074140456
 10
149.2057013238
 20
150.5018477086
 10
148.7999140663
 20
150.6510674946
 10
148.4023613857
 20
150.7538719736
 10
148.0162441423
 20
150.8094334246
 10
147.6446711251
 20
150.8173044993
 10
147.2906340216
 20
150.7774218245
 10
146.9569833303
 20
150.690106512
 10
146.6464054105
 20
150.5560615734
 10
146.361400853
 20
150.3763662597
 10
146.1042643468
 20
150.1524673719
 10
145.877066204
 20
149.8861676122
 10
145.6816356903
 20
149.5796110697
 10
145.5195462974
 20
149.2352659574
 10
145.3921030737
 20
148.8559047397
 10
145.3003321171
 20
148.4445818101
 10
145.2449723135
 20
148.0046088989
 10
145.2264693874
 20
147.5395284094
  0
LINE
  5
290
330
1F
100
AcDbEntity
  8
0
  6
Continuous
 62
     7
370
    25
100
AcDbLine
 10
134.6198676696
 20
146.7221913971
 30
0.0
 11
134.6198676696
 21
125.7060639808
 31
0.0
  0
LINE
  5
291
330
1F
100
AcDbEntity
  8
0
  6
Continuous
 62
     7
370
    25
100
AcDbLine
 10
135.6805278414
 20
147.334497481
 30
0.0
 11
134.6198676696
 21
146.7221913971
 31
0.0
  0
ARC
  5
292
330
1F
100
AcDbEntity
  8
0
  6
Continuous
 62
     7
370
    25
100
AcDbCircle
 10
141.9730314528
 20
129.9984463961
 30
0.0
 40
2.444224526315103
100
AcDbArc
 50
16.270688908
 51
59.5070798469
  0
ARC
  5
293
330
1F
100
AcDbEntity
  8
0
  6
Continuous
 62
     7
370
    25
100
AcDbCircle
 10
165.7325660418
 20
115.9737826309
 30
0.0
 40
2.498107418889113
100
AcDbArc
 50
237.8755039218
 51
302.1244960782
  0
LWPOLYLINE
  5
294
330
1F
100
AcDbEntity
  8
0
  6
Continuous
 62
     7
370
    25
100
AcDbPolyline
 90
       17
 70
   128
 43
0.0
 10
138.762815967
 20
155.8790875265
 10
138.5118853973
 20
155.726769537
 10
138.0315430166
 20
155.3901174593
 10
137.5787455736
 20
155.0102578606
 10
137.1546553928
 20
154.5881658349
 10
136.7603611076
 20
154.1249248866
 10
136.3968748657
 20
153.6217241484
 10
136.0651297312
 20
153.0798553295
 10
135.7659772889
 20
152.5007093993
 10
135.5001854591
 20
151.8857730171
 10
135.2684365254
 20
151.2366247158
 10
135.0713253841
 20
150.5549308498
 10
134.9093580167
 20
149.8424413175
 10
134.782950191
 20
149.1009850692
 10
134.6924263941
 20
148.3324654125
 10
134.6380189993
 20
147.5388551264
 10
134.6198676696
 20
146.7221913971
  0
ARC
  5
295
330
1F
100
AcDbEntity
  8
0
  6
Continuous
 62
     7
370
    25
100
AcDbCircle
 10
136.5473408383
 20
144.1610614696
 30
0.0
 40
2.383795068122127
100
AcDbArc
 50
359.8280456717
 51
60.1665777956
  0
LINE
  5
296
330
1F
100
AcDbEntity
  8
0
  6
Continuous
 62
     7
370
    25
100
AcDbLine
 10
154.4188575429
 20
142.2328756825
 30
0.0
 11
153.3581973711
 21
141.6205695987
 31
0.0
  0
LINE
  5
297
330
1F
100
AcDbEntity
  8
0
  6
Continuous
 62
     7
370
    25
100
AcDbLine
 10
153.3581973711
 20
141.6205695987
 30
0.0
 11
153.3581973711
 21
135.9012673638
 31
0.0
  0
LWPOLYLINE
  5
298
330
1F
100
AcDbEntity
  8
0
  6
Continuous
 62
     7
370
    25
100
AcDbPolyline
 90
       26
 70
   128
 43
0.0
 10
146.0861479972
 20
150.1339267584
 10
146.2299738498
 20
150.1651157406
 10
146.5840109533
 20
150.2049984154
 10
146.9555839705
 20
150.1971273407
 10
147.3417012139
 20
150.1415658898
 10
147.7392538946
 20
150.0387614107
 10
148.145041152
 20
149.8895416247
 10
148.5557958258
 20
149.6951079618
 10
148.9682107609
 20
149.4570258875
 10
149.3789654348
 20
149.1772122986
 10
149.7847526922
 20
148.8579200897
 10
150.1823053728
 20
148.5017200139
 10
150.5684226162
 20
148.1114799848
 10
150.9399956334
 20
147.6903419855
 10
151.2940327369
 20
147.2416967718
 10
151.6276834282
 20
146.7691565709
 10
151.938261348
 20
146.2765259988
 10
152.2232659055
 20
145.7677714272
 10
152.4804024117
 20
145.2469890487
 10
152.7076005545
 20
144.7183718969
 10
152.9030310682
 20
144.1861760862
 10
153.0651204612
 20
143.6546865443
 10
153.1925636848
 20
143.1281825126
 10
153.2843346414
 20
142.6109030919
 10
153.339694445
 20
142.107013112
 10
153.3581973711
 20
141.6205695987
  0
ARC
  5
299
330
1F
100
AcDbEntity
  8
0
  6
Continuous
 62
     7
370
    25
100
AcDbCircle
 10
142.0274183925
 20
151.9582288742
 30
0.0
 40
2.383795068121891
100
AcDbArc
 50
359.8280456716
 51
60.1665777957
  0
ARC
  5
29A
330
1F
100
AcDbEntity
  8
0
  6
Continuous
 62
     7
370
    25
100
AcDbCircle
 10
152.9875735009
 20
145.6310660076
 30
0.0
 40
2.383795068122098
100
AcDbArc
 50
359.8280456717
 51
60.1665777956
  0
ENDSEC
  0
SECTION
  2
OBJECTS
  0
DICTIONARY
  5
C
330
0
100
AcDbDictionary
281
     1
  3
ACAD_GROUP
350
D
  3
ACAD_LAYOUT
350
1A
  3
ACAD_MLINESTYLE
350
17
  3
ACAD_PLOTSETTINGS
350
19
  3
ACAD_PLOTSTYLENAME
350
E
  3
ACAD_SCALELIST
350
47
  3
DWGPROPS
350
29B
  0
DICTIONARY
  5
D
102
{ACAD_REACTORS
330
C
102
}
330
C
100
AcDbDictionary
281
     1
  0
DICTIONARY
  5
1A
102
{ACAD_REACTORS
330
C
102
}
330
C
100
AcDbDictionary
281
     1
  3
Layout1
350
1E
  3
Layout2
350
26
  3
Model
350
22
  0
DICTIONARY
  5
17
102
{ACAD_REACTORS
330
C
102
}
330
C
100
AcDbDictionary
281
     1
  3
Standard
350
18
  0
DICTIONARY
  5
19
102
{ACAD_REACTORS
330
C
102
}
330
C
100
AcDbDictionary
281
     1
  0
ACDBDICTIONARYWDFLT
  5
E
102
{ACAD_REACTORS
330
C
102
}
330
C
100
AcDbDictionary
281
     1
  3
Normal
350
F
100
AcDbDictionaryWithDefault
340
F
  0
DICTIONARY
  5
47
102
{ACAD_REACTORS
330
C
102
}
330
C
100
AcDbDictionary
281
     1
  3
A0
350
48
  3
A1
350
49
  3
A2
350
4A
  3
A3
350
4B
  3
A4
350
4C
  3
A5
350
4D
  3
A6
350
4E
  3
A7
350
4F
  3
A8
350
50
  3
A9
350
51
  3
B0
350
52
  3
B1
350
53
  3
B2
350
54
  3
B3
350
55
  3
B4
350
56
  3
B5
350
57
  3
B6
350
58
  3
B7
350
59
  3
B8
350
5A
  3
B9
350
5B
  3
C0
350
5C
  3
C1
350
5D
  3
C2
350
5E
  3
C3
350
5F
  3
C4
350
60
  3
C5
350
61
  3
C6
350
62
  3
C7
350
63
  3
C8
350
64
  3
C9
350
65
  3
D0
350
66
  3
D1
350
67
  3
D2
350
68
  0
XRECORD
  5
29B
102
{ACAD_REACTORS
330
C
102
}
330
C
100
AcDbXrecord
280
     1
  1
DWGPROPS COOKIE
  2

  3

  4

  6

  7

  8
chute
  9

300
=
301
=
302
=
303
=
304
=
305
=
306
=
307
=
308
=
309
=
 40
0.0
 41
2459947.355534271
 42
2459947.355540521
  1

 90
        0
  0
LAYOUT
  5
1E
102
{ACAD_REACTORS
330
1A
102
}
330
1A
100
AcDbPlotSettings
  1

  2
none_device
  4

  6

 40
0.0
 41
0.0
 42
0.0
 43
0.0
 44
0.0
 45
0.0
 46
0.0
 47
0.0
 48
0.0
 49
0.0
140
0.0
141
0.0
142
1.0
143
1.0
 70
   688
 72
     1
 73
     0
 74
     5
  7

 75
    16
147
1.0
148
0.0
149
0.0
100
AcDbLayout
  1
Layout1
 70
     1
 71
     1
 10
0.0
 20
0.0
 11
420.0
 21
297.0
 12
0.0
 22
0.0
 32
0.0
 14
1.0000000000E+20
 24
1.0000000000E+20
 34
1.0000000000E+20
 15
-1.0000000000E+20
 25
-1.0000000000E+20
 35
-1.0000000000E+20
146
0.0
 13
0.0
 23
0.0
 33
0.0
 16
1.0
 26
0.0
 36
0.0
 17
0.0
 27
1.0
 37
0.0
 76
     0
330
1B
  0
LAYOUT
  5
26
102
{ACAD_REACTORS
330
1A
102
}
330
1A
100
AcDbPlotSettings
  1

  2
none_device
  4

  6

 40
0.0
 41
0.0
 42
0.0
 43
0.0
 44
0.0
 45
0.0
 46
0.0
 47
0.0
 48
0.0
 49
0.0
140
0.0
141
0.0
142
1.0
143
1.0
 70
   688
 72
     1
 73
     0
 74
     5
  7

 75
    16
147
1.0
148
0.0
149
0.0
100
AcDbLayout
  1
Layout2
 70
     1
 71
     2
 10
0.0
 20
0.0
 11
0.0
 21
0.0
 12
0.0
 22
0.0
 32
0.0
 14
0.0
 24
0.0
 34
0.0
 15
0.0
 25
0.0
 35
0.0
146
0.0
 13
0.0
 23
0.0
 33
0.0
 16
1.0
 26
0.0
 36
0.0
 17
0.0
 27
1.0
 37
0.0
 76
     0
330
23
  0
LAYOUT
  5
22
102
{ACAD_REACTORS
330
1A
102
}
330
1A
100
AcDbPlotSettings
  1

  2
none_device
  4
Letter_(8.50_x_11.00_Inches)
  6

 40
6.35
 41
6.35
 42
6.35000508
 43
6.35000508
 44
215.9
 45
279.4
 46
0.0
 47
0.0
 48
0.0
 49
0.0
140
0.0
141
0.0
142
1.0
143
1.0
 70
  1712
 72
     1
 73
     0
 74
     0
  7

 75
     0
147
1.0
148
0.0
149
0.0
100
AcDbLayout
  1
Model
 70
     1
 71
     0
 10
0.0
 20
0.0
 11
210.0
 21
297.0
 12
0.0
 22
0.0
 32
0.0
 14
0.0
 24
0.0
 34
0.0
 15
210.0
 25
297.0
 35
0.0
146
0.0
 13
0.0
 23
0.0
 33
0.0
 16
1.0
 26
0.0
 36
0.0
 17
0.0
 27
1.0
 37
0.0
 76
     0
330
1F
331
29
  0
MLINESTYLE
  5
18
102
{ACAD_REACTORS
330
17
102
}
330
17
100
AcDbMlineStyle
  2
Standard
 70
     0
  3

 62
   256
 51
90.0
 52
90.0
 71
     2
 49
0.5
 62
   256
  6
BYLAYER
 49
-0.5
 62
   256
  6
BYLAYER
  0
ACDBPLACEHOLDER
  5
F
102
{ACAD_REACTORS
330
E
102
}
330
E
  0
SCALE
  5
48
102
{ACAD_REACTORS
330
47
102
}
330
47
100
AcDbScale
 70
     0
300
1:1
140
1.0
141
1.0
290
     1
  0
SCALE
  5
49
102
{ACAD_REACTORS
330
47
102
}
330
47
100
AcDbScale
 70
     0
300
1:2
140
1.0
141
2.0
290
     0
  0
SCALE
  5
4A
102
{ACAD_REACTORS
330
47
102
}
330
47
100
AcDbScale
 70
     0
300
1:4
140
1.0
141
4.0
290
     0
  0
SCALE
  5
4B
102
{ACAD_REACTORS
330
47
102
}
330
47
100
AcDbScale
 70
     0
300
1:5
140
1.0
141
5.0
290
     0
  0
SCALE
  5
4C
102
{ACAD_REACTORS
330
47
102
}
330
47
100
AcDbScale
 70
     0
300
1:8
140
1.0
141
8.0
290
     0
  0
SCALE
  5
4D
102
{ACAD_REACTORS
330
47
102
}
330
47
100
AcDbScale
 70
     0
300
1:10
140
1.0
141
10.0
290
     0
  0
SCALE
  5
4E
102
{ACAD_REACTORS
330
47
102
}
330
47
100
AcDbScale
 70
     0
300
1:16
140
1.0
141
16.0
290
     0
  0
SCALE
  5
4F
102
{ACAD_REACTORS
330
47
102
}
330
47
100
AcDbScale
 70
     0
300
1:20
140
1.0
141
20.0
290
     0
  0
SCALE
  5
50
102
{ACAD_REACTORS
330
47
102
}
330
47
100
AcDbScale
 70
     0
300
1:30
140
1.0
141
30.0
290
     0
  0
SCALE
  5
51
102
{ACAD_REACTORS
330
47
102
}
330
47
100
AcDbScale
 70
     0
300
1:40
140
1.0
141
40.0
290
     0
  0
SCALE
  5
52
102
{ACAD_REACTORS
330
47
102
}
330
47
100
AcDbScale
 70
     0
300
1:50
140
1.0
141
50.0
290
     0
  0
SCALE
  5
53
102
{ACAD_REACTORS
330
47
102
}
330
47
100
AcDbScale
 70
     0
300
1:100
140
1.0
141
100.0
290
     0
  0
SCALE
  5
54
102
{ACAD_REACTORS
330
47
102
}
330
47
100
AcDbScale
 70
     0
300
2:1
140
2.0
141
1.0
290
     0
  0
SCALE
  5
55
102
{ACAD_REACTORS
330
47
102
}
330
47
100
AcDbScale
 70
     0
300
4:1
140
4.0
141
1.0
290
     0
  0
SCALE
  5
56
102
{ACAD_REACTORS
330
47
102
}
330
47
100
AcDbScale
 70
     0
300
8:1
140
8.0
141
1.0
290
     0
  0
SCALE
  5
57
102
{ACAD_REACTORS
330
47
102
}
330
47
100
AcDbScale
 70
     0
300
10:1
140
10.0
141
1.0
290
     0
  0
SCALE
  5
58
102
{ACAD_REACTORS
330
47
102
}
330
47
100
AcDbScale
 70
     0
300
100:1
140
100.0
141
1.0
290
     0
  0
SCALE
  5
59
102
{ACAD_REACTORS
330
47
102
}
330
47
100
AcDbScale
 70
     0
300
1/128" = 1'-0"
140
0.0078125
141
12.0
290
     0
  0
SCALE
  5
5A
102
{ACAD_REACTORS
330
47
102
}
330
47
100
AcDbScale
 70
     0
300
1/64" = 1'-0"
140
0.015625
141
12.0
290
     0
  0
SCALE
  5
5B
102
{ACAD_REACTORS
330
47
102
}
330
47
100
AcDbScale
 70
     0
300
1/32" = 1'-0"
140
0.03125
141
12.0
290
     0
  0
SCALE
  5
5C
102
{ACAD_REACTORS
330
47
102
}
330
47
100
AcDbScale
 70
     0
300
1/16" = 1'-0"
140
0.0625
141
12.0
290
     0
  0
SCALE
  5
5D
102
{ACAD_REACTORS
330
47
102
}
330
47
100
AcDbScale
 70
     0
300
3/32" = 1'-0"
140
0.09375
141
12.0
290
     0
  0
SCALE
  5
5E
102
{ACAD_REACTORS
330
47
102
}
330
47
100
AcDbScale
 70
     0
300
1/8" = 1'-0"
140
0.125
141
12.0
290
     0
  0
SCALE
  5
5F
102
{ACAD_REACTORS
330
47
102
}
330
47
100
AcDbScale
 70
     0
300
3/16" = 1'-0"
140
0.1875
141
12.0
290
     0
  0
SCALE
  5
60
102
{ACAD_REACTORS
330
47
102
}
330
47
100
AcDbScale
 70
     0
300
1/4" = 1'-0"
140
0.25
141
12.0
290
     0
  0
SCALE
  5
61
102
{ACAD_REACTORS
330
47
102
}
330
47
100
AcDbScale
 70
     0
300
3/8" = 1'-0"
140
0.375
141
12.0
290
     0
  0
SCALE
  5
62
102
{ACAD_REACTORS
330
47
102
}
330
47
100
AcDbScale
 70
     0
300
1/2" = 1'-0"
140
0.5
141
12.0
290
     0
  0
SCALE
  5
63
102
{ACAD_REACTORS
330
47
102
}
330
47
100
AcDbScale
 70
     0
300
3/4" = 1'-0"
140
0.75
141
12.0
290
     0
  0
SCALE
  5
64
102
{ACAD_REACTORS
330
47
102
}
330
47
100
AcDbScale
 70
     0
300
1" = 1'-0"
140
1.0
141
12.0
290
     0
  0
SCALE
  5
65
102
{ACAD_REACTORS
330
47
102
}
330
47
100
AcDbScale
 70
     0
300
1-1/2" = 1'-0"
140
1.5
141
12.0
290
     0
  0
SCALE
  5
66
102
{ACAD_REACTORS
330
47
102
}
330
47
100
AcDbScale
 70
     0
300
3" = 1'-0"
140
3.0
141
12.0
290
     0
  0
SCALE
  5
67
102
{ACAD_REACTORS
330
47
102
}
330
47
100
AcDbScale
 70
     0
300
6" = 1'-0"
140
6.0
141
12.0
290
     0
  0
SCALE
  5
68
102
{ACAD_REACTORS
330
47
102
}
330
47
100
AcDbScale
 70
     0
300
1'-0" = 1'-0"
140
12.0
141
12.0
290
     0
  0
ENDSEC
  0
EOF
